<?xml version="1.0" encoding="UTF-8" standalone="no"?>
<!-- Created with Inkscape (http://www.inkscape.org/) -->

<svg
   width="300mm"
   height="200mm"
   viewBox="0 0 300 200"
   version="1.1"
   id="svg5"
   inkscape:version="1.2.2 (732a01da63, 2022-12-09)"
   sodipodi:docname="szyld.svg"
   inkscape:export-filename="szyld.png"
   inkscape:export-xdpi="1200"
   inkscape:export-ydpi="1200"
   xmlns:inkscape="http://www.inkscape.org/namespaces/inkscape"
   xmlns:sodipodi="http://sodipodi.sourceforge.net/DTD/sodipodi-0.dtd"
   xmlns="http://www.w3.org/2000/svg"
   xmlns:svg="http://www.w3.org/2000/svg"
   xmlns:rdf="http://www.w3.org/1999/02/22-rdf-syntax-ns#"
   xmlns:cc="http://creativecommons.org/ns#"
   xmlns:dc="http://purl.org/dc/elements/1.1/">
  <title
     id="title830">Szyld - Surowieckiego10</title>
  <sodipodi:namedview
     id="namedview7"
     pagecolor="#ffffff"
     bordercolor="#666666"
     borderopacity="1.0"
     inkscape:pageshadow="2"
     inkscape:pageopacity="0.0"
     inkscape:pagecheckerboard="false"
     inkscape:document-units="cm"
     showgrid="false"
     inkscape:zoom="0.92470537"
     inkscape:cx="635.3375"
     inkscape:cy="454.73944"
     inkscape:window-width="1920"
     inkscape:window-height="1137"
     inkscape:window-x="-8"
     inkscape:window-y="-8"
     inkscape:window-maximized="1"
     inkscape:current-layer="layer1"
     units="mm"
     inkscape:lockguides="false"
     showguides="true"
     inkscape:showpageshadow="2"
     inkscape:deskcolor="#d1d1d1" />
  <defs
     id="defs2">
    <clipPath
       clipPathUnits="userSpaceOnUse"
       id="clipPath1748">
      <path
         d="M 0,512 H 512 V 0 H 0 Z"
         id="path1746" />
    </clipPath>
    <filter
       style="color-interpolation-filters:sRGB"
       inkscape:label="Drop Shadow"
       id="filter6708"
       x="-0.010038189"
       y="-0.016196448"
       width="1.0253121"
       height="1.0498711">
      <feFlood
         flood-opacity="0.498039"
         flood-color="rgb(0,0,0)"
         result="flood"
         id="feFlood6698" />
      <feComposite
         in="flood"
         in2="SourceGraphic"
         operator="in"
         result="composite1"
         id="feComposite6700" />
      <feGaussianBlur
         in="composite1"
         stdDeviation="1.9"
         result="blur"
         id="feGaussianBlur6702" />
      <feOffset
         dx="2.9"
         dy="6"
         result="offset"
         id="feOffset6704" />
      <feComposite
         in="offset"
         in2="offset"
         operator="atop"
         result="composite2"
         id="feComposite6706" />
    </filter>
  </defs>
  <g
     inkscape:label="Warstwa 1"
     inkscape:groupmode="layer"
     id="layer1">
    <g
       id="g4753"
       style="fill:#000000">
      <path
         style="color:#000000;fill:#000000;stroke-width:0.881439;stroke-linecap:round;stroke-linejoin:round;stroke-miterlimit:10;-inkscape-stroke:none"
         d="m 125.90126,147.41901 a 0.37543677,0.37543677 0 0 0 -0.3753,0.3753 v 7.43198 a 0.37543677,0.37543677 0 0 0 0.3753,0.3753 0.37543677,0.37543677 0 0 0 0.3753,-0.3753 v -7.43198 a 0.37543677,0.37543677 0 0 0 -0.3753,-0.3753 z"
         id="path4438" />
      <path
         style="color:#000000;fill:#000000;stroke-width:0.881439;stroke-linecap:round;stroke-linejoin:round;stroke-miterlimit:10;-inkscape-stroke:none"
         d="m 127.34737,139.77528 c -0.50038,0 -0.95862,0.20521 -1.28773,0.53368 -0.32847,0.32911 -0.53368,0.78732 -0.53368,1.28773 v 4.4468 a 0.37543677,0.37543677 0 0 0 0.3753,0.3753 0.37543677,0.37543677 0 0 0 0.3753,-0.3753 v -4.4468 c 0,-0.29753 0.11919,-0.56298 0.31333,-0.75749 0.1945,-0.19412 0.45996,-0.31332 0.75748,-0.31332 0.59507,0 1.06909,0.47575 1.06909,1.07081 v 4.92711 4.12658 a 0.37543677,0.37543677 0 0 0 0.3753,0.3753 0.37543677,0.37543677 0 0 0 0.3753,-0.3753 v -4.12658 -4.92711 c 0,-1.0008 -0.81889,-1.82141 -1.81969,-1.82141 z"
         id="path4435" />
      <path
         style="color:#000000;fill:#000000;stroke-width:0.881439;stroke-linecap:round;stroke-linejoin:round;stroke-miterlimit:10;-inkscape-stroke:none"
         d="m 128.91227,137.54585 a 0.37543677,0.37543677 0 0 0 -0.3753,0.3753 0.37543677,0.37543677 0 0 0 0.3753,0.3753 h 1.04327 v 1.1173 a 0.37543677,0.37543677 0 0 0 0.3753,0.3753 0.37543677,0.37543677 0 0 0 0.3753,-0.3753 v -1.4926 a 0.37547432,0.37547432 0 0 0 -0.3753,-0.3753 z"
         id="path4432" />
      <path
         style="color:#000000;fill:#000000;stroke-width:0.881439;stroke-linecap:round;stroke-linejoin:round;stroke-miterlimit:10;-inkscape-stroke:none"
         d="m 130.33084,141.67072 a 0.37543677,0.37543677 0 0 0 -0.3753,0.3753 v 1.11729 h -1.08631 a 0.37543677,0.37543677 0 0 0 -0.3753,0.3753 0.37543677,0.37543677 0 0 0 0.3753,0.3753 h 1.46161 a 0.37547432,0.37547432 0 0 0 0.3753,-0.3753 v -1.49259 a 0.37543677,0.37543677 0 0 0 -0.3753,-0.3753 z"
         id="path4429" />
      <path
         style="color:#000000;fill:#000000;stroke-width:0.881439;stroke-linecap:round;stroke-linejoin:round;stroke-miterlimit:10;-inkscape-stroke:none"
         d="m 124.36218,137.54585 a 0.37547432,0.37547432 0 0 0 -0.3753,0.3753 v 1.4926 a 0.37543677,0.37543677 0 0 0 0.3753,0.3753 0.37543677,0.37543677 0 0 0 0.3753,-0.3753 v -1.1173 h 1.04327 a 0.37543677,0.37543677 0 0 0 0.3753,-0.3753 0.37543677,0.37543677 0 0 0 -0.3753,-0.3753 z"
         id="path4426" />
      <path
         style="color:#000000;fill:#000000;stroke-width:0.881439;stroke-linecap:round;stroke-linejoin:round;stroke-miterlimit:10;-inkscape-stroke:none"
         d="m 124.36218,141.67072 a 0.37543677,0.37543677 0 0 0 -0.3753,0.3753 v 1.49259 a 0.37547432,0.37547432 0 0 0 0.3753,0.3753 h 1.41169 a 0.37543677,0.37543677 0 0 0 0.3753,-0.3753 0.37543677,0.37543677 0 0 0 -0.3753,-0.3753 h -1.03639 v -1.11729 a 0.37543677,0.37543677 0 0 0 -0.3753,-0.3753 z"
         id="path4423" />
      <path
         style="color:#000000;fill:#000000;stroke-width:0.881439;stroke-linecap:round;stroke-linejoin:round;stroke-miterlimit:10;-inkscape-stroke:none"
         d="m 137.51835,155.53445 a 0.37543677,0.37543677 0 0 0 -0.41317,0.33398 c -0.0981,0.91937 -0.39282,1.80861 -0.86767,2.60816 -0.66537,1.12039 -1.0137,2.40175 -1.00883,3.70481 v 0.61804 a 0.37543677,0.37543677 0 0 0 0.3753,0.3753 0.37543677,0.37543677 0 0 0 0.3753,-0.3753 v -0.61976 a 0.37547432,0.37547432 0 0 0 0,-0.002 c -0.004,-1.16721 0.30781,-2.31387 0.90382,-3.31745 0.53013,-0.89263 0.85976,-1.88649 0.96924,-2.91288 a 0.37543677,0.37543677 0 0 0 -0.33399,-0.41318 z"
         id="path4420" />
      <path
         style="color:#000000;fill:#000000;stroke-width:0.881439;stroke-linecap:round;stroke-linejoin:round;stroke-miterlimit:10;-inkscape-stroke:none"
         d="m 125.75664,149.56752 a 0.37543677,0.37543677 0 0 0 -0.28405,0.0499 l -1.06909,0.68002 a 0.37547432,0.37547432 0 0 0 -0.002,0 c -0.0435,0.0277 -0.0909,0.0595 -0.14117,0.0981 -0.71417,0.54757 -1.13623,1.39733 -1.13623,2.30172 v 2.56341 c 0,1.15804 0.43503,2.27406 1.21714,3.12808 0.80674,0.88088 1.2533,2.03172 1.2533,3.2262 v 1.18443 a 0.37543677,0.37543677 0 0 0 0.3753,0.3753 0.37543677,0.37543677 0 0 0 0.3753,-0.3753 v -1.18443 c 0,-1.382 -0.51789,-2.71315 -1.45128,-3.73234 -0.65546,-0.71573 -1.01916,-1.65142 -1.01916,-2.62194 v -2.56341 c 0,-0.67103 0.31399,-1.30003 0.84356,-1.70606 0.0231,-0.0178 0.0518,-0.0384 0.0861,-0.0603 l 1.07081,-0.68003 a 0.37543677,0.37543677 0 0 0 0.11534,-0.51818 0.37543677,0.37543677 0 0 0 -0.23413,-0.16527 z"
         id="path4417" />
      <path
         style="color:#000000;fill:#000000;stroke-width:0.881439;stroke-linecap:round;stroke-linejoin:round;stroke-miterlimit:10;-inkscape-stroke:none"
         d="m 133.242,145.60965 c -1.0222,0 -1.85929,0.83703 -1.85929,1.85928 v 4.12658 a 0.37543677,0.37543677 0 0 0 0.3753,0.37531 0.37543677,0.37543677 0 0 0 0.3753,-0.37531 v -4.12658 c 0,-0.61644 0.49229,-1.10868 1.10869,-1.10868 0.17148,0 0.3313,0.0383 0.47514,0.10673 a 0.37543677,0.37543677 0 0 0 0.50098,-0.17732 0.37543677,0.37543677 0 0 0 -0.17732,-0.49924 c -0.24199,-0.11519 -0.51445,-0.18077 -0.7988,-0.18077 z"
         id="path4414" />
      <path
         style="color:#000000;fill:#000000;stroke-width:0.881439;stroke-linecap:round;stroke-linejoin:round;stroke-miterlimit:10;-inkscape-stroke:none"
         d="m 130.27402,144.66451 c -1.02219,0 -1.85756,0.83703 -1.85756,1.85929 a 0.37543677,0.37543677 0 0 0 0.3753,0.3753 0.37543677,0.37543677 0 0 0 0.3753,-0.3753 c 0,-0.61644 0.49057,-1.10868 1.10696,-1.10868 0.61646,0 1.10869,0.49228 1.10869,1.10868 v 0.94513 a 0.37543677,0.37543677 0 0 0 0.3753,0.3753 0.37543677,0.37543677 0 0 0 0.3753,-0.3753 v -0.94513 c 0,-1.0222 -0.83703,-1.85929 -1.85929,-1.85929 z"
         id="path4411" />
      <path
         style="color:#000000;fill:#000000;stroke-width:0.881439;stroke-linecap:round;stroke-linejoin:round;stroke-miterlimit:10;-inkscape-stroke:none"
         d="m 133.95988,153.83355 a 0.37543677,0.37543677 0 0 0 -0.3753,0.3753 v 1.03466 c 0,0.49491 0.40893,0.90382 0.90382,0.90382 h 7.19097 a 0.37543677,0.37543677 0 0 0 0.3753,-0.3753 0.37543677,0.37543677 0 0 0 -0.3753,-0.37531 h -7.19097 c -0.0888,0 -0.15321,-0.0644 -0.15321,-0.15321 v -1.03466 a 0.37543677,0.37543677 0 0 0 -0.37531,-0.3753 z"
         id="path4408" />
      <path
         style="color:#000000;fill:#000000;stroke-width:0.881439;stroke-linecap:round;stroke-linejoin:round;stroke-miterlimit:10;-inkscape-stroke:none"
         d="m 134.4884,141.34534 c -0.4949,0 -0.90382,0.40891 -0.90382,0.90382 v 10.20886 a 0.37543677,0.37543677 0 0 0 0.3753,0.3753 0.37543677,0.37543677 0 0 0 0.37531,-0.3753 v -10.20886 c 0,-0.0888 0.0644,-0.15322 0.15321,-0.15322 h 11.57062 c 0.0888,0 0.15322,0.0644 0.15322,0.15322 v 1.03983 a 0.37543677,0.37543677 0 0 0 0.37702,0.3753 0.37543677,0.37543677 0 0 0 0.3753,-0.3753 v -1.03983 c 0,-0.4949 -0.41064,-0.90382 -0.90554,-0.90382 z"
         id="path4405" />
      <path
         style="color:#000000;fill:#000000;stroke-width:0.881439;stroke-linecap:round;stroke-linejoin:round;stroke-miterlimit:10;-inkscape-stroke:none"
         d="m 146.58926,144.66451 a 0.37543677,0.37543677 0 0 0 -0.37702,0.3753 v 10.2037 c 0,0.0888 -0.0644,0.15321 -0.15322,0.15321 h -2.6271 a 0.37543677,0.37543677 0 0 0 -0.3753,0.37531 0.37543677,0.37543677 0 0 0 0.3753,0.3753 h 2.6271 c 0.4949,0 0.90554,-0.40893 0.90554,-0.90382 v -10.2037 a 0.37543677,0.37543677 0 0 0 -0.3753,-0.3753 z"
         id="path4402" />
      <path
         style="color:#000000;fill:#000000;stroke-width:0.881439;stroke-linecap:round;stroke-linejoin:round;stroke-miterlimit:10;-inkscape-stroke:none"
         d="m 140.45361,148.03877 a 0.37543677,0.37543677 0 0 0 -0.0258,0.53024 c 0.97636,1.0799 0.94639,2.73259 -0.093,3.77195 -1.07281,1.07325 -2.79911,1.07095 -3.87524,-0.005 a 0.37543677,0.37543677 0 0 0 -0.53023,0 0.37543677,0.37543677 0 0 0 0,0.53195 c 1.36192,1.36193 3.57589,1.36383 4.93571,0.004 1.31748,-1.31747 1.35758,-3.43646 0.11878,-4.8066 a 0.37543677,0.37543677 0 0 0 -0.53023,-0.0258 z"
         id="path4399" />
      <path
         style="color:#000000;fill:#000000;stroke-width:0.881439;stroke-linecap:round;stroke-linejoin:round;stroke-miterlimit:10;-inkscape-stroke:none"
         d="m 140.59134,144.711 c -0.89404,-8.9e-4 -1.78708,0.33897 -2.467,1.01916 -1.35984,1.35984 -1.35626,3.57549 0.005,4.93744 a 0.37543677,0.37543677 0 0 0 0.53025,0 0.37543677,0.37543677 0 0 0 0,-0.53197 c -1.07569,-1.07609 -1.07795,-2.80073 -0.005,-3.87351 1.07282,-1.07324 2.79911,-1.07268 3.87523,0.004 1.76767,1.76763 2.17345,4.36829 1.22403,6.51439 a 0.37543677,0.37543677 0 0 0 0.19109,0.49581 0.37543677,0.37543677 0 0 0 0.49581,-0.19109 c 1.07242,-2.42411 0.60882,-5.36161 -1.37896,-7.34934 -0.68097,-0.68097 -1.57641,-1.02344 -2.47045,-1.02433 z"
         id="path4396" />
      <path
         style="color:#000000;fill:#000000;stroke-width:0.881439;stroke-linecap:round;stroke-linejoin:round;stroke-miterlimit:10;-inkscape-stroke:none"
         d="m 143.08244,150.55053 a 0.37543677,0.37543677 0 0 0 -0.4149,0.33226 c -0.10273,0.93628 -0.51004,1.84254 -1.22919,2.56168 -0.0824,0.0825 -0.1677,0.15993 -0.25479,0.23414 a 0.37543677,0.37543677 0 0 0 -0.043,0.53024 0.37543677,0.37543677 0 0 0 0.53024,0.0413 c 0.10233,-0.0872 0.2013,-0.17892 0.29783,-0.27545 0.84196,-0.84196 1.32549,-1.91162 1.44611,-3.01101 a 0.37543677,0.37543677 0 0 0 -0.33227,-0.41317 z"
         id="path4393" />
      <path
         style="color:#000000;fill:#000000;stroke-width:0.881439;stroke-linecap:round;stroke-linejoin:round;stroke-miterlimit:10;-inkscape-stroke:none"
         d="m 140.58962,143.15298 c -1.29258,-0.002 -2.58478,0.48949 -3.5688,1.47365 -1.96805,1.96806 -1.96253,5.16957 0.009,7.14105 0.75239,0.75241 1.98212,0.75319 2.73383,0.002 0.7517,-0.75168 0.74919,-1.98145 -0.004,-2.73384 -0.46661,-0.46661 -0.46618,-1.20704 -0.002,-1.67164 0.46462,-0.46461 1.205,-0.46333 1.67163,0.004 0.51407,0.51407 0.87025,1.12134 1.07081,1.76804 a 0.37543677,0.37543677 0 0 0 0.46999,0.24791 0.37543677,0.37543677 0 0 0 0.24618,-0.46999 c -0.23564,-0.75982 -0.65551,-1.4767 -1.25673,-2.07793 -0.75239,-0.75261 -1.98215,-0.7534 -2.73385,-0.002 -0.75148,0.75172 -0.74896,1.98144 0.004,2.73384 0.46679,0.46664 0.46634,1.20702 0.002,1.67164 -0.4646,0.46444 -1.20503,0.46317 -1.67163,-0.004 -1.68539,-1.68567 -1.68789,-4.39612 -0.007,-6.07711 1.68101,-1.68126 4.39142,-1.67881 6.07711,0.007 a 0.37543677,0.37543677 0 0 0 0.53196,0 0.37543677,0.37543677 0 0 0 0,-0.53024 c -0.98573,-0.98574 -2.27966,-1.48089 -3.57223,-1.48226 z"
         id="path4390" />
    </g>
    <path
       d="m 22.920941,125.93426 h 2.936567 q 0.416801,0 0.732556,-0.19577 0.315764,-0.19577 0.486269,-0.55574 0.176828,-0.35996 0.176828,-0.82728 v 0 q 0,-0.47364 -0.176828,-0.83361 -0.170505,-0.35997 -0.486269,-0.55573 -0.315755,-0.20208 -0.732556,-0.20208 h -2.936567 v -1.22516 h 2.892353 q 0.820974,0 1.446181,0.35366 0.625206,0.34733 0.966225,0.98517 0.347332,0.63783 0.347332,1.47775 v 0 q 0,0.83992 -0.347332,1.47776 -0.341019,0.6315 -0.966225,0.97884 -0.625207,0.34734 -1.446181,0.34734 h -2.892353 z m -0.663088,-4.39537 h 1.288294 v 9.18228 h -1.288294 z"
       id="path4387"
       style="-inkscape-font-specification:'Bahnschrift, Normal';stroke-width:0.195931" />
    <path
       d="m 32.128483,130.8159 q -0.852553,0 -1.458809,-0.3347 -0.606256,-0.33471 -0.928334,-0.97254 -0.315755,-0.64415 -0.315755,-1.54722 v -1.06727 q 0,-0.89045 0.315755,-1.52196 0.322078,-0.63784 0.928334,-0.96622 0.606256,-0.33471 1.458809,-0.33471 0.852543,0 1.458807,0.33471 0.606257,0.32838 0.922012,0.96622 0.322078,0.63151 0.322078,1.52196 v 1.08622 q 0,0.89675 -0.322078,1.53458 -0.315755,0.63152 -0.922012,0.96623 -0.606264,0.3347 -1.458807,0.3347 z m 0,-1.22514 q 0.675723,0 1.042006,-0.42312 0.372587,-0.42312 0.372587,-1.18725 v -1.08622 q 0,-0.76414 -0.372587,-1.18093 -0.366283,-0.41681 -1.042006,-0.41681 -0.675725,0 -1.048322,0.41681 -0.366282,0.41679 -0.366282,1.18093 v 1.08622 q 0,0.76413 0.366282,1.18725 0.372597,0.42312 1.048322,0.42312 z"
       id="path4384"
       style="-inkscape-font-specification:'Bahnschrift, Normal';stroke-width:0.195931" />
    <path
       d="m 40.388739,121.53889 h 1.288294 v 9.18228 h -1.288294 z m -1.648262,9.29596 q -0.71993,0 -1.231463,-0.30945 -0.50521,-0.31576 -0.770448,-0.91571 -0.265236,-0.59994 -0.265236,-1.43986 v -1.44617 q 0,-0.84623 0.258914,-1.44617 0.258924,-0.59994 0.751515,-0.90939 0.498897,-0.31576 1.193562,-0.31576 0.581002,0 1.060958,0.30313 0.486269,0.30312 0.783074,0.85254 l -0.132614,1.33883 q 0,-0.41681 -0.151563,-0.71361 -0.151565,-0.29682 -0.442065,-0.44838 -0.284178,-0.15789 -0.694666,-0.15789 -0.637833,0 -0.991489,0.39786 -0.347332,0.39785 -0.347332,1.11779 v 1.42722 q 0,0.71363 0.347332,1.10516 0.353656,0.38524 0.991489,0.38524 0.410488,0 0.694666,-0.1579 0.2905,-0.16418 0.442065,-0.46731 0.151563,-0.30313 0.151563,-0.72624 l 0.08839,1.38301 q -0.195769,0.48627 -0.644147,0.81466 -0.442065,0.3284 -1.092526,0.3284 z"
       id="path4381"
       style="-inkscape-font-specification:'Bahnschrift, Normal';stroke-width:0.195931" />
    <path
       d="m 43.634738,124.16601 h 1.288304 v 9.22017 h -1.288304 z m 2.936567,6.64989 q -0.612579,0 -1.067271,-0.2905 -0.454692,-0.29681 -0.669411,-0.83361 l 0.08839,-1.37039 q 0,0.42312 0.151564,0.71993 0.151565,0.29682 0.435751,0.45469 0.290492,0.15788 0.700979,0.15788 0.637834,0 0.985176,-0.38522 0.353646,-0.39154 0.353646,-1.09885 v -1.42091 q 0,-0.71993 -0.353646,-1.11779 -0.347342,-0.39785 -0.985176,-0.39785 -0.410487,0 -0.700979,0.15157 -0.284186,0.15156 -0.435751,0.44838 -0.151564,0.29048 -0.151564,0.70097 l -0.132622,-1.26303 q 0.296814,-0.57468 0.776769,-0.88413 0.479956,-0.31576 1.067272,-0.31576 0.694665,0 1.187248,0.31576 0.498905,0.30945 0.75782,0.90939 0.258923,0.59993 0.258923,1.44618 v 1.42722 q 0,0.83361 -0.265236,1.42724 -0.265238,0.59363 -0.776771,0.90938 -0.511524,0.30945 -1.22514,0.30945 z"
       id="path4378"
       style="-inkscape-font-specification:'Bahnschrift, Normal';stroke-width:0.195931" />
    <path
       d="m 50.669857,121.53889 h 1.288293 v 1.28831 h -1.288293 z m 0,2.62712 h 1.288293 v 6.55516 h -1.288293 z"
       id="path4375"
       style="-inkscape-font-specification:'Bahnschrift, Normal';stroke-width:0.195931" />
    <path
       d="m 56.233529,130.8159 q -0.580992,0 -1.092525,-0.11368 -0.50521,-0.11367 -0.947275,-0.34102 -0.442065,-0.22734 -0.814662,-0.56836 v 0 l 0.764134,-0.94097 v 0 q 0.530484,0.40418 1.054644,0.60626 0.524152,0.2021 1.035684,0.2021 0.764143,0 1.143054,-0.23367 0.385223,-0.23998 0.385223,-0.71362 0,-0.31576 -0.208405,-0.47363 -0.208396,-0.15788 -0.517838,-0.20841 -0.309451,-0.0568 -0.871502,-0.10104 -0.05051,0 -0.107359,0 -0.05683,-0.006 -0.10735,-0.0126 -0.02525,0 -0.05051,0 -0.02525,-0.006 -0.05051,-0.006 -0.637834,-0.0505 -1.079898,-0.18314 -0.442065,-0.13893 -0.73888,-0.51152 -0.290492,-0.37261 -0.290492,-1.06728 0,-0.69466 0.284179,-1.15567 0.284187,-0.46101 0.846238,-0.68836 0.562052,-0.23366 1.408281,-0.23366 0.511533,0 0.972539,0.0947 0.467328,0.0947 0.890443,0.28417 0.423115,0.18314 0.814661,0.46733 v 0 l -0.77677,0.94096 v 0 q -0.492583,-0.31576 -0.972539,-0.47364 -0.473643,-0.15788 -0.928334,-0.15788 -0.656775,0 -0.985166,0.22735 -0.328392,0.22103 -0.328392,0.66941 0,0.26523 0.183141,0.39785 0.189455,0.13262 0.473642,0.17683 0.284188,0.0442 0.808339,0.0757 0.03788,0.006 0.07576,0.006 0.0442,0 0.08839,0.006 0.01894,0 0.03788,0 0.01894,0 0.03788,0.006 0.688351,0.0442 1.168307,0.18314 0.486269,0.13893 0.814661,0.54941 0.328382,0.41049 0.328382,1.18726 0,0.7073 -0.303127,1.17462 -0.303128,0.46101 -0.915698,0.69467 -0.606257,0.23366 -1.528276,0.23366 z"
       id="path4372"
       style="-inkscape-font-specification:'Bahnschrift, Normal';stroke-width:0.195931" />
    <path
       d="m 65.542107,124.16601 -2.791307,8.08975 q -0.151564,0.44838 -0.397859,0.70731 -0.246288,0.26523 -0.606257,0.3789 -0.359969,0.11368 -0.884129,0.11368 h -0.258914 v -1.23778 h 0.258914 q 0.359969,0 0.568374,-0.14525 0.21471,-0.14525 0.372596,-0.4989 l 2.425024,-7.40771 z m -5.803646,0 h 1.313558 l 2.014537,5.69629 -0.713615,1.39566 z"
       id="path4369"
       style="-inkscape-font-specification:'Bahnschrift, Normal';stroke-width:0.195931" />
    <path
       d="m 72.83614,130.8159 q -0.909385,0 -1.553532,-0.34102 -0.644147,-0.34102 -0.985166,-0.9978 -0.334706,-0.6631 -0.334706,-1.59774 v -0.73889 q 0,-0.97252 0.322079,-1.66088 0.328382,-0.68835 0.947275,-1.04833 0.618884,-0.35996 1.490377,-0.35996 0.820974,0 1.401976,0.4105 0.580992,0.41048 0.88412,1.18724 0.309451,0.77677 0.309451,1.86299 v 0.42943 h -4.420629 v -1.0357 h 3.19548 v 0 q -0.05683,-0.80203 -0.416801,-1.24409 -0.353655,-0.44837 -0.953597,-0.44837 -0.732557,0 -1.136731,0.47996 -0.397851,0.47994 -0.397851,1.35776 v 0.8336 q 0,0.81466 0.429429,1.2504 0.429428,0.43576 1.218826,0.43576 0.391546,0 0.77677,-0.15788 0.385232,-0.15789 0.68836,-0.44206 v 0 l 0.846229,0.84622 v 0 q -0.486268,0.46733 -1.092524,0.72626 -0.606257,0.2526 -1.218835,0.2526 z"
       id="path4366"
       style="-inkscape-font-specification:'Bahnschrift, Normal';stroke-width:0.195931" />
    <path
       d="m 78.374558,129.0287 q 0,0.23998 0.101046,0.3726 0.107359,0.1263 0.296814,0.1263 h 0.606256 v 1.22515 h -0.75782 q -0.732566,0 -1.136739,-0.45469 -0.397851,-0.4547 -0.397851,-1.28199 v -7.47718 h 1.288294 z"
       id="path4363"
       style="-inkscape-font-specification:'Bahnschrift, Normal';stroke-width:0.195931" />
    <path
       d="m 83.515116,130.8159 q -0.909383,0 -1.55353,-0.34102 -0.644157,-0.34102 -0.985176,-0.9978 -0.334705,-0.6631 -0.334705,-1.59774 v -0.73889 q 0,-0.97252 0.322078,-1.66088 0.328392,-0.68835 0.947275,-1.04833 0.618892,-0.35996 1.490385,-0.35996 0.820975,0 1.401967,0.4105 0.581002,0.41048 0.88413,1.18724 0.309442,0.77677 0.309442,1.86299 v 0.42943 h -4.42063 v -1.0357 h 3.195491 v 0 q -0.05683,-0.80203 -0.416811,-1.24409 -0.353646,-0.44837 -0.953589,-0.44837 -0.732565,0 -1.13673,0.47996 -0.39786,0.47994 -0.39786,1.35776 v 0.8336 q 0,0.81466 0.429438,1.2504 0.429428,0.43576 1.218825,0.43576 0.391547,0 0.77677,-0.15788 0.385224,-0.15789 0.688353,-0.44206 v 0 l 0.846238,0.84622 v 0 q -0.48627,0.46733 -1.092526,0.72626 -0.606265,0.2526 -1.218835,0.2526 z"
       id="path4360"
       style="-inkscape-font-specification:'Bahnschrift, Normal';stroke-width:0.195931" />
    <path
       d="m 88.32097,128.23299 3.372308,-4.06698 h 1.51564 l -4.970044,5.59525 z m -0.555738,-6.6941 h 1.288303 v 9.18228 h -1.288303 z m 2.0777,5.39949 0.827289,-0.85887 2.860775,4.64166 h -1.401967 z"
       id="path4357"
       style="-inkscape-font-specification:'Bahnschrift, Normal';stroke-width:0.195931" />
    <path
       d="m 96.309685,130.75275 q -0.795721,0 -1.168316,-0.43576 -0.366274,-0.44206 -0.366274,-1.30092 v -6.75725 h 1.288294 v 6.76988 q 0,0.23998 0.09472,0.3726 0.09473,0.1263 0.277874,0.1263 h 0.618883 v 1.22515 z m -2.210314,-6.58674 h 2.955497 v 1.16199 h -2.955497 z"
       id="path4354"
       style="-inkscape-font-specification:'Bahnschrift, Normal';stroke-width:0.195931" />
    <path
       d="m 98.823119,124.16601 h 1.288291 v 6.55516 h -1.288291 z m 3.605971,1.55354 q -0.17051,-0.2084 -0.42943,-0.31576 -0.25893,-0.10736 -0.59995,-0.10736 -0.61258,0 -0.95359,0.34101 -0.33471,0.33471 -0.33471,0.93465 l -0.132611,-1.26303 q 0.303131,-0.58731 0.783081,-0.90939 0.47995,-0.32839 1.06095,-0.32839 0.44837,0 0.80834,0.13262 0.36628,0.12631 0.63783,0.37891 z"
       id="path4351"
       style="-inkscape-font-specification:'Bahnschrift, Normal';stroke-width:0.195931" />
    <path
       d="m 106.72973,130.8159 q -0.85255,0 -1.45881,-0.3347 -0.60626,-0.33471 -0.92832,-0.97254 -0.31577,-0.64415 -0.31577,-1.54722 v -1.06727 q 0,-0.89045 0.31577,-1.52196 0.32206,-0.63784 0.92832,-0.96622 0.60626,-0.33471 1.45881,-0.33471 0.85254,0 1.45881,0.33471 0.60625,0.32838 0.92201,0.96622 0.32208,0.63151 0.32208,1.52196 v 1.08622 q 0,0.89675 -0.32208,1.53458 -0.31576,0.63152 -0.92201,0.96623 -0.60627,0.3347 -1.45881,0.3347 z m 0,-1.22514 q 0.67572,0 1.04199,-0.42312 0.37261,-0.42312 0.37261,-1.18725 v -1.08622 q 0,-0.76414 -0.37261,-1.18093 -0.36627,-0.41681 -1.04199,-0.41681 -0.67573,0 -1.04833,0.41681 -0.36628,0.41679 -0.36628,1.18093 v 1.08622 q 0,0.76413 0.36628,1.18725 0.3726,0.42312 1.04833,0.42312 z"
       id="path4348"
       style="-inkscape-font-specification:'Bahnschrift, Normal';stroke-width:0.195931" />
    <path
       d="m 111.26403,124.16601 h 1.28829 v 6.55516 h -1.28829 z m 3.97856,2.58291 q 0,-0.69466 -0.35995,-1.07359 -0.35998,-0.3789 -1.01043,-0.3789 -0.63153,0 -0.97887,0.3347 -0.34102,0.33471 -0.34102,0.94096 l -0.13262,-1.26303 q 0.30314,-0.59363 0.78941,-0.91571 0.49258,-0.32207 1.0862,-0.32207 1.06727,0 1.64827,0.70098 0.5873,0.69468 0.5873,1.97035 v 3.97856 h -1.28829 z"
       id="path4345"
       style="-inkscape-font-specification:'Bahnschrift, Normal';stroke-width:0.195931" />
    <path
       d="m 118.4886,121.53889 h 1.2883 v 1.28831 h -1.2883 z m 0,2.62712 h 1.2883 v 6.55516 h -1.2883 z"
       id="path4342"
       style="-inkscape-font-specification:'Bahnschrift, Normal';stroke-width:0.195931" />
    <path
       d="m 124.38066,130.8159 q -0.89676,0 -1.53458,-0.3347 -0.63153,-0.33471 -0.96623,-0.97254 -0.33471,-0.63783 -0.33471,-1.5409 v -1.0799 q 0,-0.89045 0.33471,-1.52196 0.3347,-0.63153 0.96623,-0.95991 0.63782,-0.33471 1.53458,-0.33471 0.51152,0 0.95991,0.1263 0.45469,0.11999 0.81466,0.35366 0.35996,0.23366 0.59994,0.56836 v 0 l -0.92834,0.83361 v 0 q -0.27787,-0.31577 -0.65046,-0.48627 -0.37259,-0.17051 -0.77677,-0.17051 -0.74519,0 -1.15567,0.41681 -0.4105,0.41679 -0.4105,1.17462 v 1.0799 q 0,0.77676 0.40418,1.19988 0.41048,0.42312 1.16199,0.42312 0.41049,0 0.78308,-0.18315 0.3726,-0.18313 0.64415,-0.51784 v 0 l 0.92834,0.89676 v 0 q -0.2463,0.32839 -0.60626,0.56205 -0.35996,0.22734 -0.81465,0.34733 -0.44839,0.11999 -0.9536,0.11999 z"
       id="path4339"
       style="-inkscape-font-specification:'Bahnschrift, Normal';stroke-width:0.195931" />
    <path
       d="m 132.69776,125.25222 -3.15128,4.27538 h 3.32178 v 1.19357 h -4.88163 v -1.11148 l 3.23338,-4.25011 h -3.14497 v -1.19357 h 4.62272 z"
       id="path4336"
       style="-inkscape-font-specification:'Bahnschrift, Normal';stroke-width:0.195931" />
    <path
       d="m 134.57337,124.16601 h 1.2883 v 6.55516 h -1.2883 z m 3.97856,2.58291 q 0,-0.69466 -0.35997,-1.07359 -0.35996,-0.3789 -1.01043,-0.3789 -0.63151,0 -0.97884,0.3347 -0.34102,0.33471 -0.34102,0.94096 l -0.13262,-1.26303 q 0.30312,-0.59363 0.78938,-0.91571 0.49259,-0.32207 1.08622,-0.32207 1.06727,0 1.64827,0.70098 0.58731,0.69468 0.58731,1.97035 v 3.97856 h -1.2883 z"
       id="path4333"
       style="-inkscape-font-specification:'Bahnschrift, Normal';stroke-width:0.195931" />
    <path
       d="m 144.48188,130.8159 q -0.90938,0 -1.55352,-0.34102 -0.64415,-0.34102 -0.98517,-0.9978 -0.3347,-0.6631 -0.3347,-1.59774 v -0.73889 q 0,-0.97252 0.32207,-1.66088 0.32839,-0.68835 0.94728,-1.04833 0.61889,-0.35996 1.49038,-0.35996 0.82097,0 1.40196,0.4105 0.581,0.41048 0.88414,1.18724 0.30944,0.77677 0.30944,1.86299 v 0.42943 h -4.42063 v -1.0357 h 3.19548 v 0 q -0.0569,-0.80203 -0.4168,-1.24409 -0.35366,-0.44837 -0.95359,-0.44837 -0.73256,0 -1.13674,0.47996 -0.39785,0.47994 -0.39785,1.35776 v 0.8336 q 0,0.81466 0.42943,1.2504 0.42944,0.43576 1.21882,0.43576 0.39155,0 0.77678,-0.15788 0.38522,-0.15789 0.68836,-0.44206 v 0 l 0.84622,0.84622 v 0 q -0.48627,0.46733 -1.09251,0.72626 -0.60627,0.2526 -1.21885,0.2526 z"
       id="path4330"
       style="-inkscape-font-specification:'Bahnschrift, Normal';stroke-width:0.195931" />
    <path
       d="m 30.400035,143.22847 h 3.729735 v 14.18118 h -3.729735 z m -4.399171,8.62073 q 0,1.02465 0.573809,1.59846 0.587462,0.56013 1.639442,0.56013 1.051973,0 1.612111,-0.5738 0.573809,-0.58747 0.573809,-1.66675 l 0.191268,3.10127 q -0.396195,1.16127 -1.325215,1.95366 -0.91536,0.7924 -2.240575,0.7924 -2.281558,0 -3.524797,-1.46184 -1.243247,-1.47549 -1.243247,-4.16691 v -8.75735 h 3.743395 z"
       style="-inkscape-font-specification:'Bahnschrift Bold';stroke-width:0.423865"
       id="path4327" />
    <path
       d="m 43.242332,157.61457 q -1.27057,0 -2.472825,-0.21859 -1.202254,-0.23225 -2.254236,-0.66944 -1.051971,-0.43719 -1.858031,-1.05198 v 0 l 2.308881,-2.88268 v 0 q 1.024648,0.65578 2.144936,1.01099 1.120287,0.35521 2.131275,0.35521 1.311554,0 2.035646,-0.2869 0.724083,-0.30056 0.724083,-0.81972 0,-0.47817 -0.314226,-0.72409 -0.314227,-0.24591 -0.806061,-0.34155 -0.491833,-0.10929 -1.37986,-0.19127 -0.24592,-0.0273 -0.505494,-0.0546 -0.24592,-0.0273 -0.505494,-0.0547 -0.05462,-0.0137 -0.122961,-0.0137 -0.05462,-0.0137 -0.109298,-0.0137 -1.584788,-0.20493 -2.541132,-0.5055 -0.956343,-0.30056 -1.625781,-1.14761 -0.655777,-0.8607 -0.655777,-2.48648 0,-1.42086 0.6831,-2.43184 0.683099,-1.011 1.980992,-1.53015 1.297893,-0.53283 3.142263,-0.53283 1.079303,0 2.144936,0.2186 1.079304,0.2186 2.062969,0.62845 0.983665,0.40987 1.817048,0.98367 v 0 l -2.226913,2.71875 v 0 q -0.929011,-0.51916 -1.939999,-0.80607 -1.010997,-0.2869 -1.940009,-0.2869 -1.133948,0 -1.762402,0.25958 -0.628455,0.25959 -0.628455,0.72409 0,0.3552 0.327888,0.56014 0.34155,0.19127 0.833383,0.2869 0.505494,0.082 1.461837,0.19128 0.122961,0.0137 0.245921,0.0272 0.122952,0.0137 0.245911,0.0273 0.05462,0.0137 0.122961,0.0137 0.06826,0 0.122961,0.0137 1.653103,0.19126 2.691413,0.49184 1.038311,0.30056 1.762404,1.20224 0.737745,0.90171 0.737745,2.65045 0,1.47549 -0.710423,2.52746 -0.710422,1.05197 -2.07663,1.61213 -1.366199,0.54647 -3.292546,0.54647 z"
       style="-inkscape-font-specification:'Bahnschrift Bold';stroke-width:0.423865"
       id="path4324" />
    <path
       d="m 56.289565,157.47795 q -1.858041,0 -2.732407,-0.94267 -0.860705,-0.95635 -0.860705,-2.81438 v -14.61836 h 3.743395 v 13.68934 q 0,0.51915 0.204928,0.80606 0.204928,0.27324 0.601124,0.27324 h 0.92902 v 3.60677 z m -5.054949,-14.24948 h 6.940304 v 3.19691 h -6.940304 z"
       style="-inkscape-font-specification:'Bahnschrift Bold';stroke-width:0.423865"
       id="path4321" />
    <path
       d="m 69.254822,148.42003 q 0,-0.98367 -0.655777,-1.51648 -0.655777,-0.53282 -1.858041,-0.53282 -0.792399,0 -1.571127,0.25957 -0.778737,0.25959 -1.379869,0.7241 l -2.322542,-2.28156 q 0.847043,-0.97 2.240574,-1.50282 1.393521,-0.54649 3.087618,-0.54649 1.858032,0 3.169586,0.62846 1.311554,0.61479 1.994653,1.80338 0.696761,1.17493 0.696761,2.84171 v 9.11257 h -3.401836 z m -3.948323,9.19454 q -2.281559,0 -3.415507,-1.07929 -1.120287,-1.09297 -1.120287,-3.30621 0,-2.10395 1.256909,-3.15593 1.270561,-1.05198 3.79804,-1.05198 h 3.55212 l 0.191276,2.85537 h -3.729735 q -0.847043,0 -1.27057,0.34154 -0.423517,0.32789 -0.423517,1.011 0,0.69676 0.532817,1.03831 0.532816,0.32788 1.612119,0.32788 1.502821,0 2.226904,-0.34155 0.737754,-0.34154 0.737754,-1.06564 l 0.286896,2.06298 q -0.08198,0.76507 -0.710423,1.29789 -0.614793,0.53281 -1.557465,0.80606 -0.92902,0.25957 -1.967331,0.25957 z"
       style="-inkscape-font-specification:'Bahnschrift Bold';stroke-width:0.423865"
       id="path4318" />
    <path
       d="m 80.088794,152.72356 q 0,0.51917 0.286905,0.80607 0.300565,0.27324 0.847044,0.27324 h 0.628454 v 3.60678 h -1.912686 q -1.707749,0 -2.65043,-0.98367 -0.942673,-0.98367 -0.942673,-2.7734 v -16.10752 h 3.743386 z"
       style="-inkscape-font-specification:'Bahnschrift Bold';stroke-width:0.423865"
       id="path4315" />
    <path
       d="m 83.832198,153.66624 h 3.743387 v 3.74341 h -3.743387 z"
       style="-inkscape-font-specification:'Bahnschrift Bold';stroke-width:0.423865"
       id="path4312" />
    <path
       d="m 90.786163,143.22847 h 3.743395 v 19.94654 h -3.743395 z m 7.035941,14.3861 q -1.243247,0 -2.144936,-0.62846 -0.901698,-0.6421 -1.338876,-1.80338 l 0.191266,-3.23789 q 0,0.69676 0.245912,1.18859 0.245921,0.49184 0.710422,0.75142 0.478171,0.25957 1.147619,0.25957 1.051972,0 1.625772,-0.69676 0.587471,-0.69676 0.587471,-1.96733 v -2.25424 q 0,-1.29789 -0.587471,-2.00832 -0.5738,-0.72408 -1.625772,-0.72408 -0.669448,0 -1.147619,0.27324 -0.464501,0.25958 -0.710422,0.76508 -0.245912,0.50549 -0.245912,1.22957 l -0.286904,-3.14226 q 0.5738,-1.24324 1.50282,-1.91268 0.942682,-0.68311 2.07663,-0.68311 1.502821,0 2.568456,0.7241 1.0793,0.72408 1.63944,2.11761 0.56014,1.39352 0.56014,3.34719 v 2.2679 q 0,1.94 -0.56014,3.31987 -0.56014,1.36619 -1.63944,2.09029 -1.065635,0.72408 -2.568456,0.72408 z"
       style="-inkscape-font-specification:'Bahnschrift Bold';stroke-width:0.423865"
       id="path4309" />
    <path
       d="m 109.74904,152.72356 q 0,0.51917 0.2869,0.80607 0.30057,0.27324 0.84705,0.27324 h 0.62845 v 3.60678 h -1.91267 q -1.70776,0 -2.65045,-0.98367 -0.94268,-0.98367 -0.94268,-2.7734 v -16.10752 h 3.7434 z"
       style="-inkscape-font-specification:'Bahnschrift Bold';stroke-width:0.423865"
       id="path4306" />
    <path
       d="m 33.399523,93.471588 h -3.277527 v -0.819381 h 0.819382 v -5.735673 h -0.819382 v -0.819382 h 3.277527 v 0.819382 h -0.81938 v 5.735673 h 0.81938 z"
       style="-inkscape-font-specification:'Fixedsys Excelsior, Normal';fill:#000000;stroke-width:0.328452"
       id="path4303" />
    <path
       d="M 41.593318,93.471588 H 39.954552 V 88.555297 H 39.13517 v 4.09691 h -0.819381 v -4.09691 h -0.819381 v 4.916291 h -1.638763 v -5.735673 h 4.916288 v 0.819382 h 0.819385 z"
       style="-inkscape-font-specification:'Fixedsys Excelsior, Normal';fill:#000000;stroke-width:0.328452"
       id="path4300" />
    <path
       d="M 48.148345,93.471588 H 46.509583 V 88.555297 H 45.6902 v 4.09691 h -0.81938 v -4.09691 h -0.819385 v 4.916291 h -1.638762 v -5.735673 h 4.916291 v 0.819382 h 0.819381 z"
       style="-inkscape-font-specification:'Fixedsys Excelsior, Normal';fill:#000000;stroke-width:0.328452"
       id="path4297" />
    <path
       d="m 53.883995,91.013444 h -3.27753 v 1.638763 h 2.458148 v 0.819381 h -3.277528 v -0.819381 h -0.819382 v -4.09691 h 0.819382 v -0.819382 h 3.277528 v 0.819382 h 0.819382 z M 52.245229,90.19406 v -1.638763 h -1.638764 v 1.638763 z"
       style="-inkscape-font-specification:'Fixedsys Excelsior, Normal';fill:#000000;stroke-width:0.328452"
       id="path4294" />
    <path
       d="m 60.439022,89.374679 h -2.458145 v 0.819381 h -0.819383 v 3.277528 h -1.638763 v -5.735673 h 1.638763 v 1.638764 h 0.819383 v -0.819382 h 0.819383 v -0.819382 h 1.638762 z"
       style="-inkscape-font-specification:'Fixedsys Excelsior, Normal';fill:#000000;stroke-width:0.328452"
       id="path4291" />
    <path
       d="m 66.99405,92.652207 h -0.819381 v 0.819381 h -4.09691 v -0.819381 h 3.277528 V 91.013444 H 62.897142 V 90.19406 h -0.819383 v -1.638763 h 0.819383 v -0.819382 h 4.096908 v 0.819382 h -3.277526 v 1.638763 h 2.458145 v 0.819384 h 0.819381 z"
       style="-inkscape-font-specification:'Fixedsys Excelsior, Normal';fill:#000000;stroke-width:0.328452"
       id="path4288" />
    <path
       d="m 71.910317,86.916534 h -1.638763 v -1.638763 h 1.638763 z m 1.638766,6.555054 h -4.916291 v -0.819381 h 1.638762 v -4.09691 h -1.638762 v -0.819382 h 3.277525 v 4.916292 h 1.638766 z"
       style="-inkscape-font-specification:'Fixedsys Excelsior, Normal';fill:#000000;stroke-width:0.328452"
       id="path4285" />
    <path
       d="m 80.104111,92.652207 h -0.819382 v 0.819381 h -3.277528 v -0.819381 h -0.819382 v -4.09691 h 0.819382 v -0.819382 h 3.277528 v 0.819382 h 0.819382 z m -1.638763,0 v -4.09691 h -1.638766 v 4.09691 z"
       style="-inkscape-font-specification:'Fixedsys Excelsior, Normal';fill:#000000;stroke-width:0.328452"
       id="path4282" />
    <path
       d="m 86.659138,93.471588 h -1.638762 v -4.916291 h -1.638763 v 4.916291 h -1.638765 v -5.735673 h 4.096909 v 0.819382 h 0.819381 z"
       style="-inkscape-font-specification:'Fixedsys Excelsior, Normal';fill:#000000;stroke-width:0.328452"
       id="path4279" />
    <path
       d="m 99.769195,92.652207 h -0.819383 v 0.819381 h -3.277521 v -0.819381 h -0.819383 v -5.735673 h 0.819383 v -0.819382 h 3.277521 v 0.819382 h 0.819383 v 1.638763 H 98.13043 v -1.638763 h -1.638766 v 5.735673 h 1.638766 v -1.638763 h 1.638765 z"
       style="-inkscape-font-specification:'Fixedsys Excelsior, Normal';fill:#000000;stroke-width:0.328452"
       id="path4276" />
    <path
       d="m 106.32423,92.652207 h -0.81939 v 0.819381 h -3.27753 v -0.819381 h -0.81938 v -4.09691 h 0.81938 v -0.819382 h 3.27753 v 0.819382 h 0.81939 z m -1.63877,0 v -4.09691 h -1.63877 v 4.09691 z"
       style="-inkscape-font-specification:'Fixedsys Excelsior, Normal';fill:#000000;stroke-width:0.328452"
       id="path4273" />
    <path
       d="m 112.87926,92.652207 h -0.81938 v 0.819381 h -3.27754 v -0.819381 h -0.81937 v -4.09691 h 0.81937 v -0.819382 h 3.27754 v 0.819382 h 0.81938 z m -1.63877,0 v -4.09691 h -1.63876 v 4.09691 z"
       style="-inkscape-font-specification:'Fixedsys Excelsior, Normal';fill:#000000;stroke-width:0.328452"
       id="path4270" />
    <path
       d="m 119.43428,93.471588 h -4.9163 v -0.819381 h 1.63878 v -5.735673 h -1.63878 v -0.819382 h 3.27754 v 6.555055 h 1.63876 z"
       style="-inkscape-font-specification:'Fixedsys Excelsior, Normal';fill:#000000;stroke-width:0.328452"
       id="path4267" />
    <path
       d="m 124.35055,86.916534 h -1.63877 v -1.638763 h 1.63877 z m 1.63876,6.555054 h -4.91629 v -0.819381 h 1.63876 v -4.09691 h -1.63876 v -0.819382 h 3.27753 v 4.916292 h 1.63876 z"
       style="-inkscape-font-specification:'Fixedsys Excelsior, Normal';fill:#000000;stroke-width:0.328452"
       id="path4264" />
    <path
       d="m 132.54434,93.471588 h -1.63876 v -4.916291 h -1.63877 v 4.916291 h -1.63876 v -5.735673 h 4.09691 v 0.819382 h 0.81938 z"
       style="-inkscape-font-specification:'Fixedsys Excelsior, Normal';fill:#000000;stroke-width:0.328452"
       id="path4261" />
    <path
       d="m 139.09937,95.110351 h -0.81938 v 0.819382 h -4.09691 v -0.819382 h 3.27752 v -1.638763 h -2.45814 v -0.819381 h -0.81938 v -4.09691 h 0.81938 v -0.819382 h 4.09691 z m -1.63877,-2.458144 v -4.09691 h -1.63876 v 4.09691 z"
       style="-inkscape-font-specification:'Fixedsys Excelsior, Normal';fill:#000000;stroke-width:0.328452"
       id="path4258" />
    <path
       inkscape:export-filename="C:\Users\8200\flameit-logo.png"
       style="fill:#000000;stroke-width:0.233175;stroke-linejoin:round"
       d="m 70.984333,36.824993 c 0,0 -2.646626,3.31469 -2.167068,5.39981 0.479556,2.085119 0.556505,5.238972 0.556505,5.238972 0,0 0.08305,4.621588 -1.472642,2.98866 -1.555736,-1.632956 -0.537936,-2.461955 -0.320017,-3.235155 0.334328,-1.186221 -0.02616,-3.898501 -0.744268,-4.79885 0,0 0.60081,1.251013 -0.620469,3.329023 -1.221268,2.077982 -1.17226,3.5138 -0.702392,4.640509 0.469857,1.126677 -0.09865,2.2208 -0.608188,2.566066 -0.509468,0.345266 -1.596627,0.256505 -1.093188,-1.970128 0.487498,-2.15621 1.067077,-2.447331 -0.32275,-4.402659 0.27739,0.462754 0.752537,1.7756 -0.901109,3.931084 -2.100584,2.738076 -1.21016,6.668669 -0.631168,7.281322 -8.418213,-0.05862 -3.334355,-0.02612 -5.001468,-0.04353 -2.55899,0 -4.619093,2.061935 -4.619093,4.623216 v 9.869001 c 0,2.56125 2.060103,4.623187 4.619093,4.623187 h 55.309139 c 2.559,0 4.6191,-2.061937 4.6191,-4.623187 v -9.869006 c 0,-2.56128 -2.0601,-4.623216 -4.6191,-4.623216 h -4.79685 c 0,0 0.54513,-3.400548 -0.0482,-5.738779 -0.6161,-2.427832 -2.91395,-3.306478 -1.36793,-8.832915 0,0 -2.97308,4.385743 -1.02448,8.107563 1.9486,3.721819 0.65015,5.293348 -0.66506,5.369952 -1.31522,0.07661 -2.55329,-0.61837 -1.59327,-3.518763 0.96002,-2.900394 -1.18885,-5.746411 -1.51383,-6.877151 -0.30366,-1.056634 -0.4265,-1.76121 -0.4265,-1.76121 -0.24084,1.663889 0.67509,4.203434 0.58719,6.316062 -0.0508,1.219443 0.57856,3.626269 -0.64071,3.604883 -4.079519,-0.07167 0.78049,-7.595192 -1.719828,-12.129819 0,0 -0.785444,-1.692963 -0.759064,-2.627118 0,0 -1.122647,4.647733 -0.167128,7.002474 0.765588,1.886502 -0.343069,5.020797 -1.349034,3.403045 -0.718648,-1.155724 -0.559059,-2.746606 -0.259124,-4.553952 0.22546,-1.358114 -0.113784,-3.406701 -0.113784,-3.406701 0,0 -0.209512,2.048325 -1.479706,4.444153 -1.270094,2.395799 -0.165674,3.765344 0.368744,5.281104 0.534436,1.515788 0.01455,2.692868 -1.825888,2.849702 -1.840426,0.156689 -2.38189,-0.95406 -1.570935,-2.421419 0.637432,-1.153403 1.368844,-1.157494 1.022179,-3.385026 -0.608241,-3.908512 -1.910494,-5.319056 -0.882208,-9.998187 0,0 -1.528675,2.347486 -1.288738,5.59573 0.200794,2.719562 0.504448,2.362022 0.3157,3.834517 -0.206893,1.613285 -2.04876,1.979471 -1.849538,-0.69413 l 0.428345,-5.74815 c 0,0 -1.715194,2.61844 -1.978145,5.791414 -0.160162,1.931419 -0.433705,2.439382 0.225755,3.857297 0.659483,1.417945 -0.06932,2.612755 -1.01604,3.22149 -0.840372,0.540431 -2.353809,0.416268 -2.97395,-0.367464 -1.559726,-1.971143 1.118699,-4.824501 0.814836,-7.49909 -0.152339,-1.418931 -1.340528,-3.116594 -0.951162,-4.174186 0,0 -0.941695,1.050309 -0.886764,2.318905 0.05489,1.268569 0.157264,4.286479 0.157264,4.286479 0,0 -0.275654,1.549536 -1.483551,1.722705 -1.208012,0.173228 -1.780624,-1.122615 -0.468436,-3.176137 1.31221,-2.05352 0.305248,-4.51269 0.305248,-4.51269 0,0 -1.111614,-3.352644 -0.333224,-4.957194 0,0 -2.124782,1.9701 -1.31105,3.812874 1.476653,3.343909 -2.310397,7.23237 -1.743451,4.418416 0,0 1.747194,-3.399012 0.701711,-5.358345 0,0 0.0058,1.903301 -1.070009,2.783399 -1.07469,0.880068 -3.426904,2.960196 -1.277103,5.110255 2.149802,2.150059 -1.55203,6.546684 -1.515878,5.377699 0.03624,-1.168984 0.448543,-1.312325 -0.456343,-4.545275 -0.904875,-3.232982 -0.146238,-6.572944 0.01173,-7.179475 0.156689,-0.606559 -2.265754,2.601961 -1.577332,5.011831 0.68841,2.409901 -0.832101,4.261003 -0.832101,4.261003 0,0 -1.867591,2.894851 -1.767428,0.508919 0.06615,-1.5771 0.627659,-2.381406 1.235929,-4.705679 0.471605,-1.801949 -0.168289,-1.98008 -1.025611,-5.550608 -0.621337,-2.587945 0.554911,-5.497537 0.554911,-5.497537 z m -7.494477,9.756248 c -0.07484,-0.125063 -0.136385,-0.191801 -0.136385,-0.191801 0.04962,0.06762 0.09115,0.127963 0.136385,0.191801 z m -5.784914,12.620283 h 53.811698 c 2.17037,0 3.91761,1.74879 3.91761,3.921074 v 8.370452 c 0,2.172315 -1.74724,3.921105 -3.91761,3.921105 H 57.704942 c -2.170341,0 -3.917593,-1.74879 -3.917593,-3.921105 v -8.370452 c 0,-2.172284 1.747252,-3.921074 3.917593,-3.921074 z"
       id="path4255"
       inkscape:connector-curvature="0"
       inkscape:export-xdpi="484"
       inkscape:export-ydpi="484" />
    <path
       inkscape:connector-curvature="0"
       d="m 60.149835,71.625827 v -8.306872 h 4.614517 v 0.919293 h -2.766497 v 2.768958 h 1.84802 v 0.930367 h -1.84802 v 3.688254 z"
       style="-inkscape-font-specification:'Silom, Normal';fill:#000000;stroke-width:0.276773"
       id="path4252" />
    <path
       inkscape:connector-curvature="0"
       d="m 66.612199,71.625827 v -8.306872 h 1.848019 v 8.306872 z"
       style="-inkscape-font-specification:'Silom, Normal';fill:#000000;stroke-width:0.276773"
       id="path4249" />
    <path
       inkscape:connector-curvature="0"
       d="m 74.004103,67.937573 v -0.930367 q 0,-0.376579 -0.27665,-0.642398 -0.265584,-0.276903 -0.652894,-0.276903 h -0.918474 q -0.818883,0 -0.918479,0.919294 h -0.929541 q 0.22132,-1.838582 1.84802,-1.838582 h 1.848018 q 0.752488,0 1.294721,0.542716 0.542234,0.542714 0.542234,1.295873 v 4.618621 h -1.836955 v -0.919296 q -0.110659,0.919296 -0.929542,0.919296 h -0.918476 q -0.752488,0 -1.305788,-0.542717 -0.542232,-0.542715 -0.542232,-1.306949 v 0 q 0,-0.753156 0.542232,-1.29587 0.5533,-0.542718 1.305788,-0.542718 z m 0,0.919296 h -0.929542 q -0.376244,0 -0.652893,0.276903 -0.265583,0.265819 -0.265583,0.642398 v 0 q 0,0.376578 0.265583,0.653476 0.276648,0.276903 0.652893,0.276903 0.38731,0 0.652894,-0.276903 0.276651,-0.276904 0.276651,-0.653476 z"
       style="-inkscape-font-specification:'Silom, Normal';fill:#000000;stroke-width:0.276773"
       id="path4246" />
    <path
       inkscape:connector-curvature="0"
       d="m 83.23279,71.625827 h -1.836951 v -4.618621 q 0,-0.376579 -0.276642,-0.642398 -0.265588,-0.276903 -0.652893,-0.276903 -0.376244,0 -0.652893,0.276903 -0.265587,0.265819 -0.265587,0.642398 v 4.618621 h -1.848026 v -6.45721 h 1.84802 v 0.919293 q 0.05533,-0.465183 0.287727,-0.6867 0.232393,-0.232593 0.630762,-0.232593 h 0.929543 q 0.940608,0 1.383248,0.653475 0.221308,-0.332275 0.564367,-0.487337 0.343043,-0.166137 0.81888,-0.166137 h 0.918477 q 0.752489,0 1.294721,0.542716 0.553301,0.542713 0.553301,1.295872 v 4.618621 h -1.848022 v -4.618621 q 0,-0.365503 -0.276642,-0.642398 -0.265587,-0.276903 -0.641828,-0.276903 -0.376243,0 -0.652893,0.276903 -0.276643,0.265819 -0.276643,0.642398 z"
       style="-inkscape-font-specification:'Silom, Normal';fill:#000000;stroke-width:0.276773"
       id="path4243" />
    <path
       inkscape:connector-curvature="0"
       d="m 94.298781,68.856869 h -3.684975 v 0.919292 q 0,0.376577 0.265586,0.653475 0.276644,0.276904 0.652897,0.276904 h 0.929543 q 0.918479,0 0.918479,-0.93037 h 0.918479 q -0.210253,1.849666 -1.836958,1.849666 h -1.84802 q -0.752488,0 -1.305789,-0.542718 -0.542231,-0.542714 -0.542231,-1.306948 v -2.768956 q 0,-0.753158 0.542231,-1.295873 0.553301,-0.542715 1.305789,-0.542715 h 1.84802 q 0.752484,0 1.294726,0.542715 0.542232,0.542715 0.542232,1.295873 z m -3.684975,-0.919296 h 1.848016 v -0.930367 q 0,-0.376579 -0.276638,-0.642398 -0.265594,-0.276903 -0.652895,-0.276903 -0.376245,0 -0.652897,0.276903 -0.265586,0.265819 -0.265586,0.642398 z"
       style="-inkscape-font-specification:'Silom, Normal';fill:#000000;stroke-width:0.276773"
       id="path4240" />
    <path
       inkscape:connector-curvature="0"
       d="m 99.85356,71.625827 v -8.306872 h 1.83695 v 8.306872 z"
       style="-inkscape-font-specification:'Silom, Normal';fill:#000000;stroke-width:0.276773"
       id="path4237" />
    <path
       inkscape:connector-curvature="0"
       d="m 105.38655,71.625827 v -7.387579 h -1.84801 v -0.919293 h 5.53299 v 0.919293 h -1.84802 v 7.387579 z"
       style="-inkscape-font-specification:'Silom, Normal';fill:#000000;stroke-width:0.276773"
       id="path4234" />
    <g
       id="path1253"
       transform="matrix(0.88143937,0,0,0.88143937,14.125451,20.682834)">
      <path
         style="color:#000000;fill:#000000;stroke-width:0.622859;stroke-dasharray:0.622859, 4.98287;-inkscape-stroke:none"
         d="M 6.6653697,99.067794 H 153.26675"
         id="path4231" />
      <path
         style="color:#000000;fill:#000000;stroke-dasharray:0.622859, 4.98287;-inkscape-stroke:none"
         d="m 6.6660156,98.755859 v 0.623047 h 0.6230469 v -0.623047 z m 5.6054684,0 v 0.623047 h 0.623047 v -0.623047 z m 5.605469,0 v 0.623047 H 18.5 v -0.623047 z m 5.605469,0 v 0.623047 h 0.623047 v -0.623047 z m 5.605469,0 v 0.623047 h 0.623046 v -0.623047 z m 5.605468,0 v 0.623047 h 0.623047 v -0.623047 z m 5.605469,0 v 0.623047 h 0.623047 v -0.623047 z m 5.607422,0 v 0.623047 h 0.623047 v -0.623047 z m 5.605469,0 v 0.623047 h 0.623047 v -0.623047 z m 5.605468,0 v 0.623047 h 0.623047 v -0.623047 z m 5.605469,0 v 0.623047 h 0.623047 v -0.623047 z m 5.605469,0 v 0.623047 h 0.623047 v -0.623047 z m 5.605469,0 v 0.623047 h 0.623047 v -0.623047 z m 5.605468,0 v 0.623047 h 0.623047 v -0.623047 z m 5.607422,0 v 0.623047 h 0.621094 v -0.623047 z m 5.605469,0 v 0.623047 H 91.375 v -0.623047 z m 5.605469,0 v 0.623047 h 0.623047 v -0.623047 z m 5.605468,0 v 0.623047 h 0.62305 v -0.623047 z m 5.60547,0 v 0.623047 h 0.62305 v -0.623047 z m 5.60547,0 v 0.623047 h 0.62305 v -0.623047 z m 5.60547,0 v 0.623047 h 0.62304 v -0.623047 z m 5.60547,0 v 0.623047 h 0.62304 v -0.623047 z m 5.60742,0 v 0.623047 h 0.62304 v -0.623047 z m 5.60547,0 v 0.623047 h 0.62304 v -0.623047 z m 5.60546,0 v 0.623047 h 0.62305 v -0.623047 z m 5.60547,0 v 0.623047 h 0.62305 v -0.623047 z m 5.60547,0 v 0.623047 h 0.62305 v -0.623047 z"
         id="path4228" />
    </g>
    <path
       d="M 202.89013,156.37645 H 184.67639 V 81.128407 l -11.76582,4.453727 V 66.238337 l 14.42476,-6.514406 h 15.5548 z"
       style="font-weight:bold;font-size:146.195px;font-family:Bahnschrift;-inkscape-font-specification:'Bahnschrift Bold';stroke-width:2.05813"
       id="path4225" />
    <path
       d="m 251.08343,157.37355 q -14.15886,0 -21.53741,-7.24562 -7.37857,-7.31209 -7.37857,-20.20795 V 85.980975 q 0,-13.028812 7.37857,-20.207953 7.44503,-7.245614 21.53741,-7.245614 14.15886,0 21.53743,7.179141 7.37857,7.17914 7.37857,20.274426 v 43.939005 q 0,13.02881 -7.44504,20.27443 -7.37857,7.17914 -21.47096,7.17914 z m 0,-17.54902 q 5.51731,0 8.10978,-3.72251 2.59246,-3.78899 2.59246,-10.83519 V 90.634122 q 0,-7.046195 -2.59246,-10.768712 -2.59247,-3.788991 -8.10978,-3.788991 -5.51729,0 -8.10976,3.788991 -2.59247,3.722517 -2.59247,10.768712 v 34.632708 q 0,7.0462 2.59247,10.83519 2.59247,3.72251 8.10976,3.72251 z"
       style="font-weight:bold;font-size:146.195px;font-family:Bahnschrift;-inkscape-font-specification:'Bahnschrift Bold';stroke-width:2.05813"
       id="path4222" />
    <path
       d="m 176.20002,43.604029 h 0.96877 l 1.22417,4.271398 0.82346,-4.271398 h 1.24178 l -1.47517,6.402694 h -1.13611 l -1.1361,-4.473959 -1.18894,4.473959 h -1.1361 l -1.47518,-6.402694 h 1.24179 l 0.82346,4.271398 z"
       id="path4219"
       style="font-weight:bold;font-size:9.68461px;font-family:Bahnschrift;-inkscape-font-specification:'Bahnschrift Bold';stroke-width:0.136341" />
    <path
       d="m 183.41296,47.109218 q 0,-0.317052 -0.21137,-0.488788 -0.21137,-0.171737 -0.59888,-0.171737 -0.2554,0 -0.5064,0.08367 -0.251,0.08367 -0.44475,0.233385 l -0.7486,-0.735384 q 0.27302,-0.312649 0.72218,-0.484386 0.44916,-0.176139 0.99519,-0.176139 0.59887,0 1.02161,0.20256 0.42274,0.198158 0.64291,0.581262 0.22458,0.378702 0.22458,0.91593 v 2.937136 h -1.09647 z m -1.27261,2.963558 q -0.73539,0 -1.10089,-0.347877 -0.36108,-0.35228 -0.36108,-1.065648 0,-0.678139 0.40512,-1.017209 0.40953,-0.339069 1.22417,-0.339069 h 1.14491 l 0.0616,0.920332 h -1.20216 q -0.27301,0 -0.40953,0.110087 -0.1365,0.105685 -0.1365,0.325859 0,0.224579 0.17173,0.334667 0.17174,0.105684 0.51961,0.105684 0.48439,0 0.71778,-0.110088 0.23779,-0.110087 0.23779,-0.343473 l 0.0925,0.664929 q -0.0264,0.246596 -0.22898,0.418333 -0.19815,0.171737 -0.502,0.259806 -0.29944,0.08367 -0.6341,0.08367 z"
       id="path4216"
       style="font-weight:bold;font-size:9.68461px;font-family:Bahnschrift;-inkscape-font-specification:'Bahnschrift Bold';stroke-width:0.136341" />
    <path
       d="m 185.16995,45.435887 h 1.15813 l 0.81024,2.822645 0.96437,-2.822645 h 0.71337 l 0.96436,2.822645 0.81025,-2.822645 h 1.15812 l -1.40912,4.570836 h -0.89832 l -0.98197,-2.981172 -0.98199,2.981172 h -0.89832 z"
       id="path4213"
       style="font-weight:bold;font-size:9.68461px;font-family:Bahnschrift;-inkscape-font-specification:'Bahnschrift Bold';stroke-width:0.136341" />
    <path
       d="m 192.54142,45.435887 h 1.29463 v 4.570836 h -1.29463 z m 2.57164,1.272612 q -0.0881,-0.08807 -0.21577,-0.132105 -0.1277,-0.04404 -0.29503,-0.04404 -0.36549,0 -0.56806,0.237789 -0.19815,0.233386 -0.19815,0.651719 l -0.0925,-1.188946 q 0.18935,-0.409526 0.48879,-0.634104 0.30385,-0.228982 0.66493,-0.228982 0.28623,0 0.51521,0.09248 0.23339,0.08807 0.40512,0.264209 z"
       id="path4210"
       style="font-weight:bold;font-size:9.68461px;font-family:Bahnschrift;-inkscape-font-specification:'Bahnschrift Bold';stroke-width:0.136341" />
    <path
       d="m 199.71913,46.457499 -2.0212,2.452752 h 2.14009 v 1.096472 h -3.58005 v -1.039227 l 2.07846,-2.435137 h -2.0168 v -1.096472 h 3.3995 z"
       id="path4207"
       style="font-weight:bold;font-size:9.68461px;font-family:Bahnschrift;-inkscape-font-specification:'Bahnschrift Bold';stroke-width:0.136341" />
    <path
       d="m 204.45729,45.435887 -2.03441,5.640888 q -0.11449,0.312649 -0.28623,0.493192 -0.16734,0.184947 -0.41833,0.26421 -0.2466,0.07927 -0.61208,0.07927 h -0.26862 v -1.171333 h 0.26862 q 0.19374,0 0.32145,-0.08807 0.13211,-0.08367 0.19816,-0.277421 l 1.69534,-4.940731 z m -4.22295,0 h 1.13611 l 1.53681,3.97196 -0.7618,0.973174 z"
       id="path4204"
       style="font-weight:bold;font-size:9.68461px;font-family:Bahnschrift;-inkscape-font-specification:'Bahnschrift Bold';stroke-width:0.136341" />
    <path
       d="m 205.07379,45.435887 h 1.20656 v 4.570836 h -1.20656 z m 2.6421,1.801033 q 0,-0.334666 -0.19375,-0.519613 -0.18935,-0.184948 -0.54164,-0.184948 -0.33466,0 -0.51961,0.189351 -0.18054,0.184947 -0.18054,0.524017 l -0.0925,-1.012806 q 0.20696,-0.431544 0.49318,-0.647315 0.29064,-0.215771 0.72659,-0.215771 0.72217,0 1.11849,0.488788 0.39631,0.484385 0.39631,1.373894 v 2.774206 h -1.20656 z m -1.41793,-3.047225 1.25941,-1.563243 0.84987,0.713367 -1.34307,1.479578 z"
       id="path4201"
       style="font-weight:bold;font-size:9.68461px;font-family:Bahnschrift;-inkscape-font-specification:'Bahnschrift Bold';stroke-width:0.136341" />
    <path
       d="m 212.04453,50.072776 q -0.65171,0 -1.11849,-0.246596 -0.46236,-0.250999 -0.70456,-0.726578 -0.24218,-0.475578 -0.24218,-1.144911 v -0.488789 q 0,-0.664929 0.24218,-1.1317 0.2422,-0.471175 0.70456,-0.717772 0.46678,-0.246595 1.11849,-0.246595 0.3743,0 0.70457,0.08807 0.33466,0.08367 0.59887,0.246596 0.26421,0.162929 0.44035,0.396316 v 0 l -0.77942,0.757403 v 0 q -0.16733,-0.154123 -0.39191,-0.23779 -0.22457,-0.08807 -0.47118,-0.08807 -0.45796,0 -0.70896,0.246596 -0.251,0.242193 -0.251,0.686947 v 0.488789 q 0,0.457964 0.251,0.708964 0.251,0.246596 0.70896,0.246596 0.25101,0 0.47558,-0.09248 0.22458,-0.09248 0.38751,-0.26421 v 0 l 0.77942,0.801437 v 0 q -0.18054,0.228982 -0.44475,0.391912 -0.26421,0.158527 -0.59447,0.242193 -0.33027,0.08367 -0.70457,0.08367 z"
       id="path4198"
       style="font-weight:bold;font-size:9.68461px;font-family:Bahnschrift;-inkscape-font-specification:'Bahnschrift Bold';stroke-width:0.136341" />
    <path
       d="m 217.11737,47.109218 q 0,-0.317052 -0.21137,-0.488788 -0.21136,-0.171737 -0.59888,-0.171737 -0.2554,0 -0.50639,0.08367 -0.251,0.08367 -0.44476,0.233385 l -0.7486,-0.735384 q 0.27302,-0.312649 0.72218,-0.484386 0.44916,-0.176139 0.99519,-0.176139 0.59888,0 1.02161,0.20256 0.42274,0.198158 0.64292,0.581262 0.22458,0.378702 0.22458,0.91593 v 2.937136 h -1.09648 z m -1.27261,2.963558 q -0.73538,0 -1.10088,-0.347877 -0.36108,-0.35228 -0.36108,-1.065648 0,-0.678139 0.40512,-1.017209 0.40952,-0.339069 1.22417,-0.339069 h 1.14491 l 0.0616,0.920332 h -1.20216 q -0.27302,0 -0.40953,0.110087 -0.13651,0.105685 -0.13651,0.325859 0,0.224579 0.17174,0.334667 0.17174,0.105684 0.51961,0.105684 0.48439,0 0.71777,-0.110088 0.23779,-0.110087 0.23779,-0.343473 l 0.0925,0.664929 q -0.0265,0.246596 -0.22899,0.418333 -0.19816,0.171737 -0.50199,0.259806 -0.29944,0.08367 -0.63411,0.08367 z"
       id="path4195"
       style="font-weight:bold;font-size:9.68461px;font-family:Bahnschrift;-inkscape-font-specification:'Bahnschrift Bold';stroke-width:0.136341" />
    <path
       d="m 223.92519,50.072776 q -0.45796,0 -0.89832,-0.09248 -0.43594,-0.09248 -0.82345,-0.268613 -0.3831,-0.180544 -0.68695,-0.431543 v 0 l 0.55925,-0.995192 v 0 q 0.36989,0.303841 0.85428,0.471175 0.48438,0.162929 0.99519,0.162929 0.59007,0 0.91593,-0.198157 0.32586,-0.202562 0.32586,-0.568052 v -0.0044 q 0,-0.255403 -0.14531,-0.405122 -0.14532,-0.14972 -0.37871,-0.220176 -0.23339,-0.07046 -0.59888,-0.127701 -0.0132,-0.0044 -0.0264,-0.0044 -0.008,0 -0.0221,-0.0044 l -0.0969,-0.01321 q -0.64292,-0.101281 -1.06565,-0.251 -0.42274,-0.154122 -0.71777,-0.532824 -0.29504,-0.383105 -0.29504,-1.083261 v -0.0044 q 0,-0.620894 0.27742,-1.061244 0.27742,-0.440351 0.80585,-0.669333 0.52842,-0.233386 1.27701,-0.233386 0.34347,0 0.70016,0.07926 0.36109,0.07926 0.70456,0.228982 0.34347,0.149719 0.65172,0.361087 v 0 l -0.51081,1.021612 v 0 q -0.36989,-0.255403 -0.77501,-0.396315 -0.40073,-0.140912 -0.77062,-0.140912 -0.55485,0 -0.85868,0.184947 -0.30384,0.180544 -0.30384,0.510807 v 0.0044 q 0,0.27742 0.15852,0.44035 0.15852,0.158526 0.39191,0.233385 0.23339,0.07486 0.65612,0.158526 0.0176,0.0044 0.0352,0.0088 0.0176,0 0.0352,0.0044 0.0265,0.0044 0.0484,0.01321 0.0265,0.0044 0.0528,0.0088 0.60768,0.118894 1.0128,0.290631 0.40953,0.167333 0.68255,0.546034 0.27302,0.374298 0.27302,1.026016 v 0.0088 q 0,0.612087 -0.28623,1.048033 -0.28623,0.435947 -0.83667,0.664929 -0.54603,0.228983 -1.31665,0.228983 z"
       id="path4192"
       style="font-weight:bold;font-size:9.68461px;font-family:Bahnschrift;-inkscape-font-specification:'Bahnschrift Bold';stroke-width:0.136341" />
    <path
       d="m 230.00202,45.435887 h 1.20216 v 4.570836 h -1.20216 z m -1.41792,2.77861 q 0,0.330263 0.18495,0.51521 0.18934,0.180544 0.52841,0.180544 0.33907,0 0.51961,-0.184947 0.18495,-0.18935 0.18495,-0.537228 l 0.0617,0.999596 q -0.12771,0.374297 -0.42715,0.629701 -0.29503,0.255403 -0.72217,0.255403 -0.73539,0 -1.13611,-0.471175 -0.40071,-0.475578 -0.40071,-1.343069 v -2.822645 h 1.20656 z"
       id="path4189"
       style="font-weight:bold;font-size:9.68461px;font-family:Bahnschrift;-inkscape-font-specification:'Bahnschrift Bold';stroke-width:0.136341" />
    <path
       d="m 232.39313,45.435887 h 1.29463 v 4.570836 h -1.29463 z m 2.57165,1.272612 q -0.0881,-0.08807 -0.21577,-0.132105 -0.12771,-0.04404 -0.29505,-0.04404 -0.36549,0 -0.56804,0.237789 -0.19816,0.233386 -0.19816,0.651719 l -0.0925,-1.188946 q 0.18935,-0.409526 0.48878,-0.634104 0.30384,-0.228982 0.66494,-0.228982 0.28622,0 0.5152,0.09248 0.23338,0.08807 0.40513,0.264209 z"
       id="path4186"
       style="font-weight:bold;font-size:9.68461px;font-family:Bahnschrift;-inkscape-font-specification:'Bahnschrift Bold';stroke-width:0.136341" />
    <path
       d="m 237.99438,50.072776 q -0.62529,0 -1.07005,-0.233386 -0.44035,-0.233386 -0.67374,-0.678139 -0.22898,-0.449158 -0.22898,-1.078858 V 47.3382 q 0,-0.620893 0.22898,-1.061244 0.23339,-0.444754 0.67374,-0.673736 0.44476,-0.233385 1.07005,-0.233385 0.6253,0 1.06565,0.233385 0.44475,0.228982 0.67373,0.673736 0.23339,0.440351 0.23339,1.061244 v 0.757403 q 0,0.625298 -0.23339,1.070051 -0.22898,0.44035 -0.67373,0.673736 -0.44035,0.233386 -1.06565,0.233386 z m -0.005,-1.162525 q 0.36549,0 0.56805,-0.211368 0.20256,-0.215772 0.20256,-0.60328 V 47.3382 q 0,-0.383105 -0.20256,-0.594473 -0.20256,-0.211368 -0.56805,-0.211368 -0.36109,0 -0.56365,0.211368 -0.19816,0.211368 -0.19816,0.594473 v 0.757403 q 0,0.387508 0.19816,0.60328 0.19816,0.211368 0.56365,0.211368 z"
       id="path4183"
       style="font-weight:bold;font-size:9.68461px;font-family:Bahnschrift;-inkscape-font-specification:'Bahnschrift Bold';stroke-width:0.136341" />
    <path
       d="m 240.49558,45.435887 h 1.15811 l 0.81025,2.822645 0.96437,-2.822645 h 0.71336 l 0.96437,2.822645 0.81025,-2.822645 h 1.15811 l -1.40912,4.570836 h -0.89831 l -0.98198,-2.981172 -0.98198,2.981172 h -0.89831 z"
       id="path4180"
       style="font-weight:bold;font-size:9.68461px;font-family:Bahnschrift;-inkscape-font-specification:'Bahnschrift Bold';stroke-width:0.136341" />
    <path
       d="m 247.80099,43.604029 h 1.20655 v 1.20656 h -1.20655 z m 0,1.831858 h 1.20655 v 4.570836 h -1.20655 z"
       id="path4177"
       style="font-weight:bold;font-size:9.68461px;font-family:Bahnschrift;-inkscape-font-specification:'Bahnschrift Bold';stroke-width:0.136341" />
    <path
       d="m 252.08999,50.072776 q -0.66052,0 -1.13169,-0.237789 -0.46678,-0.242193 -0.71337,-0.700157 -0.24659,-0.462368 -0.24659,-1.109683 v -0.51521 q 0,-0.678139 0.23338,-1.158121 0.23779,-0.479983 0.68695,-0.730982 0.45356,-0.250999 1.09206,-0.250999 0.59888,0 1.02602,0.299438 0.42714,0.299438 0.64731,0.871893 0.22458,0.568052 0.22458,1.373893 v 0.299438 h -3.12648 V 47.39985 h 2.02561 l -0.0132,-0.105685 q -0.0484,-0.396315 -0.251,-0.612087 -0.19816,-0.215771 -0.53283,-0.215771 -0.43594,0 -0.67813,0.259806 -0.2378,0.259807 -0.2378,0.735385 v 0.581263 q 0,0.466772 0.25981,0.722175 0.26421,0.255403 0.73538,0.255403 0.2422,0 0.47999,-0.08367 0.23779,-0.08807 0.43155,-0.246597 v 0 l 0.78822,0.700157 v 0 q -0.35668,0.32586 -0.80144,0.506403 -0.44475,0.176141 -0.89832,0.176141 z"
       id="path4174"
       style="font-weight:bold;font-size:9.68461px;font-family:Bahnschrift;-inkscape-font-specification:'Bahnschrift Bold';stroke-width:0.136341" />
    <path
       d="m 256.89863,50.072776 q -0.65173,0 -1.1185,-0.246596 -0.46237,-0.250999 -0.70456,-0.726578 -0.24219,-0.475578 -0.24219,-1.144911 v -0.488789 q 0,-0.664929 0.24219,-1.1317 0.24219,-0.471175 0.70456,-0.717772 0.46677,-0.246595 1.1185,-0.246595 0.37429,0 0.70456,0.08807 0.33466,0.08367 0.59887,0.246596 0.26421,0.162929 0.44035,0.396316 v 0 l -0.77942,0.757403 v 0 q -0.16734,-0.154123 -0.39191,-0.23779 -0.22458,-0.08807 -0.47118,-0.08807 -0.45796,0 -0.70896,0.246596 -0.251,0.242193 -0.251,0.686947 v 0.488789 q 0,0.457964 0.251,0.708964 0.251,0.246596 0.70896,0.246596 0.251,0 0.47558,-0.09248 0.22458,-0.09248 0.38751,-0.26421 v 0 l 0.77942,0.801437 v 0 q -0.18054,0.228982 -0.44475,0.391912 -0.26421,0.158527 -0.59447,0.242193 -0.33027,0.08367 -0.70456,0.08367 z"
       id="path4171"
       style="font-weight:bold;font-size:9.68461px;font-family:Bahnschrift;-inkscape-font-specification:'Bahnschrift Bold';stroke-width:0.136341" />
    <path
       d="m 260.0207,48.359813 2.1313,-2.923926 h 1.27702 l -3.24539,4.253784 z m -0.56364,-4.755784 h 1.20656 v 6.402694 h -1.20656 z m 1.6469,4.042416 0.99519,-0.598875 1.55445,2.959153 h -1.39592 z"
       id="path4168"
       style="font-weight:bold;font-size:9.68461px;font-family:Bahnschrift;-inkscape-font-specification:'Bahnschrift Bold';stroke-width:0.136341" />
    <path
       d="m 264.16,43.604029 h 1.20656 v 1.20656 H 264.16 Z m 0,1.831858 h 1.20656 v 4.570836 H 264.16 Z"
       id="path4165"
       style="font-weight:bold;font-size:9.68461px;font-family:Bahnschrift;-inkscape-font-specification:'Bahnschrift Bold';stroke-width:0.136341" />
    <path
       d="m 268.44902,50.072776 q -0.66054,0 -1.13171,-0.237789 -0.46677,-0.242193 -0.71337,-0.700157 -0.24659,-0.462368 -0.24659,-1.109683 v -0.51521 q 0,-0.678139 0.23339,-1.158121 0.23778,-0.479983 0.68694,-0.730982 0.45356,-0.250999 1.09207,-0.250999 0.59888,0 1.02602,0.299438 0.42714,0.299438 0.64731,0.871893 0.22458,0.568052 0.22458,1.373893 v 0.299438 h -3.12649 V 47.39985 h 2.02561 l -0.0132,-0.105685 q -0.0484,-0.396315 -0.25101,-0.612087 -0.19815,-0.215771 -0.53282,-0.215771 -0.43595,0 -0.67814,0.259806 -0.23779,0.259807 -0.23779,0.735385 v 0.581263 q 0,0.466772 0.25981,0.722175 0.26421,0.255403 0.73539,0.255403 0.24219,0 0.47998,-0.08367 0.23778,-0.08807 0.43154,-0.246597 v 0 l 0.78823,0.700157 v 0 q -0.35669,0.32586 -0.80144,0.506403 -0.44476,0.176141 -0.89831,0.176141 z"
       id="path4162"
       style="font-weight:bold;font-size:9.68461px;font-family:Bahnschrift;-inkscape-font-specification:'Bahnschrift Bold';stroke-width:0.136341" />
    <path
       d="m 272.94499,51.865002 q -0.54604,0 -0.97758,-0.193754 -0.42714,-0.189351 -0.66492,-0.537227 v 0 l 0.81024,-0.744193 v 0 q 0.15412,0.167333 0.36989,0.255403 0.21577,0.09248 0.44916,0.09248 0.3787,0 0.61649,-0.206964 0.2422,-0.206965 0.2422,-0.572456 v -4.522397 h 1.20655 v 4.434327 q 0,0.629701 -0.24219,1.078858 -0.23779,0.449158 -0.70015,0.682544 -0.45797,0.233386 -1.10969,0.233386 z m -0.21577,-1.792226 q -0.48439,0 -0.83226,-0.233386 -0.34348,-0.233386 -0.52402,-0.673736 -0.18054,-0.444753 -0.18054,-1.070051 v -0.730982 q 0,-0.6297 0.18054,-1.078858 0.18054,-0.449157 0.52402,-0.682543 0.34787,-0.233385 0.83226,-0.233385 0.36548,0 0.66492,0.220174 0.30385,0.215772 0.48879,0.616491 l -0.0925,1.012806 q 0,-0.233386 -0.0793,-0.396316 -0.0793,-0.162929 -0.23339,-0.246596 -0.14972,-0.08807 -0.36549,-0.08807 -0.33907,0 -0.52842,0.233386 -0.18495,0.228983 -0.18495,0.647315 v 0.726578 q 0,0.409526 0.18495,0.634104 0.18935,0.22458 0.52842,0.22458 0.21577,0 0.36549,-0.08367 0.15413,-0.08367 0.23339,-0.242192 0.0793,-0.158527 0.0793,-0.383105 l 0.0616,1.04363 q -0.14091,0.374298 -0.43154,0.581262 -0.29063,0.202562 -0.69135,0.202562 z"
       id="path4159"
       style="font-weight:bold;font-size:9.68461px;font-family:Bahnschrift;-inkscape-font-specification:'Bahnschrift Bold';stroke-width:0.136341" />
    <path
       d="m 278.02664,50.072776 q -0.6253,0 -1.07005,-0.233386 -0.44036,-0.233386 -0.67374,-0.678139 -0.22898,-0.449158 -0.22898,-1.078858 V 47.3382 q 0,-0.620893 0.22898,-1.061244 0.23338,-0.444754 0.67374,-0.673736 0.44475,-0.233385 1.07005,-0.233385 0.62529,0 1.06564,0.233385 0.44476,0.228982 0.67374,0.673736 0.23339,0.440351 0.23339,1.061244 v 0.757403 q 0,0.625298 -0.23339,1.070051 -0.22898,0.44035 -0.67374,0.673736 -0.44035,0.233386 -1.06564,0.233386 z m -0.005,-1.162525 q 0.36549,0 0.56806,-0.211368 0.20255,-0.215772 0.20255,-0.60328 V 47.3382 q 0,-0.383105 -0.20255,-0.594473 -0.20257,-0.211368 -0.56806,-0.211368 -0.36108,0 -0.56365,0.211368 -0.19816,0.211368 -0.19816,0.594473 v 0.757403 q 0,0.387508 0.19816,0.60328 0.19816,0.211368 0.56365,0.211368 z"
       id="path4156"
       style="font-weight:bold;font-size:9.68461px;font-family:Bahnschrift;-inkscape-font-specification:'Bahnschrift Bold';stroke-width:0.136341" />
    <g
       aria-label="Outsourcing IT - Konopnickiej.Com | ELMAR "
       id="g1186"
       style="font-weight:bold;font-size:4.23333px;font-family:Bahnschrift;-inkscape-font-specification:'Bahnschrift Bold';text-align:center;text-anchor:middle;stroke-width:0.0640001;fill:#000000"
       transform="translate(37.30077,25.314138)">
      <g
         aria-label="www.konopnickiej.com | www.elmarit.pl | www.ustal.pl | www.flameit.io"
         id="text3021"
         style="font-size:3.6672px;fill:#000000;stroke-width:0.0554414">
        <path
           d="m 54.584498,161.86211 h 0.470934 l 0.329475,1.14779 0.392147,-1.14779 h 0.290082 l 0.392146,1.14779 0.329475,-1.14779 h 0.470935 l -0.573,1.85867 h -0.365288 l -0.399309,-1.21225 -0.399309,1.21225 h -0.365288 z"
           id="path1754"
           style="fill:#000000" />
        <path
           d="m 57.420848,161.86211 h 0.470934 l 0.329475,1.14779 0.392147,-1.14779 h 0.290082 l 0.392146,1.14779 0.329475,-1.14779 h 0.470935 l -0.573,1.85867 h -0.365288 l -0.399309,-1.21225 -0.399309,1.21225 h -0.365288 z"
           id="path1756"
           style="fill:#000000" />
        <path
           d="m 60.257198,161.86211 h 0.470934 l 0.329475,1.14779 0.392147,-1.14779 h 0.290082 l 0.392146,1.14779 0.329475,-1.14779 h 0.470935 l -0.573,1.85867 h -0.365288 l -0.399309,-1.21225 -0.39931,1.21225 h -0.365287 z"
           id="path1758"
           style="fill:#000000" />
        <path
           d="m 62.959251,163.23015 h 0.490632 v 0.49063 h -0.490632 z"
           id="path1760"
           style="fill:#000000" />
        <path
           d="m 64.099879,163.05109 0.866663,-1.18898 h 0.519281 l -1.319691,1.72974 z m -0.2292,-1.93388 h 0.490631 v 2.60357 h -0.490631 z m 0.669694,1.64379 0.404681,-0.24352 0.632091,1.2033 h -0.567628 z"
           id="path1762"
           style="fill:#000000" />
        <path
           d="m 66.558407,163.74764 q -0.254268,0 -0.435121,-0.0949 -0.179063,-0.0949 -0.273966,-0.27576 -0.09311,-0.18264 -0.09311,-0.4387 v -0.30262 q 0,-0.25248 0.09311,-0.43154 0.0949,-0.18085 0.273966,-0.27397 0.180853,-0.0949 0.435121,-0.0949 0.254269,0 0.433332,0.0949 0.180853,0.0931 0.273965,0.27397 0.0949,0.17906 0.0949,0.43154 v 0.30799 q 0,0.25427 -0.0949,0.43512 -0.09311,0.17906 -0.273965,0.27397 -0.179063,0.0949 -0.433332,0.0949 z m -0.0018,-0.47273 q 0.148622,0 0.230991,-0.0859 0.08237,-0.0877 0.08237,-0.24531 v -0.30799 q 0,-0.15578 -0.08237,-0.24173 -0.08237,-0.086 -0.230991,-0.086 -0.146831,0 -0.2292,0.086 -0.08058,0.0859 -0.08058,0.24173 v 0.30799 q 0,0.15757 0.08058,0.24531 0.08058,0.0859 0.2292,0.0859 z"
           id="path1764"
           style="fill:#000000" />
        <path
           d="m 67.808264,161.86211 h 0.490631 v 1.85867 h -0.490631 z m 1.074375,0.73237 q 0,-0.13609 -0.07879,-0.2113 -0.077,-0.0752 -0.220246,-0.0752 -0.136088,0 -0.211294,0.077 -0.07342,0.0752 -0.07342,0.21309 l -0.0376,-0.41185 q 0.08416,-0.17548 0.20055,-0.26322 0.118181,-0.0877 0.295453,-0.0877 0.293663,0 0.454819,0.19876 0.161156,0.19697 0.161156,0.55868 v 1.12809 h -0.490631 z"
           id="path1766"
           style="fill:#000000" />
        <path
           d="m 70.60522,163.74764 q -0.254269,0 -0.435122,-0.0949 -0.179063,-0.0949 -0.273966,-0.27576 -0.09311,-0.18264 -0.09311,-0.4387 v -0.30262 q 0,-0.25248 0.09311,-0.43154 0.0949,-0.18085 0.273966,-0.27397 0.180853,-0.0949 0.435122,-0.0949 0.254268,0 0.433331,0.0949 0.180853,0.0931 0.273965,0.27397 0.0949,0.17906 0.0949,0.43154 v 0.30799 q 0,0.25427 -0.0949,0.43512 -0.09311,0.17906 -0.273965,0.27397 -0.179063,0.0949 -0.433331,0.0949 z m -0.0018,-0.47273 q 0.148622,0 0.230991,-0.0859 0.08237,-0.0877 0.08237,-0.24531 v -0.30799 q 0,-0.15578 -0.08237,-0.24173 -0.08237,-0.086 -0.230991,-0.086 -0.146831,0 -0.2292,0.086 -0.08058,0.0859 -0.08058,0.24173 v 0.30799 q 0,0.15757 0.08058,0.24531 0.08058,0.0859 0.2292,0.0859 z"
           id="path1768"
           style="fill:#000000" />
        <path
           d="m 71.855077,161.86211 h 0.490631 v 2.61431 h -0.490631 z m 0.922172,1.88553 q -0.162947,0 -0.281128,-0.0824 -0.118182,-0.0842 -0.175482,-0.23636 l 0.02507,-0.42438 q 0,0.0913 0.03223,0.15578 0.03223,0.0645 0.09311,0.0985 0.06267,0.034 0.150413,0.034 0.137878,0 0.213084,-0.0913 0.077,-0.0913 0.077,-0.25785 v -0.29545 q 0,-0.17011 -0.077,-0.26323 -0.07521,-0.0949 -0.213084,-0.0949 -0.08774,0 -0.150413,0.0358 -0.06088,0.034 -0.09311,0.10028 -0.03223,0.0662 -0.03223,0.16115 l -0.0376,-0.41184 q 0.07521,-0.16295 0.196969,-0.25069 0.123553,-0.0895 0.272175,-0.0895 0.196969,0 0.336637,0.0949 0.14146,0.0949 0.214875,0.27755 0.07342,0.18265 0.07342,0.4387 v 0.29725 q 0,0.25427 -0.07342,0.43512 -0.07341,0.17906 -0.214875,0.27397 -0.139668,0.0949 -0.336637,0.0949 z"
           id="path1770"
           style="fill:#000000" />
        <path
           d="m 73.849832,161.86211 h 0.490631 v 1.85867 h -0.490631 z m 1.074375,0.73237 q 0,-0.13609 -0.07879,-0.2113 -0.077,-0.0752 -0.220247,-0.0752 -0.136087,0 -0.211293,0.077 -0.07342,0.0752 -0.07342,0.21309 l -0.0376,-0.41185 q 0.08416,-0.17548 0.20055,-0.26322 0.118181,-0.0877 0.295453,-0.0877 0.293663,0 0.454819,0.19876 0.161156,0.19697 0.161156,0.55868 v 1.12809 h -0.490631 z"
           id="path1772"
           style="fill:#000000" />
        <path
           d="m 75.871448,161.11721 h 0.490631 v 0.49063 h -0.490631 z m 0,0.7449 h 0.490631 v 1.85867 h -0.490631 z"
           id="path1774"
           style="fill:#000000" />
        <path
           d="m 77.604773,163.74764 q -0.265013,0 -0.454819,-0.10028 -0.188015,-0.10206 -0.2865,-0.29545 -0.09848,-0.19339 -0.09848,-0.46556 v -0.19876 q 0,-0.27039 0.09848,-0.46019 0.09848,-0.1916 0.2865,-0.29187 0.189806,-0.10028 0.454819,-0.10028 0.152203,0 0.2865,0.0358 0.136087,0.034 0.243525,0.10028 0.107437,0.0662 0.179062,0.16116 v 0 l -0.31694,0.30798 v 0 q -0.06804,-0.0627 -0.159366,-0.0967 -0.09132,-0.0358 -0.191597,-0.0358 -0.186225,0 -0.28829,0.10027 -0.102066,0.0985 -0.102066,0.27934 v 0.19876 q 0,0.18622 0.102066,0.28829 0.102065,0.10027 0.28829,0.10027 0.102066,0 0.193388,-0.0376 0.09132,-0.0376 0.157575,-0.10744 v 0 l 0.31694,0.3259 v 0 q -0.07342,0.0931 -0.180853,0.15936 -0.107437,0.0645 -0.241734,0.0985 -0.134297,0.034 -0.2865,0.034 z"
           id="path1776"
           style="fill:#000000" />
        <path
           d="m 78.874326,163.05109 0.866662,-1.18898 h 0.519281 l -1.31969,1.72974 z m -0.2292,-1.93388 h 0.490631 v 2.60357 h -0.490631 z m 0.669693,1.64379 0.404682,-0.24352 0.63209,1.2033 h -0.567628 z"
           id="path1778"
           style="fill:#000000" />
        <path
           d="m 80.557513,161.11721 h 0.490632 v 0.49063 h -0.490632 z m 0,0.7449 h 0.490632 v 1.85867 h -0.490632 z"
           id="path1780"
           style="fill:#000000" />
        <path
           d="m 82.301582,163.74764 q -0.268593,0 -0.46019,-0.0967 -0.189806,-0.0985 -0.290081,-0.28471 -0.100275,-0.18802 -0.100275,-0.45124 v -0.2095 q 0,-0.27576 0.0949,-0.47094 0.09669,-0.19518 0.279337,-0.29724 0.184435,-0.10207 0.444075,-0.10207 0.243525,0 0.417216,0.12176 0.17369,0.12177 0.263222,0.35455 0.09132,0.23099 0.09132,0.55867 v 0.12177 h -1.271344 v -0.33127 h 0.823687 l -0.0054,-0.043 q -0.0197,-0.16115 -0.102065,-0.24889 -0.08058,-0.0877 -0.216666,-0.0877 -0.177272,0 -0.275756,0.10564 -0.09669,0.10565 -0.09669,0.29904 v 0.23636 q 0,0.18981 0.105647,0.29366 0.107438,0.10386 0.299034,0.10386 0.09849,0 0.195179,-0.034 0.09669,-0.0358 0.175481,-0.10028 v 0 l 0.320522,0.28471 v 0 q -0.145041,0.13251 -0.325894,0.20592 -0.180853,0.0716 -0.365288,0.0716 z"
           id="path1782"
           style="fill:#000000" />
        <path
           d="m 83.220173,164.0037 h 0.1146 q 0.06804,0 0.103856,-0.0376 0.0376,-0.0358 0.0376,-0.10386 v -2.00013 h 0.490631 v 2.12189 q 0,0.23457 -0.123553,0.3635 -0.123553,0.12892 -0.347382,0.12892 h -0.275756 z m 0.252478,-2.88649 h 0.497794 v 0.49063 h -0.497794 z"
           id="path1784"
           style="fill:#000000" />
        <path
           d="m 84.373336,163.23015 h 0.490631 v 0.49063 h -0.490631 z"
           id="path1786"
           style="fill:#000000" />
        <path
           d="m 85.999224,163.74764 q -0.265012,0 -0.454819,-0.10028 -0.188015,-0.10206 -0.2865,-0.29545 -0.09848,-0.19339 -0.09848,-0.46556 v -0.19876 q 0,-0.27039 0.09848,-0.46019 0.09849,-0.1916 0.2865,-0.29187 0.189807,-0.10028 0.454819,-0.10028 0.152203,0 0.2865,0.0358 0.136088,0.034 0.243525,0.10028 0.107438,0.0662 0.179063,0.16116 v 0 l -0.316941,0.30798 v 0 q -0.06804,-0.0627 -0.159366,-0.0967 -0.09132,-0.0358 -0.191597,-0.0358 -0.186225,0 -0.28829,0.10027 -0.102066,0.0985 -0.102066,0.27934 v 0.19876 q 0,0.18622 0.102066,0.28829 0.102065,0.10027 0.28829,0.10027 0.102066,0 0.193388,-0.0376 0.09132,-0.0376 0.157575,-0.10744 v 0 l 0.316941,0.3259 v 0 q -0.07342,0.0931 -0.180853,0.15936 -0.107438,0.0645 -0.241735,0.0985 -0.134297,0.034 -0.2865,0.034 z"
           id="path1788"
           style="fill:#000000" />
        <path
           d="m 87.788058,163.74764 q -0.254269,0 -0.435122,-0.0949 -0.179062,-0.0949 -0.273966,-0.27576 -0.09311,-0.18264 -0.09311,-0.4387 v -0.30262 q 0,-0.25248 0.09311,-0.43154 0.0949,-0.18085 0.273966,-0.27397 0.180853,-0.0949 0.435122,-0.0949 0.254269,0 0.433331,0.0949 0.180853,0.0931 0.273966,0.27397 0.0949,0.17906 0.0949,0.43154 v 0.30799 q 0,0.25427 -0.0949,0.43512 -0.09311,0.17906 -0.273966,0.27397 -0.179062,0.0949 -0.433331,0.0949 z m -0.0018,-0.47273 q 0.148622,0 0.230991,-0.0859 0.08237,-0.0877 0.08237,-0.24531 v -0.30799 q 0,-0.15578 -0.08237,-0.24173 -0.08237,-0.086 -0.230991,-0.086 -0.146831,0 -0.2292,0.086 -0.08058,0.0859 -0.08058,0.24173 v 0.30799 q 0,0.15757 0.08058,0.24531 0.08058,0.0859 0.2292,0.0859 z"
           id="path1790"
           style="fill:#000000" />
        <path
           d="m 91.20457,162.6482 q 0,-0.16295 -0.07879,-0.25069 -0.077,-0.0895 -0.220247,-0.0895 -0.141459,0 -0.218456,0.086 -0.07521,0.0842 -0.07521,0.23994 l -0.09132,-0.42975 q 0.08774,-0.17727 0.227409,-0.27217 0.14146,-0.0967 0.31336,-0.0967 0.20055,0 0.342009,0.0949 0.14325,0.0949 0.216666,0.27755 0.07521,0.18265 0.07521,0.4387 v 1.07438 H 91.20457 Z m -2.166656,-0.78609 h 0.490631 v 1.85867 h -0.490631 z m 1.083328,0.78609 q 0,-0.16295 -0.08058,-0.25069 -0.08058,-0.0895 -0.22741,-0.0895 -0.136087,0 -0.211294,0.077 -0.07342,0.0752 -0.07342,0.21309 l -0.0376,-0.41185 q 0.08237,-0.1719 0.205922,-0.26143 0.123553,-0.0895 0.290081,-0.0895 0.196969,0 0.336637,0.0949 0.14146,0.0949 0.214875,0.27755 0.07342,0.18265 0.07342,0.4387 v 1.07438 h -0.490631 z"
           id="path1792"
           style="fill:#000000" />
        <path
           d="m 93.181419,160.80922 h 0.472725 v 3.21955 h -0.472725 z"
           id="path1794"
           style="fill:#000000" />
        <path
           d="m 94.997115,161.86211 h 0.470934 l 0.329475,1.14779 0.392147,-1.14779 h 0.290081 l 0.392147,1.14779 0.329475,-1.14779 h 0.470935 l -0.573,1.85867 h -0.365288 l -0.399309,-1.21225 -0.39931,1.21225 h -0.365287 z"
           id="path1796"
           style="fill:#000000" />
        <path
           d="m 97.833464,161.86211 h 0.470935 l 0.329475,1.14779 0.392147,-1.14779 h 0.290081 l 0.392147,1.14779 0.329471,-1.14779 h 0.47094 l -0.573002,1.85867 h -0.365287 l -0.39931,-1.21225 -0.399309,1.21225 h -0.365288 z"
           id="path1798"
           style="fill:#000000" />
        <path
           d="m 100.66981,161.86211 h 0.47094 l 0.32947,1.14779 0.39215,-1.14779 h 0.29008 l 0.39215,1.14779 0.32947,-1.14779 h 0.47094 l -0.573,1.85867 h -0.36529 l -0.39931,-1.21225 -0.39931,1.21225 h -0.36529 z"
           id="path1800"
           style="fill:#000000" />
        <path
           d="m 103.37187,163.23015 h 0.49063 v 0.49063 h -0.49063 z"
           id="path1802"
           style="fill:#000000" />
        <path
           d="m 105.0085,163.74764 q -0.2686,0 -0.46019,-0.0967 -0.18981,-0.0985 -0.29008,-0.28471 -0.10028,-0.18802 -0.10028,-0.45124 v -0.2095 q 0,-0.27576 0.0949,-0.47094 0.0967,-0.19518 0.27934,-0.29724 0.18444,-0.10207 0.44408,-0.10207 0.24352,0 0.41721,0.12176 0.17369,0.12177 0.26322,0.35455 0.0913,0.23099 0.0913,0.55867 v 0.12177 h -1.27135 v -0.33127 h 0.82369 l -0.005,-0.043 q -0.0197,-0.16115 -0.10207,-0.24889 -0.0806,-0.0877 -0.21666,-0.0877 -0.17728,0 -0.27576,0.10564 -0.0967,0.10565 -0.0967,0.29904 v 0.23636 q 0,0.18981 0.10564,0.29366 0.10744,0.10386 0.29904,0.10386 0.0985,0 0.19518,-0.034 0.0967,-0.0358 0.17548,-0.10028 v 0 l 0.32052,0.28471 v 0 q -0.14504,0.13251 -0.3259,0.20592 -0.18085,0.0716 -0.36528,0.0716 z"
           id="path1804"
           style="fill:#000000" />
        <path
           d="m 106.66841,163.1066 q 0,0.068 0.0376,0.10564 0.0394,0.0358 0.11102,0.0358 h 0.0824 v 0.47273 h -0.25069 q -0.22383,0 -0.34738,-0.12893 -0.12355,-0.12892 -0.12355,-0.36349 v -2.11115 h 0.49063 z"
           id="path1806"
           style="fill:#000000" />
        <path
           d="m 109.38837,162.6482 q 0,-0.16295 -0.0788,-0.25069 -0.077,-0.0895 -0.22025,-0.0895 -0.14146,0 -0.21845,0.086 -0.0752,0.0842 -0.0752,0.23994 l -0.0913,-0.42975 q 0.0877,-0.17727 0.22741,-0.27217 0.14146,-0.0967 0.31336,-0.0967 0.20055,0 0.34201,0.0949 0.14325,0.0949 0.21666,0.27755 0.0752,0.18265 0.0752,0.4387 v 1.07438 h -0.49063 z m -2.16666,-0.78609 h 0.49063 v 1.85867 h -0.49063 z m 1.08333,0.78609 q 0,-0.16295 -0.0806,-0.25069 -0.0806,-0.0895 -0.22741,-0.0895 -0.13609,0 -0.21129,0.077 -0.0734,0.0752 -0.0734,0.21309 l -0.0376,-0.41185 q 0.0824,-0.1719 0.20592,-0.26143 0.12355,-0.0895 0.29008,-0.0895 0.19697,0 0.33664,0.0949 0.14146,0.0949 0.21487,0.27755 0.0734,0.18265 0.0734,0.4387 v 1.07438 h -0.49063 z"
           id="path1808"
           style="fill:#000000" />
        <path
           d="m 111.38491,162.54255 q 0,-0.12893 -0.086,-0.19876 -0.0859,-0.0698 -0.24352,-0.0698 -0.10386,0 -0.20592,0.034 -0.10207,0.034 -0.18086,0.0949 l -0.3044,-0.29903 q 0.11102,-0.12714 0.29366,-0.19697 0.18264,-0.0716 0.40468,-0.0716 0.24353,0 0.41543,0.0824 0.1719,0.0806 0.26143,0.23636 0.0913,0.154 0.0913,0.37245 v 1.19435 h -0.44587 z m -0.51749,1.20509 q -0.29903,0 -0.44765,-0.14146 -0.14683,-0.14325 -0.14683,-0.43333 0,-0.27576 0.16473,-0.41364 0.16653,-0.13787 0.4978,-0.13787 h 0.46556 l 0.0251,0.37424 h -0.48884 q -0.11102,0 -0.16653,0.0448 -0.0555,0.043 -0.0555,0.13251 0,0.0913 0.0698,0.13609 0.0698,0.043 0.21129,0.043 0.19697,0 0.29187,-0.0448 0.0967,-0.0448 0.0967,-0.13967 l 0.0376,0.27038 q -0.0108,0.10028 -0.0931,0.17011 -0.0806,0.0698 -0.20414,0.10565 -0.12176,0.034 -0.25785,0.034 z"
           id="path1810"
           style="fill:#000000" />
        <path
           d="m 112.31425,161.86211 h 0.52644 v 1.85867 h -0.52644 z m 1.04573,0.51749 q -0.0358,-0.0358 -0.0877,-0.0537 -0.0519,-0.0179 -0.11997,-0.0179 -0.14862,0 -0.23099,0.0967 -0.0806,0.0949 -0.0806,0.26501 l -0.0376,-0.48347 q 0.077,-0.16652 0.19876,-0.25785 0.12355,-0.0931 0.27038,-0.0931 0.1164,0 0.20951,0.0376 0.0949,0.0358 0.16474,0.10744 z"
           id="path1812"
           style="fill:#000000" />
        <path
           d="m 113.8524,161.11721 h 0.49063 v 0.49063 h -0.49063 z m 0,0.7449 h 0.49063 v 1.85867 h -0.49063 z"
           id="path1814"
           style="fill:#000000" />
        <path
           d="m 115.31892,163.72973 q -0.24353,0 -0.35813,-0.12355 -0.11281,-0.12534 -0.11281,-0.36887 v -1.91597 h 0.49063 v 1.79421 q 0,0.068 0.0269,0.10565 0.0269,0.0358 0.0788,0.0358 h 0.12176 v 0.47272 z m -0.66253,-1.86762 h 0.90963 v 0.41901 h -0.90963 z"
           id="path1816"
           style="fill:#000000" />
        <path
           d="m 115.91519,163.23015 h 0.49064 v 0.49063 h -0.49064 z"
           id="path1818"
           style="fill:#000000" />
        <path
           d="m 116.82663,161.86211 h 0.49063 v 2.61431 h -0.49063 z m 0.92217,1.88553 q -0.16295,0 -0.28113,-0.0824 -0.11818,-0.0842 -0.17548,-0.23636 l 0.0251,-0.42438 q 0,0.0913 0.0322,0.15578 0.0322,0.0645 0.0931,0.0985 0.0627,0.034 0.15041,0.034 0.13788,0 0.21309,-0.0913 0.077,-0.0913 0.077,-0.25785 v -0.29545 q 0,-0.17011 -0.077,-0.26323 -0.0752,-0.0949 -0.21309,-0.0949 -0.0877,0 -0.15041,0.0358 -0.0609,0.034 -0.0931,0.10028 -0.0322,0.0662 -0.0322,0.16115 l -0.0376,-0.41184 q 0.0752,-0.16295 0.19697,-0.25069 0.12356,-0.0895 0.27218,-0.0895 0.19697,0 0.33663,0.0949 0.14146,0.0949 0.21488,0.27755 0.0734,0.18265 0.0734,0.4387 v 0.29725 q 0,0.25427 -0.0734,0.43512 -0.0734,0.17906 -0.21488,0.27397 -0.13966,0.0949 -0.33663,0.0949 z"
           id="path1820"
           style="fill:#000000" />
        <path
           d="m 119.31201,163.1066 q 0,0.068 0.0376,0.10564 0.0394,0.0358 0.11102,0.0358 h 0.0824 v 0.47273 h -0.25069 q -0.22383,0 -0.34738,-0.12893 -0.12356,-0.12892 -0.12356,-0.36349 v -2.11115 h 0.49063 z"
           id="path1822"
           style="fill:#000000" />
        <path
           d="m 120.88597,160.80922 h 0.47273 v 3.21955 h -0.47273 z"
           id="path1824"
           style="fill:#000000" />
        <path
           d="m 122.70166,161.86211 h 0.47094 l 0.32947,1.14779 0.39215,-1.14779 h 0.29008 l 0.39215,1.14779 0.32947,-1.14779 h 0.47094 l -0.573,1.85867 h -0.36529 l -0.39931,-1.21225 -0.39931,1.21225 h -0.36529 z"
           id="path1826"
           style="fill:#000000" />
        <path
           d="m 125.53801,161.86211 h 0.47094 l 0.32947,1.14779 0.39215,-1.14779 h 0.29008 l 0.39215,1.14779 0.32947,-1.14779 h 0.47094 l -0.573,1.85867 h -0.36529 l -0.39931,-1.21225 -0.39931,1.21225 h -0.36529 z"
           id="path1828"
           style="fill:#000000" />
        <path
           d="m 128.37436,161.86211 h 0.47094 l 0.32947,1.14779 0.39215,-1.14779 h 0.29008 l 0.39215,1.14779 0.32947,-1.14779 h 0.47094 l -0.573,1.85867 h -0.36529 l -0.39931,-1.21225 -0.39931,1.21225 h -0.36529 z"
           id="path1830"
           style="fill:#000000" />
        <path
           d="m 131.07641,163.23015 h 0.49064 v 0.49063 h -0.49064 z"
           id="path1832"
           style="fill:#000000" />
        <path
           d="m 133.05506,161.86211 h 0.48884 v 1.85867 h -0.48884 z m -0.57658,1.12989 q 0,0.13429 0.0752,0.2095 0.077,0.0734 0.21487,0.0734 0.13788,0 0.2113,-0.0752 0.0752,-0.077 0.0752,-0.21846 l 0.0251,0.40647 q -0.0519,0.15221 -0.17369,0.25606 -0.11997,0.10386 -0.29366,0.10386 -0.29904,0 -0.46198,-0.1916 -0.16295,-0.19339 -0.16295,-0.54614 v -1.14779 h 0.49063 z"
           id="path1834"
           style="fill:#000000" />
        <path
           d="m 134.73825,163.74764 q -0.16653,0 -0.32411,-0.0286 -0.15757,-0.0304 -0.29545,-0.0877 -0.13788,-0.0573 -0.24352,-0.13788 v 0 l 0.30261,-0.37782 v 0 q 0.1343,0.0859 0.28113,0.1325 0.14683,0.0466 0.27934,0.0466 0.1719,0 0.2668,-0.0376 0.0949,-0.0394 0.0949,-0.10744 0,-0.0627 -0.0412,-0.0949 -0.0412,-0.0322 -0.10565,-0.0448 -0.0645,-0.0143 -0.18085,-0.0251 -0.0322,-0.004 -0.0662,-0.007 -0.0322,-0.004 -0.0663,-0.007 -0.007,-0.002 -0.0161,-0.002 -0.007,-0.002 -0.0143,-0.002 -0.20771,-0.0269 -0.33305,-0.0663 -0.12535,-0.0394 -0.21309,-0.15041 -0.0859,-0.11281 -0.0859,-0.32589 0,-0.18623 0.0895,-0.31873 0.0895,-0.13251 0.25964,-0.20055 0.17011,-0.0698 0.41185,-0.0698 0.14146,0 0.28113,0.0286 0.14146,0.0286 0.27038,0.0824 0.12893,0.0537 0.23815,0.12893 v 0 l -0.29187,0.35633 v 0 q -0.12176,-0.068 -0.25427,-0.10565 -0.1325,-0.0376 -0.25427,-0.0376 -0.14862,0 -0.23099,0.034 -0.0824,0.034 -0.0824,0.0949 0,0.0466 0.043,0.0734 0.0448,0.0251 0.10923,0.0376 0.0662,0.0108 0.19159,0.0251 0.0161,0.002 0.0322,0.004 0.0161,0.002 0.0322,0.004 0.007,0.002 0.0161,0.002 0.009,0 0.0161,0.002 0.21666,0.0251 0.35275,0.0645 0.13609,0.0394 0.23099,0.15757 0.0967,0.11818 0.0967,0.34738 0,0.19339 -0.0931,0.33127 -0.0931,0.13788 -0.27217,0.21129 -0.17906,0.0716 -0.43154,0.0716 z"
           id="path1836"
           style="fill:#000000" />
        <path
           d="m 136.44829,163.72973 q -0.24352,0 -0.35812,-0.12355 -0.11281,-0.12534 -0.11281,-0.36887 v -1.91597 h 0.49063 v 1.79421 q 0,0.068 0.0269,0.10565 0.0269,0.0358 0.0788,0.0358 h 0.12176 v 0.47272 z m -0.66253,-1.86762 h 0.90964 v 0.41901 h -0.90964 z"
           id="path1838"
           style="fill:#000000" />
        <path
           d="m 138.14759,162.54255 q 0,-0.12893 -0.0859,-0.19876 -0.086,-0.0698 -0.24352,-0.0698 -0.10386,0 -0.20592,0.034 -0.10207,0.034 -0.18086,0.0949 l -0.3044,-0.29903 q 0.11102,-0.12714 0.29366,-0.19697 0.18264,-0.0716 0.40468,-0.0716 0.24353,0 0.41543,0.0824 0.1719,0.0806 0.26143,0.23636 0.0913,0.154 0.0913,0.37245 v 1.19435 h -0.44587 z m -0.51749,1.20509 q -0.29903,0 -0.44765,-0.14146 -0.14683,-0.14325 -0.14683,-0.43333 0,-0.27576 0.16473,-0.41364 0.16653,-0.13787 0.4978,-0.13787 h 0.46556 l 0.0251,0.37424 h -0.48884 q -0.11102,0 -0.16653,0.0448 -0.0555,0.043 -0.0555,0.13251 0,0.0913 0.0698,0.13609 0.0698,0.043 0.21129,0.043 0.19697,0 0.29187,-0.0448 0.0967,-0.0448 0.0967,-0.13967 l 0.0376,0.27038 q -0.0108,0.10028 -0.0931,0.17011 -0.0806,0.0698 -0.20414,0.10565 -0.12176,0.034 -0.25785,0.034 z"
           id="path1840"
           style="fill:#000000" />
        <path
           d="m 139.56756,163.1066 q 0,0.068 0.0376,0.10564 0.0394,0.0358 0.11102,0.0358 h 0.0824 v 0.47273 h -0.25069 q -0.22382,0 -0.34738,-0.12893 -0.12355,-0.12892 -0.12355,-0.36349 v -2.11115 h 0.49063 z"
           id="path1842"
           style="fill:#000000" />
        <path
           d="m 140.0582,163.23015 h 0.49063 v 0.49063 h -0.49063 z"
           id="path1844"
           style="fill:#000000" />
        <path
           d="m 140.96962,161.86211 h 0.49063 v 2.61431 h -0.49063 z m 0.92217,1.88553 q -0.16294,0 -0.28112,-0.0824 -0.11818,-0.0842 -0.17548,-0.23636 l 0.0251,-0.42438 q 0,0.0913 0.0322,0.15578 0.0322,0.0645 0.0931,0.0985 0.0627,0.034 0.15041,0.034 0.13788,0 0.21308,-0.0913 0.077,-0.0913 0.077,-0.25785 v -0.29545 q 0,-0.17011 -0.077,-0.26323 -0.0752,-0.0949 -0.21308,-0.0949 -0.0877,0 -0.15041,0.0358 -0.0609,0.034 -0.0931,0.10028 -0.0322,0.0662 -0.0322,0.16115 l -0.0376,-0.41184 q 0.0752,-0.16295 0.19697,-0.25069 0.12355,-0.0895 0.27217,-0.0895 0.19697,0 0.33664,0.0949 0.14146,0.0949 0.21488,0.27755 0.0734,0.18265 0.0734,0.4387 v 0.29725 q 0,0.25427 -0.0734,0.43512 -0.0734,0.17906 -0.21488,0.27397 -0.13967,0.0949 -0.33664,0.0949 z"
           id="path1846"
           style="fill:#000000" />
        <path
           d="m 143.45501,163.1066 q 0,0.068 0.0376,0.10564 0.0394,0.0358 0.11102,0.0358 h 0.0824 v 0.47273 h -0.25069 q -0.22383,0 -0.34738,-0.12893 -0.12356,-0.12892 -0.12356,-0.36349 v -2.11115 h 0.49064 z"
           id="path1848"
           style="fill:#000000" />
        <path
           d="m 145.02896,160.80922 h 0.47273 v 3.21955 h -0.47273 z"
           id="path1850"
           style="fill:#000000" />
        <path
           d="m 146.84466,161.86211 h 0.47093 l 0.32948,1.14779 0.39215,-1.14779 h 0.29008 l 0.39214,1.14779 0.32948,-1.14779 h 0.47093 l -0.573,1.85867 h -0.36528 l -0.39931,-1.21225 -0.39931,1.21225 h -0.36529 z"
           id="path1852"
           style="fill:#000000" />
        <path
           d="m 149.68101,161.86211 h 0.47093 l 0.32948,1.14779 0.39215,-1.14779 h 0.29008 l 0.39214,1.14779 0.32948,-1.14779 h 0.47093 l -0.573,1.85867 h -0.36528 l -0.39931,-1.21225 -0.39931,1.21225 h -0.36529 z"
           id="path1854"
           style="fill:#000000" />
        <path
           d="m 152.51736,161.86211 h 0.47093 l 0.32948,1.14779 0.39215,-1.14779 H 154 l 0.39214,1.14779 0.32948,-1.14779 h 0.47093 l -0.573,1.85867 h -0.36528 l -0.39931,-1.21225 -0.39931,1.21225 h -0.36529 z"
           id="path1856"
           style="fill:#000000" />
        <path
           d="m 155.21941,163.23015 h 0.49063 v 0.49063 h -0.49063 z"
           id="path1858"
           style="fill:#000000" />
        <path
           d="m 156.18456,161.60963 q 0,-0.2471 0.11281,-0.36887 0.1146,-0.12355 0.35096,-0.12355 h 0.34022 v 0.43691 h -0.20771 q -0.0519,0 -0.0788,0.0394 -0.0269,0.0394 -0.0269,0.10206 v 2.0252 h -0.49063 z m -0.19697,0.25248 h 1.00096 v 0.41901 h -1.00096 z"
           id="path1860"
           style="fill:#000000" />
        <path
           d="m 157.78359,163.1066 q 0,0.068 0.0376,0.10564 0.0394,0.0358 0.11102,0.0358 h 0.0824 v 0.47273 h -0.25069 q -0.22383,0 -0.34738,-0.12893 -0.12355,-0.12892 -0.12355,-0.36349 v -2.11115 h 0.49063 z"
           id="path1862"
           style="fill:#000000" />
        <path
           d="m 159.35934,162.54255 q 0,-0.12893 -0.0859,-0.19876 -0.0859,-0.0698 -0.24352,-0.0698 -0.10386,0 -0.20593,0.034 -0.10206,0.034 -0.18085,0.0949 l -0.30441,-0.29903 q 0.11102,-0.12714 0.29367,-0.19697 0.18264,-0.0716 0.40468,-0.0716 0.24352,0 0.41542,0.0824 0.1719,0.0806 0.26143,0.23636 0.0913,0.154 0.0913,0.37245 v 1.19435 h -0.44587 z m -0.51749,1.20509 q -0.29903,0 -0.44766,-0.14146 -0.14683,-0.14325 -0.14683,-0.43333 0,-0.27576 0.16474,-0.41364 0.16653,-0.13787 0.49779,-0.13787 h 0.46557 l 0.0251,0.37424 h -0.48885 q -0.11101,0 -0.16652,0.0448 -0.0555,0.043 -0.0555,0.13251 0,0.0913 0.0698,0.13609 0.0698,0.043 0.2113,0.043 0.19696,0 0.29187,-0.0448 0.0967,-0.0448 0.0967,-0.13967 l 0.0376,0.27038 q -0.0107,0.10028 -0.0931,0.17011 -0.0806,0.0698 -0.20413,0.10565 -0.12176,0.034 -0.25785,0.034 z"
           id="path1864"
           style="fill:#000000" />
        <path
           d="m 162.45533,162.6482 q 0,-0.16295 -0.0788,-0.25069 -0.077,-0.0895 -0.22025,-0.0895 -0.14146,0 -0.21846,0.086 -0.0752,0.0842 -0.0752,0.23994 l -0.0913,-0.42975 q 0.0877,-0.17727 0.22741,-0.27217 0.14146,-0.0967 0.31336,-0.0967 0.20055,0 0.34201,0.0949 0.14325,0.0949 0.21667,0.27755 0.0752,0.18265 0.0752,0.4387 v 1.07438 h -0.49063 z m -2.16665,-0.78609 h 0.49063 v 1.85867 h -0.49063 z m 1.08332,0.78609 q 0,-0.16295 -0.0806,-0.25069 -0.0806,-0.0895 -0.22741,-0.0895 -0.13609,0 -0.2113,0.077 -0.0734,0.0752 -0.0734,0.21309 l -0.0376,-0.41185 q 0.0824,-0.1719 0.20593,-0.26143 0.12355,-0.0895 0.29008,-0.0895 0.19697,0 0.33664,0.0949 0.14145,0.0949 0.21487,0.27755 0.0734,0.18265 0.0734,0.4387 v 1.07438 H 161.372 Z"
           id="path1866"
           style="fill:#000000" />
        <path
           d="m 164.22626,163.74764 q -0.26859,0 -0.46019,-0.0967 -0.18981,-0.0985 -0.29008,-0.28471 -0.10028,-0.18802 -0.10028,-0.45124 v -0.2095 q 0,-0.27576 0.0949,-0.47094 0.0967,-0.19518 0.27933,-0.29724 0.18444,-0.10207 0.44408,-0.10207 0.24352,0 0.41721,0.12176 0.17369,0.12177 0.26323,0.35455 0.0913,0.23099 0.0913,0.55867 v 0.12177 h -1.27135 v -0.33127 h 0.82369 l -0.005,-0.043 q -0.0197,-0.16115 -0.10207,-0.24889 -0.0806,-0.0877 -0.21666,-0.0877 -0.17727,0 -0.27576,0.10564 -0.0967,0.10565 -0.0967,0.29904 v 0.23636 q 0,0.18981 0.10564,0.29366 0.10744,0.10386 0.29904,0.10386 0.0985,0 0.19518,-0.034 0.0967,-0.0358 0.17548,-0.10028 v 0 l 0.32052,0.28471 v 0 q -0.14504,0.13251 -0.32589,0.20592 -0.18086,0.0716 -0.36529,0.0716 z"
           id="path1868"
           style="fill:#000000" />
        <path
           d="m 165.36867,161.11721 h 0.49064 v 0.49063 h -0.49064 z m 0,0.7449 h 0.49064 v 1.85867 h -0.49064 z"
           id="path1870"
           style="fill:#000000" />
        <path
           d="m 166.8352,163.72973 q -0.24352,0 -0.35812,-0.12355 -0.11281,-0.12534 -0.11281,-0.36887 v -1.91597 h 0.49063 v 1.79421 q 0,0.068 0.0269,0.10565 0.0269,0.0358 0.0788,0.0358 h 0.12176 v 0.47272 z m -0.66253,-1.86762 h 0.90964 v 0.41901 h -0.90964 z"
           id="path1872"
           style="fill:#000000" />
        <path
           d="m 167.43148,163.23015 h 0.49063 v 0.49063 h -0.49063 z"
           id="path1874"
           style="fill:#000000" />
        <path
           d="m 168.31605,161.11721 h 0.49063 v 0.49063 h -0.49063 z m 0,0.7449 h 0.49063 v 1.85867 h -0.49063 z"
           id="path1876"
           style="fill:#000000" />
        <path
           d="m 170.01177,163.74764 q -0.25427,0 -0.43512,-0.0949 -0.17907,-0.0949 -0.27397,-0.27576 -0.0931,-0.18264 -0.0931,-0.4387 v -0.30262 q 0,-0.25248 0.0931,-0.43154 0.0949,-0.18085 0.27397,-0.27397 0.18085,-0.0949 0.43512,-0.0949 0.25427,0 0.43333,0.0949 0.18085,0.0931 0.27396,0.27397 0.0949,0.17906 0.0949,0.43154 v 0.30799 q 0,0.25427 -0.0949,0.43512 -0.0931,0.17906 -0.27396,0.27397 -0.17906,0.0949 -0.43333,0.0949 z m -0.002,-0.47273 q 0.14862,0 0.23099,-0.0859 0.0824,-0.0877 0.0824,-0.24531 v -0.30799 q 0,-0.15578 -0.0824,-0.24173 -0.0824,-0.086 -0.23099,-0.086 -0.14683,0 -0.2292,0.086 -0.0806,0.0859 -0.0806,0.24173 v 0.30799 q 0,0.15757 0.0806,0.24531 0.0806,0.0859 0.2292,0.0859 z"
           id="path1878"
           style="fill:#000000" />
      </g>
    </g>
  </g>
  <metadata
     id="metadata828">
    <rdf:RDF>
      <cc:Work
         rdf:about="">
        <dc:title>Szyld - Surowieckiego10</dc:title>
        <dc:creator>
          <cc:Agent>
            <dc:title>Pawe 'felixd' Wojciechowski</dc:title>
          </cc:Agent>
        </dc:creator>
      </cc:Work>
    </rdf:RDF>
  </metadata>
</svg>
