<?xml version="1.0" encoding="UTF-8" standalone="no"?>
<!-- Created with Inkscape (http://www.inkscape.org/) -->

<svg
   width="320mm"
   height="180mm"
   viewBox="0 0 320 180"
   version="1.1"
   id="svg5"
   inkscape:version="1.1.2 (b8e25be833, 2022-02-05)"
   sodipodi:docname="szyld.svg"
   xmlns:inkscape="http://www.inkscape.org/namespaces/inkscape"
   xmlns:sodipodi="http://sodipodi.sourceforge.net/DTD/sodipodi-0.dtd"
   xmlns="http://www.w3.org/2000/svg"
   xmlns:svg="http://www.w3.org/2000/svg"
   xmlns:rdf="http://www.w3.org/1999/02/22-rdf-syntax-ns#"
   xmlns:cc="http://creativecommons.org/ns#"
   xmlns:dc="http://purl.org/dc/elements/1.1/">
  <title
     id="title830">Szyld - Surowieckiego10</title>
  <sodipodi:namedview
     id="namedview7"
     pagecolor="#ffffff"
     bordercolor="#666666"
     borderopacity="1.0"
     inkscape:pageshadow="2"
     inkscape:pageopacity="0.0"
     inkscape:pagecheckerboard="false"
     inkscape:document-units="cm"
     showgrid="false"
     inkscape:zoom="0.16346636"
     inkscape:cx="617.86413"
     inkscape:cy="630.09906"
     inkscape:window-width="1360"
     inkscape:window-height="705"
     inkscape:window-x="-8"
     inkscape:window-y="-8"
     inkscape:window-maximized="1"
     inkscape:current-layer="layer1"
     units="mm"
     inkscape:lockguides="false"
     showguides="true" />
  <defs
     id="defs2">
    <clipPath
       clipPathUnits="userSpaceOnUse"
       id="clipPath1748">
      <path
         d="M 0,512 H 512 V 0 H 0 Z"
         id="path1746" />
    </clipPath>
    <filter
       style="color-interpolation-filters:sRGB"
       inkscape:label="Drop Shadow"
       id="filter6708"
       x="-0.010038189"
       y="-0.016196448"
       width="1.0253121"
       height="1.0498711">
      <feFlood
         flood-opacity="0.498039"
         flood-color="rgb(0,0,0)"
         result="flood"
         id="feFlood6698" />
      <feComposite
         in="flood"
         in2="SourceGraphic"
         operator="in"
         result="composite1"
         id="feComposite6700" />
      <feGaussianBlur
         in="composite1"
         stdDeviation="1.9"
         result="blur"
         id="feGaussianBlur6702" />
      <feOffset
         dx="2.9"
         dy="6"
         result="offset"
         id="feOffset6704" />
      <feComposite
         in="offset"
         in2="offset"
         operator="atop"
         result="composite2"
         id="feComposite6706" />
    </filter>
  </defs>
  <g
     inkscape:label="Warstwa 1"
     inkscape:groupmode="layer"
     id="layer1">
    <path
       id="line18464"
       style="fill:none;stroke:#000000;stroke-width:0.820608;stroke-linecap:round;stroke-linejoin:round;stroke-miterlimit:10"
       d="m 137.6623,140.70868 v -8.12129" />
    <path
       style="fill:none;stroke:#000000;stroke-width:0.820608;stroke-linecap:round;stroke-linejoin:round;stroke-miterlimit:10"
       d="m 137.6623,130.67264 v -4.86019 c 0,-0.43602 0.17671,-0.83046 0.46228,-1.11658 0.28612,-0.28557 0.68056,-0.46227 1.11657,-0.46227 0.87204,0 1.57885,0.70682 1.57885,1.57885 v 5.38593 4.50897"
       id="path18466" />
    <path
       id="polyline18468"
       style="fill:none;stroke:#000000;stroke-width:0.820608;stroke-linecap:round;stroke-linejoin:round;stroke-miterlimit:10"
       d="m 142.50323,123.42721 v -1.63137 h -1.55062" />
    <path
       id="polyline18470"
       style="fill:none;stroke:#000000;stroke-width:0.820608;stroke-linecap:round;stroke-linejoin:round;stroke-miterlimit:10"
       d="m 140.90589,127.9358 h 1.59734 v -1.63131" />
    <path
       id="polyline18472"
       style="fill:none;stroke:#000000;stroke-width:0.820608;stroke-linecap:round;stroke-linejoin:round;stroke-miterlimit:10"
       d="m 137.52996,121.79584 h -1.55062 v 1.63137" />
    <path
       id="polyline18474"
       style="fill:none;stroke:#000000;stroke-width:0.820608;stroke-linecap:round;stroke-linejoin:round;stroke-miterlimit:10"
       d="m 135.97934,126.30449 v 1.63131 h 1.54264" />
    <path
       style="fill:none;stroke:#000000;stroke-width:0.820608;stroke-linecap:round;stroke-linejoin:round;stroke-miterlimit:10"
       d="m 150.31488,141.45352 c -0.11341,1.06323 -0.45445,2.09293 -1.0036,3.0176 v 0 c -0.68926,1.16061 -1.05066,2.48655 -1.04562,3.83639 v 0.67783"
       id="path18476" />
    <path
       style="fill:none;stroke:#000000;stroke-width:0.820608;stroke-linecap:round;stroke-linejoin:round;stroke-miterlimit:10"
       d="m 137.73714,148.98534 v -1.29427 c 0,-1.40789 -0.52743,-2.76474 -1.4783,-3.80302 v 0 c -0.78554,-0.85776 -1.22128,-1.97866 -1.22128,-3.14179 v -2.8009 c 0,-0.86087 0.40133,-1.67004 1.08096,-2.19113 0.0403,-0.0309 0.0826,-0.0592 0.12544,-0.0864 l 1.16981,-0.74325"
       id="path18478" />
    <path
       style="fill:none;stroke:#000000;stroke-width:0.820608;stroke-linecap:round;stroke-linejoin:round;stroke-miterlimit:10"
       d="m 144.06272,136.74 v -4.50897 c 0,-0.89545 0.72591,-1.6213 1.6213,-1.6213 v 0 c 0.24908,0 0.48504,0.0562 0.69588,0.15651"
       id="path18480" />
    <path
       style="fill:none;stroke:#000000;stroke-width:0.820608;stroke-linecap:round;stroke-linejoin:round;stroke-miterlimit:10"
       d="m 140.82006,131.19821 c 0,-0.89545 0.72591,-1.6213 1.6213,-1.6213 v 0 c 0.89545,0 1.6213,0.72591 1.6213,1.6213 v 1.03282"
       id="path18482" />
    <path
       style="fill:none;stroke:#000000;stroke-width:0.820608;stroke-linecap:round;stroke-linejoin:round;stroke-miterlimit:10"
       d="m 146.46852,139.59758 v 1.12915 c 0,0.31895 0.25877,0.57771 0.57771,0.57771 h 7.8587"
       id="path18484" />
    <path
       style="fill:none;stroke:#000000;stroke-width:0.820608;stroke-linecap:round;stroke-linejoin:round;stroke-miterlimit:10"
       d="m 146.46852,137.68282 v -11.15699 c 0,-0.31894 0.25877,-0.57771 0.57771,-0.57771 h 12.64613 c 0.31894,0 0.5777,0.25877 0.5777,0.57771 v 1.13627"
       id="path18486" />
    <path
       style="fill:none;stroke:#000000;stroke-width:0.820608;stroke-linecap:round;stroke-linejoin:round;stroke-miterlimit:10"
       d="m 160.27006,129.57685 v 11.14988 c 0,0.31895 -0.25876,0.57771 -0.5777,0.57771 h -2.87268"
       id="path18488" />
    <path
       style="fill:none;stroke:#000000;stroke-width:0.820608;stroke-linecap:round;stroke-linejoin:round;stroke-miterlimit:10"
       d="m 148.91044,137.84071 c 1.33223,1.33223 3.48594,1.33464 4.81522,0.005 1.28786,-1.28786 1.32577,-3.34956 0.11532,-4.68835"
       id="path18490" />
    <path
       style="fill:none;stroke:#000000;stroke-width:0.820608;stroke-linecap:round;stroke-linejoin:round;stroke-miterlimit:10"
       d="m 157.54707,138.20189 c 1.10481,-2.49733 0.63033,-5.52396 -1.42179,-7.57603 -1.33223,-1.33223 -3.48594,-1.33463 -4.81522,-0.005 -1.32928,1.32928 -1.32692,3.48299 0.005,4.81522"
       id="path18492" />
    <path
       style="fill:none;stroke:#000000;stroke-width:0.820608;stroke-linecap:round;stroke-linejoin:round;stroke-miterlimit:10"
       d="m 156.3934,136.00643 c -0.12205,1.11236 -0.60949,2.19174 -1.46254,3.04479 -0.0978,0.0978 -0.19864,0.19087 -0.30215,0.27906"
       id="path18494" />
    <path
       style="fill:none;stroke:#000000;stroke-width:0.820608;stroke-linecap:round;stroke-linejoin:round;stroke-miterlimit:10"
       d="m 157.3278,129.42335 c -1.9984,-1.99841 -5.22892,-2.00196 -7.22289,-0.008 -1.99397,1.99397 -1.99035,5.22448 0.008,7.22288 0.66612,0.66612 1.74297,0.66732 2.40761,0.003 0.66464,-0.66463 0.66344,-1.74149 -0.003,-2.40761 -0.66611,-0.66611 -0.66732,-1.74297 -0.003,-2.40761 0.66464,-0.66463 1.7415,-0.66343 2.40761,0.003 0.60944,0.60944 1.03331,1.33344 1.27167,2.10202"
       id="path18496" />
    <path
       d="m 25.11735,108.69629 h 3.20929 q 0.45551,0 0.80059,-0.21395 0.34509,-0.21395 0.53143,-0.60735 0.19325,-0.39339 0.19325,-0.90412 v 0 q 0,-0.51762 -0.19325,-0.91102 -0.18634,-0.3934 -0.53143,-0.60735 -0.34508,-0.22085 -0.80059,-0.22085 h -3.20929 v -1.33893 h 3.16097 q 0.89722,0 1.58049,0.3865 0.68327,0.37959 1.05596,1.07666 0.37959,0.69707 0.37959,1.61499 v 0 q 0,0.91793 -0.37959,1.615 -0.37269,0.69016 -1.05596,1.06976 -0.68327,0.37959 -1.58049,0.37959 h -3.16097 z m -0.72467,-4.80357 h 1.40794 v 10.03505 h -1.40794 z"
       id="path12652"
       style="font-size:14.0315px;font-family:Bahnschrift;-inkscape-font-specification:'Bahnschrift, Normal';text-align:center;text-anchor:middle;stroke-width:0.214127" />
    <path
       d="m 35.18001,114.03129 q -0.93173,0 -1.59429,-0.36578 -0.66256,-0.36579 -1.01455,-1.06286 -0.34508,-0.70398 -0.34508,-1.69092 v -1.16638 q 0,-0.97314 0.34508,-1.66331 0.35199,-0.69707 1.01455,-1.05595 0.66256,-0.36579 1.59429,-0.36579 0.93172,0 1.59429,0.36579 0.66256,0.35888 1.00764,1.05595 0.35199,0.69017 0.35199,1.66331 v 1.18709 q 0,0.98004 -0.35199,1.67711 -0.34508,0.69017 -1.00764,1.05596 -0.66257,0.36578 -1.59429,0.36578 z m 0,-1.33892 q 0.73848,0 1.13878,-0.46241 0.40719,-0.46242 0.40719,-1.29752 v -1.18709 q 0,-0.8351 -0.40719,-1.29061 -0.4003,-0.45552 -1.13878,-0.45552 -0.73848,0 -1.14568,0.45552 -0.4003,0.45551 -0.4003,1.29061 v 1.18709 q 0,0.8351 0.4003,1.29752 0.4072,0.46241 1.14568,0.46241 z"
       id="path12654"
       style="font-size:14.0315px;font-family:Bahnschrift;-inkscape-font-specification:'Bahnschrift, Normal';text-align:center;text-anchor:middle;stroke-width:0.214127" />
    <path
       d="m 44.20741,103.89272 h 1.40794 v 10.03505 H 44.20741 Z M 42.40607,114.052 q -0.78679,0 -1.34583,-0.33818 -0.55213,-0.34509 -0.842,-1.00075 -0.28987,-0.65566 -0.28987,-1.57358 V 109.559 q 0,-0.92482 0.28296,-1.58048 0.28297,-0.65566 0.82131,-0.99384 0.54523,-0.34509 1.30441,-0.34509 0.63496,0 1.15949,0.33128 0.53143,0.33128 0.8558,0.93173 l -0.14493,1.46316 q 0,-0.45551 -0.16564,-0.77989 -0.16564,-0.32438 -0.48312,-0.49002 -0.31057,-0.17255 -0.75918,-0.17255 -0.69707,0 -1.08357,0.43481 -0.37959,0.43481 -0.37959,1.2216 v 1.55978 q 0,0.77989 0.37959,1.20779 0.3865,0.42101 1.08357,0.42101 0.44861,0 0.75918,-0.17255 0.31748,-0.17944 0.48312,-0.51072 0.16564,-0.33128 0.16564,-0.79369 l 0.0966,1.51146 q -0.21395,0.53143 -0.70397,0.89032 -0.48312,0.35889 -1.19399,0.35889 z"
       id="path12656"
       style="font-size:14.0315px;font-family:Bahnschrift;-inkscape-font-specification:'Bahnschrift, Normal';text-align:center;text-anchor:middle;stroke-width:0.214127" />
    <path
       d="m 47.75487,106.76382 h 1.40795 v 10.07646 h -1.40795 z m 3.20929,7.26747 q -0.66947,0 -1.16639,-0.31747 -0.49692,-0.32438 -0.73158,-0.91103 l 0.0966,-1.49766 q 0,0.46241 0.16564,0.78679 0.16564,0.32438 0.47622,0.49692 0.31747,0.17254 0.76608,0.17254 0.69707,0 1.07667,-0.421 0.38649,-0.4279 0.38649,-1.20089 v -1.55288 q 0,-0.78679 -0.38649,-1.2216 -0.3796,-0.4348 -1.07667,-0.4348 -0.44861,0 -0.76608,0.16564 -0.31058,0.16564 -0.47622,0.49002 -0.16564,0.31747 -0.16564,0.76608 l -0.14494,-1.38033 q 0.32438,-0.62806 0.84891,-0.96624 0.52453,-0.34508 1.16639,-0.34508 0.75918,0 1.29751,0.34508 0.54524,0.33818 0.8282,0.99384 0.28297,0.65566 0.28297,1.58049 v 1.55978 q 0,0.91102 -0.28987,1.55978 -0.28987,0.64876 -0.84891,0.99384 -0.55903,0.33818 -1.33892,0.33818 z"
       id="path12658"
       style="font-size:14.0315px;font-family:Bahnschrift;-inkscape-font-specification:'Bahnschrift, Normal';text-align:center;text-anchor:middle;stroke-width:0.214127" />
    <path
       d="m 55.44335,103.89272 h 1.40794 v 1.40795 h -1.40794 z m 0,2.8711 h 1.40794 v 7.16395 h -1.40794 z"
       id="path12660"
       style="font-size:14.0315px;font-family:Bahnschrift;-inkscape-font-specification:'Bahnschrift, Normal';text-align:center;text-anchor:middle;stroke-width:0.214127" />
    <path
       d="m 61.52373,114.03129 q -0.63495,0 -1.19399,-0.12423 -0.55213,-0.12423 -1.03525,-0.37269 -0.48312,-0.24846 -0.89032,-0.62115 v 0 l 0.8351,-1.02835 v 0 q 0.57975,0.44171 1.15259,0.66256 0.57283,0.22086 1.13187,0.22086 0.83511,0 1.24921,-0.25537 0.421,-0.26226 0.421,-0.77989 0,-0.34508 -0.22776,-0.51762 -0.22775,-0.17254 -0.56593,-0.22776 -0.33819,-0.0621 -0.95244,-0.11042 -0.0552,0 -0.11733,0 -0.0621,-0.007 -0.11732,-0.0138 -0.0276,0 -0.0552,0 -0.0276,-0.007 -0.0552,-0.007 -0.69707,-0.0552 -1.18019,-0.20014 -0.48312,-0.15184 -0.8075,-0.55904 -0.31747,-0.4072 -0.31747,-1.16639 0,-0.75918 0.31057,-1.263 0.31058,-0.50383 0.92483,-0.75229 0.61425,-0.25536 1.53907,-0.25536 0.55904,0 1.06286,0.10353 0.51073,0.10352 0.97314,0.31057 0.46241,0.20015 0.89032,0.51073 v 0 l -0.84891,1.02835 v 0 q -0.53833,-0.34509 -1.06286,-0.51763 -0.51763,-0.17254 -1.01455,-0.17254 -0.71777,0 -1.07666,0.24846 -0.35889,0.24156 -0.35889,0.73158 0,0.28987 0.20015,0.4348 0.20705,0.14494 0.51763,0.19325 0.31058,0.0483 0.88341,0.0828 0.0414,0.007 0.0828,0.007 0.0483,0 0.0966,0.007 0.0207,0 0.0414,0 0.0207,0 0.0414,0.007 0.75228,0.0483 1.27681,0.20015 0.53143,0.15183 0.89032,0.60044 0.35888,0.44861 0.35888,1.29752 0,0.77299 -0.33128,1.28371 -0.33128,0.50382 -1.00074,0.75919 -0.66256,0.25536 -1.67021,0.25536 z"
       id="path12662"
       style="font-size:14.0315px;font-family:Bahnschrift;-inkscape-font-specification:'Bahnschrift, Normal';text-align:center;text-anchor:middle;stroke-width:0.214127" />
    <path
       d="m 71.69681,106.76382 -3.05054,8.84106 q -0.16564,0.49002 -0.43481,0.77299 -0.26916,0.28987 -0.66256,0.4141 -0.3934,0.12423 -0.96624,0.12423 H 66.2997 v -1.35273 h 0.28296 q 0.3934,0 0.62116,-0.15874 0.23465,-0.15874 0.4072,-0.54523 l 2.65024,-8.09568 z m -6.34264,0 h 1.43555 l 2.20163,6.22532 -0.77989,1.52527 z"
       id="path12664"
       style="font-size:14.0315px;font-family:Bahnschrift;-inkscape-font-specification:'Bahnschrift, Normal';text-align:center;text-anchor:middle;stroke-width:0.214127" />
    <path
       d="m 79.66825,114.03129 q -0.99384,0 -1.69781,-0.37269 -0.70397,-0.37269 -1.07666,-1.09046 -0.36579,-0.72468 -0.36579,-1.74613 v -0.8075 q 0,-1.06285 0.35199,-1.81514 0.35888,-0.75228 1.03525,-1.14568 0.67636,-0.39339 1.62879,-0.39339 0.89722,0 1.53218,0.44861 0.63495,0.44861 0.96623,1.29751 0.33819,0.84891 0.33819,2.036 v 0.46931 h -4.83118 v -1.13187 h 3.49225 v 0 q -0.0621,-0.87652 -0.45551,-1.35963 -0.3865,-0.49002 -1.04216,-0.49002 -0.80059,0 -1.2423,0.52453 -0.4348,0.52452 -0.4348,1.48386 v 0.91102 q 0,0.89032 0.46931,1.36653 0.46931,0.47622 1.33202,0.47622 0.42791,0 0.84891,-0.17254 0.42101,-0.17255 0.75229,-0.48312 v 0 l 0.92482,0.92482 v 0 q -0.53143,0.51073 -1.19399,0.7937 -0.66256,0.27606 -1.33203,0.27606 z"
       id="path12666"
       style="font-size:14.0315px;font-family:Bahnschrift;-inkscape-font-specification:'Bahnschrift, Normal';text-align:center;text-anchor:middle;stroke-width:0.214127" />
    <path
       d="m 85.72103,112.07812 q 0,0.26226 0.11043,0.4072 0.11733,0.13803 0.32438,0.13803 h 0.66256 v 1.33893 h -0.8282 q -0.8006,0 -1.24231,-0.49692 -0.4348,-0.49692 -0.4348,-1.40105 v -8.17159 h 1.40794 z"
       id="path12668"
       style="font-size:14.0315px;font-family:Bahnschrift;-inkscape-font-specification:'Bahnschrift, Normal';text-align:center;text-anchor:middle;stroke-width:0.214127" />
    <path
       d="m 91.339,114.03129 q -0.99384,0 -1.69781,-0.37269 -0.70398,-0.37269 -1.07667,-1.09046 -0.36579,-0.72468 -0.36579,-1.74613 v -0.8075 q 0,-1.06285 0.35199,-1.81514 0.35889,-0.75228 1.03525,-1.14568 0.67637,-0.39339 1.6288,-0.39339 0.89722,0 1.53217,0.44861 0.63496,0.44861 0.96624,1.29751 0.33818,0.84891 0.33818,2.036 v 0.46931 h -4.83118 v -1.13187 h 3.49226 v 0 q -0.0621,-0.87652 -0.45552,-1.35963 -0.38649,-0.49002 -1.04215,-0.49002 -0.8006,0 -1.2423,0.52453 -0.43481,0.52452 -0.43481,1.48386 v 0.91102 q 0,0.89032 0.46932,1.36653 0.46931,0.47622 1.33202,0.47622 0.42791,0 0.84891,-0.17254 0.421,-0.17255 0.75228,-0.48312 v 0 l 0.92483,0.92482 v 0 q -0.53143,0.51073 -1.19399,0.7937 -0.66257,0.27606 -1.33203,0.27606 z"
       id="path12670"
       style="font-size:14.0315px;font-family:Bahnschrift;-inkscape-font-specification:'Bahnschrift, Normal';text-align:center;text-anchor:middle;stroke-width:0.214127" />
    <path
       d="m 96.59118,111.20851 3.6855,-4.44469 h 1.6564 l -5.43162,6.11489 z m -0.60735,-7.31579 h 1.40795 v 10.03505 h -1.40795 z m 2.27066,5.90094 0.90412,-0.93863 3.12646,5.07274 h -1.53217 z"
       id="path12672"
       style="font-size:14.0315px;font-family:Bahnschrift;-inkscape-font-specification:'Bahnschrift, Normal';text-align:center;text-anchor:middle;stroke-width:0.214127" />
    <path
       d="m 105.32182,113.96228 q -0.86962,0 -1.27682,-0.47622 -0.40029,-0.48312 -0.40029,-1.42175 v -7.3848 h 1.40794 v 7.39861 q 0,0.26226 0.10352,0.4072 0.10353,0.13803 0.30368,0.13803 h 0.67636 v 1.33893 z m -2.41559,-7.19846 h 3.22998 v 1.26991 h -3.22998 z"
       id="path12674"
       style="font-size:14.0315px;font-family:Bahnschrift;-inkscape-font-specification:'Bahnschrift, Normal';text-align:center;text-anchor:middle;stroke-width:0.214127" />
    <path
       d="m 108.06868,106.76382 h 1.40794 v 7.16395 h -1.40794 z m 3.94086,1.69782 q -0.18634,-0.22776 -0.46931,-0.34509 -0.28297,-0.11733 -0.65566,-0.11733 -0.66947,0 -1.04216,0.37269 -0.36579,0.36579 -0.36579,1.02145 l -0.14493,-1.38033 q 0.33128,-0.64186 0.85581,-0.99385 0.52452,-0.35888 1.15948,-0.35888 0.49002,0 0.88342,0.14493 0.40029,0.13804 0.69706,0.4141 z"
       id="path12676"
       style="font-size:14.0315px;font-family:Bahnschrift;-inkscape-font-specification:'Bahnschrift, Normal';text-align:center;text-anchor:middle;stroke-width:0.214127" />
    <path
       d="m 116.70959,114.03129 q -0.93172,0 -1.59429,-0.36578 -0.66256,-0.36579 -1.01454,-1.06286 -0.34509,-0.70398 -0.34509,-1.69092 v -1.16638 q 0,-0.97314 0.34509,-1.66331 0.35198,-0.69707 1.01454,-1.05595 0.66257,-0.36579 1.59429,-0.36579 0.93172,0 1.59429,0.36579 0.66256,0.35888 1.00764,1.05595 0.35199,0.69017 0.35199,1.66331 v 1.18709 q 0,0.98004 -0.35199,1.67711 -0.34508,0.69017 -1.00764,1.05596 -0.66257,0.36578 -1.59429,0.36578 z m 0,-1.33892 q 0.73848,0 1.13877,-0.46241 0.40721,-0.46242 0.40721,-1.29752 v -1.18709 q 0,-0.8351 -0.40721,-1.29061 -0.40029,-0.45552 -1.13877,-0.45552 -0.73848,0 -1.14568,0.45552 -0.4003,0.45551 -0.4003,1.29061 v 1.18709 q 0,0.8351 0.4003,1.29752 0.4072,0.46241 1.14568,0.46241 z"
       id="path12678"
       style="font-size:14.0315px;font-family:Bahnschrift;-inkscape-font-specification:'Bahnschrift, Normal';text-align:center;text-anchor:middle;stroke-width:0.214127" />
    <path
       d="m 121.665,106.76382 h 1.40794 v 7.16395 H 121.665 Z m 4.34806,2.82279 q 0,-0.75918 -0.39339,-1.17329 -0.39341,-0.4141 -1.10427,-0.4141 -0.69017,0 -1.06977,0.36579 -0.37269,0.36579 -0.37269,1.02835 l -0.14494,-1.38033 q 0.33129,-0.64876 0.86272,-1.00075 0.53833,-0.35198 1.18709,-0.35198 1.16638,0 1.80134,0.76608 0.64185,0.75919 0.64185,2.15333 v 4.34806 h -1.40794 z"
       id="path12680"
       style="font-size:14.0315px;font-family:Bahnschrift;-inkscape-font-specification:'Bahnschrift, Normal';text-align:center;text-anchor:middle;stroke-width:0.214127" />
    <path
       d="m 129.56052,103.89272 h 1.40795 v 1.40795 h -1.40795 z m 0,2.8711 h 1.40795 v 7.16395 h -1.40795 z"
       id="path12682"
       style="font-size:14.0315px;font-family:Bahnschrift;-inkscape-font-specification:'Bahnschrift, Normal';text-align:center;text-anchor:middle;stroke-width:0.214127" />
    <path
       d="m 135.99979,114.03129 q -0.98004,0 -1.6771,-0.36578 -0.69018,-0.36579 -1.05596,-1.06286 -0.36579,-0.69707 -0.36579,-1.68401 v -1.18019 q 0,-0.97314 0.36579,-1.66331 0.36578,-0.69017 1.05596,-1.04905 0.69706,-0.36579 1.6771,-0.36579 0.55903,0 1.04906,0.13803 0.49692,0.13113 0.89032,0.38649 0.39339,0.25537 0.65565,0.62116 v 0 l -1.01454,0.91102 v 0 q -0.30368,-0.34509 -0.71088,-0.53143 -0.40719,-0.18635 -0.84891,-0.18635 -0.81439,0 -1.263,0.45552 -0.44862,0.45551 -0.44862,1.28371 v 1.18019 q 0,0.8489 0.44172,1.31132 0.4486,0.46241 1.2699,0.46241 0.44862,0 0.85581,-0.20015 0.4072,-0.20015 0.70398,-0.56594 v 0 l 1.01454,0.98004 v 0 q -0.26916,0.35889 -0.66255,0.61425 -0.3934,0.24846 -0.89032,0.37959 -0.49003,0.13113 -1.04216,0.13113 z"
       id="path12684"
       style="font-size:14.0315px;font-family:Bahnschrift;-inkscape-font-specification:'Bahnschrift, Normal';text-align:center;text-anchor:middle;stroke-width:0.214127" />
    <path
       d="m 145.08931,107.95091 -3.44394,4.67244 h 3.63028 v 1.30442 h -5.33499 v -1.2147 l 3.53366,-4.64483 h -3.43704 v -1.30442 h 5.05203 z"
       id="path12686"
       style="font-size:14.0315px;font-family:Bahnschrift;-inkscape-font-specification:'Bahnschrift, Normal';text-align:center;text-anchor:middle;stroke-width:0.214127" />
    <path
       d="m 147.13911,106.76382 h 1.40795 v 7.16395 h -1.40795 z m 4.34806,2.82279 q 0,-0.75918 -0.3934,-1.17329 -0.39339,-0.4141 -1.10427,-0.4141 -0.69016,0 -1.06975,0.36579 -0.37269,0.36579 -0.37269,1.02835 l -0.14494,-1.38033 q 0.33128,-0.64876 0.8627,-1.00075 0.53834,-0.35198 1.1871,-0.35198 1.16638,0 1.80134,0.76608 0.64186,0.75919 0.64186,2.15333 v 4.34806 h -1.40795 z"
       id="path12688"
       style="font-size:14.0315px;font-family:Bahnschrift;-inkscape-font-specification:'Bahnschrift, Normal';text-align:center;text-anchor:middle;stroke-width:0.214127" />
    <path
       d="m 157.96785,114.03129 q -0.99384,0 -1.6978,-0.37269 -0.70398,-0.37269 -1.07667,-1.09046 -0.36579,-0.72468 -0.36579,-1.74613 v -0.8075 q 0,-1.06285 0.35199,-1.81514 0.35889,-0.75228 1.03525,-1.14568 0.67637,-0.39339 1.6288,-0.39339 0.89722,0 1.53217,0.44861 0.63495,0.44861 0.96624,1.29751 0.33818,0.84891 0.33818,2.036 v 0.46931 h -4.83118 v -1.13187 h 3.49225 v 0 q -0.0622,-0.87652 -0.45551,-1.35963 -0.3865,-0.49002 -1.04215,-0.49002 -0.80059,0 -1.24231,0.52453 -0.4348,0.52452 -0.4348,1.48386 v 0.91102 q 0,0.89032 0.46931,1.36653 0.46932,0.47622 1.33202,0.47622 0.42791,0 0.84891,-0.17254 0.421,-0.17255 0.75229,-0.48312 v 0 l 0.92482,0.92482 v 0 q -0.53143,0.51073 -1.19398,0.7937 -0.66257,0.27606 -1.33204,0.27606 z"
       id="path12690"
       style="font-size:14.0315px;font-family:Bahnschrift;-inkscape-font-specification:'Bahnschrift, Normal';text-align:center;text-anchor:middle;stroke-width:0.214127" />
    <path
       d="m 33.29104,127.59664 h 4.07612 v 15.4982 h -4.07612 z m -4.80773,9.42135 q 0,1.11981 0.6271,1.74691 0.64202,0.61216 1.7917,0.61216 1.14967,0 1.76183,-0.62709 0.6271,-0.64203 0.6271,-1.82156 l 0.20903,3.3893 q -0.43299,1.26912 -1.44829,2.1351 -1.00037,0.86599 -2.44866,0.86599 -2.49345,0 -3.85215,-1.5976 -1.35871,-1.61253 -1.35871,-4.5539 v -9.57066 h 4.09105 z"
       style="font-weight:bold;font-size:30.3552px;font-family:Bahnschrift;-inkscape-font-specification:'Bahnschrift Bold';text-align:center;text-anchor:middle;stroke-width:0.46323"
       id="path12693" />
    <path
       d="m 47.32602,143.3188 q -1.38857,0 -2.70248,-0.23889 -1.31391,-0.25382 -2.46359,-0.73161 -1.14967,-0.47779 -2.03059,-1.14968 v 0 l 2.52331,-3.1504 v 0 q 1.11981,0.71668 2.34414,1.10488 1.22433,0.3882 2.32921,0.3882 1.43336,0 2.2247,-0.31355 0.79133,-0.32847 0.79133,-0.89585 0,-0.52257 -0.34341,-0.79133 -0.34341,-0.26875 -0.88092,-0.37327 -0.53751,-0.11945 -1.50801,-0.20903 -0.26876,-0.0299 -0.55244,-0.0597 -0.26876,-0.0299 -0.55244,-0.0597 -0.0597,-0.0149 -0.13438,-0.0149 -0.0597,-0.0149 -0.11945,-0.0149 -1.73197,-0.22396 -2.77713,-0.55244 -1.04516,-0.32848 -1.77677,-1.25419 -0.71668,-0.94064 -0.71668,-2.71741 0,-1.55281 0.74654,-2.65769 0.74654,-1.10488 2.16497,-1.67225 1.41843,-0.58231 3.43409,-0.58231 1.17954,0 2.34414,0.2389 1.17954,0.23889 2.25456,0.68681 1.07502,0.44793 1.9858,1.07502 v 0 l -2.43373,2.97124 v 0 q -1.01529,-0.56737 -2.12017,-0.88092 -1.10489,-0.31355 -2.12018,-0.31355 -1.23926,0 -1.92608,0.28369 -0.68682,0.28369 -0.68682,0.79133 0,0.3882 0.35834,0.61217 0.37327,0.20903 0.91078,0.31355 0.55244,0.0896 1.5976,0.20903 0.13438,0.0149 0.26876,0.0298 0.13437,0.0149 0.26875,0.0299 0.0597,0.0149 0.13438,0.0149 0.0746,0 0.13438,0.0149 1.80663,0.20903 2.94137,0.53751 1.13474,0.32848 1.92608,1.31391 0.80626,0.98544 0.80626,2.89659 0,1.61253 -0.7764,2.7622 -0.7764,1.14967 -2.26949,1.76184 -1.49308,0.59723 -3.59833,0.59723 z"
       style="font-weight:bold;font-size:30.3552px;font-family:Bahnschrift;-inkscape-font-specification:'Bahnschrift Bold';text-align:center;text-anchor:middle;stroke-width:0.46323"
       id="path12695" />
    <path
       d="m 61.58497,143.16949 q -2.0306,0 -2.98617,-1.03022 -0.94064,-1.04516 -0.94064,-3.07575 v -15.97599 h 4.09105 v 14.96069 q 0,0.56737 0.22396,0.88092 0.22396,0.29861 0.65695,0.29861 h 1.0153 v 3.94174 z m -5.52441,-15.57285 h 7.58486 v 3.49381 h -7.58486 z"
       style="font-weight:bold;font-size:30.3552px;font-family:Bahnschrift;-inkscape-font-specification:'Bahnschrift Bold';text-align:center;text-anchor:middle;stroke-width:0.46323"
       id="path12697" />
    <path
       d="m 75.75433,133.27035 q 0,-1.07502 -0.71668,-1.65732 -0.71668,-0.5823 -2.0306,-0.5823 -0.86599,0 -1.71704,0.28368 -0.85106,0.28369 -1.50802,0.79134 l -2.53824,-2.49345 q 0.92571,-1.06009 2.44866,-1.64239 1.52294,-0.59724 3.37437,-0.59724 2.03059,0 3.46395,0.68682 1.43336,0.67189 2.1799,1.97087 0.76147,1.28405 0.76147,3.10562 v 9.95886 h -3.71777 z m -4.31501,10.04845 q -2.49345,0 -3.73271,-1.17953 -1.22433,-1.19447 -1.22433,-3.61326 0,-2.29935 1.37364,-3.44903 1.38856,-1.14967 4.15077,-1.14967 h 3.88201 l 0.20904,3.12054 h -4.07612 q -0.92571,0 -1.38857,0.37327 -0.46285,0.35834 -0.46285,1.10489 0,0.76147 0.5823,1.13474 0.5823,0.35834 1.76184,0.35834 1.64239,0 2.43372,-0.37327 0.80627,-0.37327 0.80627,-1.16461 l 0.31354,2.25456 q -0.0896,0.83613 -0.7764,1.41843 -0.67189,0.5823 -1.70211,0.88092 -1.0153,0.28368 -2.15004,0.28368 z"
       style="font-weight:bold;font-size:30.3552px;font-family:Bahnschrift;-inkscape-font-specification:'Bahnschrift Bold';text-align:center;text-anchor:middle;stroke-width:0.46323"
       id="path12699" />
    <path
       d="m 87.59447,137.97356 q 0,0.56738 0.31355,0.88092 0.32848,0.29862 0.92571,0.29862 h 0.68682 v 3.94174 h -2.09032 q -1.86635,0 -2.89658,-1.07502 -1.03022,-1.07502 -1.03022,-3.03096 v -17.60345 h 4.09104 z"
       style="font-weight:bold;font-size:30.3552px;font-family:Bahnschrift;-inkscape-font-specification:'Bahnschrift Bold';text-align:center;text-anchor:middle;stroke-width:0.46323"
       id="path12701" />
    <path
       d="m 91.68553,139.00379 h 4.09104 v 4.09105 h -4.09104 z"
       style="font-weight:bold;font-size:30.3552px;font-family:Bahnschrift;-inkscape-font-specification:'Bahnschrift Bold';text-align:center;text-anchor:middle;stroke-width:0.46323"
       id="path12703" />
    <path
       d="m 99.28532,127.59664 h 4.09105 v 21.79901 h -4.09105 z m 7.68938,15.72216 q -1.35871,0 -2.34414,-0.68682 -0.98544,-0.70174 -1.46322,-1.97087 l 0.20903,-3.5386 q 0,0.76147 0.26875,1.29898 0.26876,0.53751 0.7764,0.8212 0.52258,0.28368 1.2542,0.28368 1.14967,0 1.77676,-0.76147 0.64203,-0.76147 0.64203,-2.15004 v -2.46359 q 0,-1.41843 -0.64203,-2.19483 -0.62709,-0.79133 -1.77676,-0.79133 -0.73162,0 -1.2542,0.29861 -0.50764,0.28369 -0.7764,0.83613 -0.26875,0.55244 -0.26875,1.34377 l -0.31355,-3.43409 q 0.62709,-1.3587 1.64239,-2.09031 1.03023,-0.74655 2.26949,-0.74655 1.64239,0 2.80699,0.79134 1.17954,0.79133 1.7917,2.31428 0.61217,1.52294 0.61217,3.65805 v 2.47852 q 0,2.12018 -0.61217,3.62819 -0.61216,1.49308 -1.7917,2.28442 -1.1646,0.79133 -2.80699,0.79133 z"
       style="font-weight:bold;font-size:30.3552px;font-family:Bahnschrift;-inkscape-font-specification:'Bahnschrift Bold';text-align:center;text-anchor:middle;stroke-width:0.46323"
       id="path12705" />
    <path
       d="m 120.00931,137.97356 q 0,0.56738 0.31355,0.88092 0.32848,0.29862 0.92571,0.29862 h 0.68682 v 3.94174 h -2.09031 q -1.86636,0 -2.89659,-1.07502 -1.03023,-1.07502 -1.03023,-3.03096 v -17.60345 h 4.09105 z"
       style="font-weight:bold;font-size:30.3552px;font-family:Bahnschrift;-inkscape-font-specification:'Bahnschrift Bold';text-align:center;text-anchor:middle;stroke-width:0.46323"
       id="path12707" />
    <path
       d="m 36.569095,73.218765 h -3.581917 v -0.895478 h 0.895479 v -6.268354 h -0.895479 v -0.895479 h 3.581917 v 0.895479 h -0.895478 v 6.268354 h 0.895478 z"
       style="font-size:4.53949px;line-height:1.25;font-family:'Fixedsys Excelsior';-inkscape-font-specification:'Fixedsys Excelsior, Normal';text-align:center;letter-spacing:0px;word-spacing:0px;text-anchor:middle;fill:#000000;stroke-width:0.358955"
       id="path9014" />
    <path
       d="m 45.523859,73.218765 h -1.79096 V 67.845891 H 42.83742 v 4.477396 h -0.895479 v -4.477396 h -0.895478 v 5.372874 h -1.790957 v -6.268353 h 5.372871 v 0.895479 h 0.895482 z"
       style="font-size:4.53949px;line-height:1.25;font-family:'Fixedsys Excelsior';-inkscape-font-specification:'Fixedsys Excelsior, Normal';text-align:center;letter-spacing:0px;word-spacing:0px;text-anchor:middle;fill:#000000;stroke-width:0.358955"
       id="path9016" />
    <path
       d="m 52.687662,73.218765 h -1.790957 v -5.372874 h -0.895479 v 4.477396 h -0.895478 v -4.477396 h -0.895482 v 5.372874 h -1.790957 v -6.268353 h 5.372874 v 0.895479 h 0.895479 z"
       style="font-size:4.53949px;line-height:1.25;font-family:'Fixedsys Excelsior';-inkscape-font-specification:'Fixedsys Excelsior, Normal';text-align:center;letter-spacing:0px;word-spacing:0px;text-anchor:middle;fill:#000000;stroke-width:0.358955"
       id="path9018" />
    <path
       d="m 58.95599,70.532329 h -3.581918 v 1.790958 h 2.686439 v 0.895478 h -3.581917 v -0.895478 h -0.895479 v -4.477396 h 0.895479 v -0.895479 h 3.581917 v 0.895479 h 0.895479 z m -1.79096,-0.895481 v -1.790957 h -1.790958 v 1.790957 z"
       style="font-size:4.53949px;line-height:1.25;font-family:'Fixedsys Excelsior';-inkscape-font-specification:'Fixedsys Excelsior, Normal';text-align:center;letter-spacing:0px;word-spacing:0px;text-anchor:middle;fill:#000000;stroke-width:0.358955"
       id="path9020" />
    <path
       d="m 66.119793,68.741369 h -2.686436 v 0.895479 h -0.895481 v 3.581917 h -1.790958 v -6.268353 h 1.790958 v 1.790957 h 0.895481 v -0.895478 h 0.895479 v -0.895479 h 1.790957 z"
       style="font-size:4.53949px;line-height:1.25;font-family:'Fixedsys Excelsior';-inkscape-font-specification:'Fixedsys Excelsior, Normal';text-align:center;letter-spacing:0px;word-spacing:0px;text-anchor:middle;fill:#000000;stroke-width:0.358955"
       id="path9022" />
    <path
       d="m 73.283596,72.323287 h -0.895478 v 0.895478 h -4.477396 v -0.895478 h 3.581917 v -1.790958 h -2.686436 v -0.895481 h -0.895481 v -1.790957 h 0.895481 v -0.895479 h 4.477393 v 0.895479 h -3.581914 v 1.790957 h 2.686436 v 0.895481 h 0.895478 z"
       style="font-size:4.53949px;line-height:1.25;font-family:'Fixedsys Excelsior';-inkscape-font-specification:'Fixedsys Excelsior, Normal';text-align:center;letter-spacing:0px;word-spacing:0px;text-anchor:middle;fill:#000000;stroke-width:0.358955"
       id="path9024" />
    <path
       d="m 78.656445,66.054933 h -1.790957 v -1.790958 h 1.790957 z m 1.790961,7.163832 h -5.372875 v -0.895478 h 1.790957 v -4.477396 h -1.790957 v -0.895479 h 3.581914 v 5.372875 h 1.790961 z"
       style="font-size:4.53949px;line-height:1.25;font-family:'Fixedsys Excelsior';-inkscape-font-specification:'Fixedsys Excelsior, Normal';text-align:center;letter-spacing:0px;word-spacing:0px;text-anchor:middle;fill:#000000;stroke-width:0.358955"
       id="path9026" />
    <path
       d="M 87.611209,72.323287 H 86.71573 v 0.895478 h -3.581917 v -0.895478 h -0.895479 v -4.477396 h 0.895479 v -0.895479 h 3.581917 v 0.895479 h 0.895479 z m -1.790957,0 v -4.477396 h -1.790961 v 4.477396 z"
       style="font-size:4.53949px;line-height:1.25;font-family:'Fixedsys Excelsior';-inkscape-font-specification:'Fixedsys Excelsior, Normal';text-align:center;letter-spacing:0px;word-spacing:0px;text-anchor:middle;fill:#000000;stroke-width:0.358955"
       id="path9028" />
    <path
       d="m 94.775012,73.218765 h -1.790957 v -5.372874 h -1.790957 v 5.372874 h -1.79096 v -6.268353 h 4.477395 v 0.895479 h 0.895479 z"
       style="font-size:4.53949px;line-height:1.25;font-family:'Fixedsys Excelsior';-inkscape-font-specification:'Fixedsys Excelsior, Normal';text-align:center;letter-spacing:0px;word-spacing:0px;text-anchor:middle;fill:#000000;stroke-width:0.358955"
       id="path9030" />
    <path
       d="m 109.10262,72.323287 h -0.89548 v 0.895478 h -3.58191 v -0.895478 h -0.89548 v -6.268354 h 0.89548 v -0.895479 h 3.58191 v 0.895479 h 0.89548 v 1.790958 h -1.79096 v -1.790958 h -1.79096 v 6.268354 h 1.79096 v -1.790958 h 1.79096 z"
       style="font-size:4.53949px;line-height:1.25;font-family:'Fixedsys Excelsior';-inkscape-font-specification:'Fixedsys Excelsior, Normal';text-align:center;letter-spacing:0px;word-spacing:0px;text-anchor:middle;fill:#000000;stroke-width:0.358955"
       id="path9032" />
    <path
       d="m 116.26643,72.323287 h -0.89548 v 0.895478 h -3.58192 v -0.895478 h -0.89548 v -4.477396 h 0.89548 v -0.895479 h 3.58192 v 0.895479 h 0.89548 z m -1.79096,0 v -4.477396 h -1.79096 v 4.477396 z"
       style="font-size:4.53949px;line-height:1.25;font-family:'Fixedsys Excelsior';-inkscape-font-specification:'Fixedsys Excelsior, Normal';text-align:center;letter-spacing:0px;word-spacing:0px;text-anchor:middle;fill:#000000;stroke-width:0.358955"
       id="path9034" />
    <path
       d="m 123.43024,72.323287 h -0.89548 v 0.895478 h -3.58192 v -0.895478 h -0.89548 v -4.477396 h 0.89548 v -0.895479 h 3.58192 v 0.895479 h 0.89548 z m -1.79096,0 v -4.477396 h -1.79096 v 4.477396 z"
       style="font-size:4.53949px;line-height:1.25;font-family:'Fixedsys Excelsior';-inkscape-font-specification:'Fixedsys Excelsior, Normal';text-align:center;letter-spacing:0px;word-spacing:0px;text-anchor:middle;fill:#000000;stroke-width:0.358955"
       id="path9036" />
    <path
       d="m 130.59404,73.218765 h -5.37288 v -0.895478 h 1.79096 v -6.268354 h -1.79096 v -0.895479 h 3.58192 v 7.163833 h 1.79096 z"
       style="font-size:4.53949px;line-height:1.25;font-family:'Fixedsys Excelsior';-inkscape-font-specification:'Fixedsys Excelsior, Normal';text-align:center;letter-spacing:0px;word-spacing:0px;text-anchor:middle;fill:#000000;stroke-width:0.358955"
       id="path9038" />
    <path
       d="m 135.96689,66.054933 h -1.79096 v -1.790958 h 1.79096 z m 1.79095,7.163832 h -5.37287 v -0.895478 h 1.79096 v -4.477396 h -1.79096 v -0.895479 h 3.58192 v 5.372875 h 1.79095 z"
       style="font-size:4.53949px;line-height:1.25;font-family:'Fixedsys Excelsior';-inkscape-font-specification:'Fixedsys Excelsior, Normal';text-align:center;letter-spacing:0px;word-spacing:0px;text-anchor:middle;fill:#000000;stroke-width:0.358955"
       id="path9040" />
    <path
       d="m 144.92164,73.218765 h -1.79095 v -5.372874 h -1.79096 v 5.372874 h -1.79096 v -6.268353 h 4.4774 v 0.895479 h 0.89547 z"
       style="font-size:4.53949px;line-height:1.25;font-family:'Fixedsys Excelsior';-inkscape-font-specification:'Fixedsys Excelsior, Normal';text-align:center;letter-spacing:0px;word-spacing:0px;text-anchor:middle;fill:#000000;stroke-width:0.358955"
       id="path9042" />
    <path
       d="m 152.08545,75.009722 h -0.89548 v 0.895479 h -4.47739 v -0.895479 h 3.58191 v -1.790957 h -2.68643 v -0.895478 h -0.89548 v -4.477396 h 0.89548 v -0.895479 h 4.47739 z m -1.79096,-2.686435 v -4.477396 h -1.79095 v 4.477396 z"
       style="font-size:4.53949px;line-height:1.25;font-family:'Fixedsys Excelsior';-inkscape-font-specification:'Fixedsys Excelsior, Normal';text-align:center;letter-spacing:0px;word-spacing:0px;text-anchor:middle;fill:#000000;stroke-width:0.358955"
       id="path9044" />
    <path
       inkscape:export-filename="C:\Users\8200\flameit-logo.png"
       style="fill:#000000;fill-opacity:1;stroke:none;stroke-width:0.25483;stroke-linecap:butt;stroke-linejoin:round;stroke-miterlimit:4;stroke-dasharray:none;stroke-dashoffset:0;stroke-opacity:1"
       d="m 77.644463,11.311313 c 0,0 -2.892422,3.622531 -2.368327,5.901299 0.524094,2.278767 0.608189,5.725523 0.608189,5.725523 0,0 0.09076,5.050803 -1.609408,3.266222 -1.70022,-1.784611 -0.587896,-2.690601 -0.349738,-3.535609 0.365378,-1.296387 -0.02859,-4.260561 -0.813389,-5.244527 0,0 0.656608,1.367197 -0.678093,3.638195 -1.334689,2.270967 -1.28113,3.840133 -0.767624,5.07148 0.513493,1.231314 -0.107811,2.427049 -0.664672,2.804381 -0.556783,0.377331 -1.744908,0.280327 -1.194714,-2.153097 0.532773,-2.35646 1.166178,-2.674618 -0.352725,-4.811541 0.303153,0.50573 0.822427,1.940503 -0.984796,4.29617 -2.295668,2.992366 -1.322549,7.287999 -0.689785,7.95755 -9.200026,-0.06406 -3.644021,-0.02854 -5.465962,-0.04757 -2.796648,0 -5.048075,2.253431 -5.048075,5.052581 v 10.785553 c 0,2.799118 2.251427,5.052549 5.048075,5.052549 h 60.445791 c 2.79665,0 5.04808,-2.253431 5.04808,-5.052549 V 39.232367 c 0,-2.79915 -2.25143,-5.052581 -5.04808,-5.052581 h -5.24234 c 0,0 0.59575,-3.716363 -0.0527,-6.271748 -0.67332,-2.653309 -3.18457,-3.613556 -1.49497,-9.653242 0,0 -3.2492,4.793054 -1.11963,8.860525 2.12957,4.067471 0.71053,5.78495 -0.72682,5.868668 -1.43737,0.08372 -2.79042,-0.675799 -1.74125,-3.845556 1.04918,-3.169758 -1.29925,-6.280089 -1.65441,-7.515843 -0.33187,-1.154765 -0.46612,-1.924776 -0.46612,-1.924776 -0.26321,1.818417 0.73779,4.593814 0.64173,6.902644 -0.0555,1.332695 0.63229,3.963046 -0.70022,3.939675 -4.45839,-0.07833 0.85298,-8.300569 -1.87955,-13.256335 0,0 -0.85839,-1.850191 -0.82956,-2.871102 0,0 -1.22691,5.079375 -0.18265,7.652805 0.83669,2.061704 -0.37493,5.487086 -1.47432,3.71909 -0.78539,-1.263057 -0.61098,-3.001687 -0.28319,-4.976884 0.2464,-1.484244 -0.12435,-3.723086 -0.12435,-3.723086 0,0 -0.22897,2.238556 -1.61713,4.856888 -1.38805,2.6183 -0.18106,4.115037 0.40299,5.771568 0.58407,1.656562 0.0159,2.942959 -1.99546,3.114358 -2.01135,0.171241 -2.603101,-1.042665 -1.71683,-2.6463 0.69663,-1.260521 1.49597,-1.264992 1.11711,-3.699398 -0.66473,-4.271502 -2.087925,-5.813046 -0.96414,-10.926734 0,0 -1.670646,2.565501 -1.408426,6.115413 0.219442,2.972133 0.551297,2.581387 0.34502,4.190636 -0.226108,1.763112 -2.239031,2.163307 -2.021307,-0.758595 l 0.468125,-6.281991 c 0,0 -1.874486,2.861619 -2.161858,6.329273 -0.175036,2.110792 -0.473984,2.66593 0.246721,4.215529 0.720731,1.549632 -0.07576,2.855406 -1.110401,3.520675 -0.918418,0.590621 -2.572411,0.454928 -3.250146,-0.401591 -1.704579,-2.154206 1.222596,-5.27256 0.890511,-8.195542 -0.166486,-1.550709 -1.465024,-3.406037 -1.039497,-4.561848 0,0 -1.029152,1.147851 -0.969119,2.534265 0.05999,1.386383 0.171869,4.684571 0.171869,4.684571 0,0 -0.301255,1.693443 -1.62133,1.882695 -1.320203,0.189316 -1.945993,-1.226875 -0.511941,-3.47111 1.434077,-2.244234 0.333598,-4.931791 0.333598,-4.931791 0,0 -1.214853,-3.664009 -0.364172,-5.417576 0,0 -2.322114,2.153066 -1.432809,4.166981 1.613792,3.654464 -2.524967,7.904052 -1.905368,4.828762 0,0 1.909458,-3.714684 0.76688,-5.855983 0,0 0.0064,2.080064 -1.169383,3.041898 -1.174498,0.961801 -3.745166,3.235114 -1.395709,5.584852 2.349457,2.349738 -1.696169,7.154684 -1.65666,5.877134 0.03961,-1.277549 0.4902,-1.434203 -0.498725,-4.967402 -0.988911,-3.533233 -0.159819,-7.183383 0.01282,-7.846243 0.171241,-0.662891 -2.476177,2.843608 -1.723821,5.477287 0.752343,2.633712 -0.90938,4.656729 -0.90938,4.656729 0,0 -2.041036,3.163701 -1.931572,0.556183 0.0723,-1.723568 0.685952,-2.602571 1.350713,-5.142703 0.515403,-1.969298 -0.183919,-2.163973 -1.120861,-6.066101 -0.679042,-2.828292 0.606446,-6.008102 0.606446,-6.008102 z m -8.190501,10.662326 c -0.08179,-0.136677 -0.14905,-0.209613 -0.14905,-0.209613 0.05423,0.07389 0.09961,0.139847 0.14905,0.209613 z m -6.322167,13.792348 h 58.809275 c 2.37193,0 4.28145,1.911203 4.28145,4.285231 v 9.147829 c 0,2.37406 -1.90952,4.285263 -4.28145,4.285263 H 63.131795 c -2.371904,0 -4.281426,-1.911203 -4.281426,-4.285263 v -9.147829 c 0,-2.374028 1.909522,-4.285231 4.281426,-4.285231 z"
       id="path12170"
       inkscape:connector-curvature="0"
       inkscape:export-xdpi="484"
       inkscape:export-ydpi="484" />
    <path
       inkscape:connector-curvature="0"
       d="M 65.803749,49.344154 V 40.26581 h 5.043074 v 1.00467 h -3.023426 v 3.026115 h 2.019649 v 1.016772 h -2.019649 v 4.030787 z"
       style="font-style:normal;font-variant:normal;font-weight:normal;font-stretch:normal;font-size:80.9027px;line-height:1.25;font-family:Silom;-inkscape-font-specification:'Silom, Normal';font-variant-ligatures:normal;font-variant-caps:normal;font-variant-numeric:normal;font-feature-settings:normal;text-align:start;letter-spacing:0px;word-spacing:0px;writing-mode:lr-tb;text-anchor:start;fill:#000000;fill-opacity:1;stroke:none;stroke-width:0.302477"
       id="path12172" />
    <path
       inkscape:connector-curvature="0"
       d="M 72.866282,49.344154 V 40.26581 h 2.019648 v 9.078344 z"
       style="font-style:normal;font-variant:normal;font-weight:normal;font-stretch:normal;font-size:80.9027px;line-height:1.25;font-family:Silom;-inkscape-font-specification:'Silom, Normal';font-variant-ligatures:normal;font-variant-caps:normal;font-variant-numeric:normal;font-feature-settings:normal;text-align:start;letter-spacing:0px;word-spacing:0px;writing-mode:lr-tb;text-anchor:start;fill:#000000;fill-opacity:1;stroke:none;stroke-width:0.302477"
       id="path12174" />
    <path
       inkscape:connector-curvature="0"
       d="m 80.944685,45.313367 v -1.016772 q 0,-0.411552 -0.302344,-0.702058 -0.290249,-0.30262 -0.713529,-0.30262 h -1.003775 q -0.894933,0 -1.003778,1.004671 h -1.01587 q 0.241874,-2.009334 2.019648,-2.009334 h 2.019648 q 0.822372,0 1.414963,0.593118 0.592592,0.593117 0.592592,1.416223 v 5.047559 h -2.007555 v -1.004671 q -0.120937,1.004671 -1.015871,1.004671 h -1.003777 q -0.822372,0 -1.427057,-0.59312 -0.592591,-0.593117 -0.592591,-1.428327 v 0 q 0,-0.823102 0.592591,-1.416219 0.604685,-0.593121 1.427057,-0.593121 z m 0,1.004672 h -1.015871 q -0.411186,0 -0.713528,0.30262 -0.290249,0.290506 -0.290249,0.702058 v 0 q 0,0.411551 0.290249,0.714165 0.302341,0.30262 0.713528,0.30262 0.42328,0 0.713529,-0.30262 0.302344,-0.30262 0.302344,-0.714165 z"
       style="font-style:normal;font-variant:normal;font-weight:normal;font-stretch:normal;font-size:80.9027px;line-height:1.25;font-family:Silom;-inkscape-font-specification:'Silom, Normal';font-variant-ligatures:normal;font-variant-caps:normal;font-variant-numeric:normal;font-feature-settings:normal;text-align:start;letter-spacing:0px;word-spacing:0px;writing-mode:lr-tb;text-anchor:start;fill:#000000;fill-opacity:1;stroke:none;stroke-width:0.302477"
       id="path12176" />
    <path
       inkscape:connector-curvature="0"
       d="m 91.030454,49.344154 h -2.007552 v -5.047559 q 0,-0.411552 -0.302334,-0.702058 -0.290253,-0.30262 -0.713528,-0.30262 -0.411187,0 -0.713528,0.30262 -0.290253,0.290506 -0.290253,0.702058 v 5.047559 h -2.019655 v -7.0569 h 2.019649 v 1.004669 q 0.06047,-0.508386 0.314448,-0.750475 0.253976,-0.254194 0.689342,-0.254194 h 1.015872 q 1.027963,0 1.511712,0.714163 0.241861,-0.363133 0.61678,-0.532596 0.374902,-0.181566 0.894931,-0.181566 h 1.003777 q 0.822374,0 1.414964,0.593119 0.604686,0.593115 0.604686,1.416221 v 5.047559 h -2.01965 v -5.047559 q 0,-0.399447 -0.302334,-0.702058 -0.290253,-0.30262 -0.701436,-0.30262 -0.411184,0 -0.713528,0.30262 -0.302335,0.290506 -0.302335,0.702058 z"
       style="font-style:normal;font-variant:normal;font-weight:normal;font-stretch:normal;font-size:80.9027px;line-height:1.25;font-family:Silom;-inkscape-font-specification:'Silom, Normal';font-variant-ligatures:normal;font-variant-caps:normal;font-variant-numeric:normal;font-feature-settings:normal;text-align:start;letter-spacing:0px;word-spacing:0px;writing-mode:lr-tb;text-anchor:start;fill:#000000;fill-opacity:1;stroke:none;stroke-width:0.302477"
       id="path12178" />
    <path
       inkscape:connector-curvature="0"
       d="m 103.12416,46.318039 h -4.027204 v 1.004668 q 0,0.411551 0.290252,0.714165 0.302335,0.30262 0.713532,0.30262 h 1.01587 q 1.00378,0 1.00378,-1.016775 h 1.00378 q -0.22978,2.021447 -2.00756,2.021447 h -2.019648 q -0.822373,0 -1.427059,-0.59312 -0.59259,-0.593117 -0.59259,-1.428327 v -3.026113 q 0,-0.823105 0.59259,-1.416222 0.604686,-0.593119 1.427059,-0.593119 h 2.019648 q 0.82237,0 1.41497,0.593119 0.59259,0.593117 0.59259,1.416222 z m -4.027204,-1.004672 h 2.019644 v -1.016772 q 0,-0.411552 -0.30233,-0.702058 -0.29026,-0.30262 -0.71353,-0.30262 -0.411187,0 -0.713532,0.30262 -0.290252,0.290506 -0.290252,0.702058 z"
       style="font-style:normal;font-variant:normal;font-weight:normal;font-stretch:normal;font-size:80.9027px;line-height:1.25;font-family:Silom;-inkscape-font-specification:'Silom, Normal';font-variant-ligatures:normal;font-variant-caps:normal;font-variant-numeric:normal;font-feature-settings:normal;text-align:start;letter-spacing:0px;word-spacing:0px;writing-mode:lr-tb;text-anchor:start;fill:#000000;fill-opacity:1;stroke:none;stroke-width:0.302477"
       id="path12180" />
    <path
       inkscape:connector-curvature="0"
       d="M 109.19482,49.344154 V 40.26581 h 2.00755 v 9.078344 z"
       style="font-style:normal;font-variant:normal;font-weight:normal;font-stretch:normal;font-size:80.9027px;line-height:1.25;font-family:Silom;-inkscape-font-specification:'Silom, Normal';font-variant-ligatures:normal;font-variant-caps:normal;font-variant-numeric:normal;font-feature-settings:normal;text-align:start;letter-spacing:0px;word-spacing:0px;writing-mode:lr-tb;text-anchor:start;fill:#000000;fill-opacity:1;stroke:none;stroke-width:0.302477"
       id="path12182" />
    <path
       inkscape:connector-curvature="0"
       d="M 115.24167,49.344154 V 41.27048 h -2.01964 v -1.00467 h 6.04685 v 1.00467 h -2.01965 v 8.073674 z"
       style="font-style:normal;font-variant:normal;font-weight:normal;font-stretch:normal;font-size:80.9027px;line-height:1.25;font-family:Silom;-inkscape-font-specification:'Silom, Normal';font-variant-ligatures:normal;font-variant-caps:normal;font-variant-numeric:normal;font-feature-settings:normal;text-align:start;letter-spacing:0px;word-spacing:0px;writing-mode:lr-tb;text-anchor:start;fill:#000000;fill-opacity:1;stroke:none;stroke-width:0.302477"
       id="path12184" />
    <path
       style="fill:#000000;stroke:#000000;stroke-width:0.6;stroke-linecap:butt;stroke-linejoin:miter;stroke-miterlimit:4;stroke-dasharray:0.6, 4.8;stroke-dashoffset:0;stroke-opacity:1"
       d="M 21.92576,89.102014 H 163.14687"
       id="path1253" />
    <g
       aria-label="Outsourcing IT - Konopnickiej.Com | ELMAR "
       id="text236"
       style="font-weight:bold;font-size:4.23333px;font-family:Bahnschrift;-inkscape-font-specification:'Bahnschrift Bold';text-align:center;text-anchor:middle;stroke-width:0.0640001">
      <path
         d="m 52.566694,167.8474 q -0.326595,0 -0.576709,-0.13643 -0.248047,-0.13849 -0.384472,-0.38861 -0.136426,-0.25218 -0.136426,-0.5829 v -0.85163 q 0,-0.33073 0.136426,-0.58084 0.136425,-0.25219 0.384472,-0.38861 0.250114,-0.13849 0.576709,-0.13849 0.326594,0 0.574641,0.13849 0.250114,0.13642 0.386539,0.38861 0.136426,0.25011 0.136426,0.58084 v 0.85163 q 0,0.33072 -0.136426,0.5829 -0.136425,0.25012 -0.386539,0.38861 -0.248047,0.13643 -0.574641,0.13643 z m 0,-0.56638 q 0.152962,0 0.268717,-0.0641 0.115755,-0.0661 0.177767,-0.18603 0.06408,-0.11989 0.06408,-0.27699 v -0.88056 q 0,-0.1571 -0.06408,-0.27699 -0.06201,-0.11989 -0.177767,-0.18396 -0.115755,-0.0661 -0.268717,-0.0661 -0.152963,0 -0.268718,0.0661 -0.115755,0.0641 -0.179833,0.18396 -0.06201,0.11989 -0.06201,0.27699 v 0.88056 q 0,0.1571 0.06201,0.27699 0.06408,0.11989 0.179833,0.18603 0.115755,0.0641 0.268718,0.0641 z"
         style="stroke-width:0.064"
         id="path1480" />
      <path
         d="m 55.45437,165.67079 h 0.564306 v 2.1456 H 55.45437 Z m -0.665592,1.30431 q 0,0.15503 0.08682,0.24184 0.08888,0.0848 0.248046,0.0848 0.159164,0 0.243913,-0.0868 0.08682,-0.0889 0.08682,-0.25218 l 0.02894,0.46922 q -0.05994,0.1757 -0.200504,0.29559 -0.138493,0.11989 -0.338998,0.11989 -0.345198,0 -0.5333,-0.22118 -0.188102,-0.22324 -0.188102,-0.63045 v -1.32498 h 0.566373 z"
         style="stroke-width:0.064"
         id="path1482" />
      <path
         d="m 57.176227,167.82673 q -0.281119,0 -0.413411,-0.14263 -0.130224,-0.14469 -0.130224,-0.42581 v -2.21175 h 0.566373 v 2.07119 q 0,0.0785 0.03101,0.12195 0.03101,0.0413 0.09095,0.0413 h 0.14056 v 0.54571 z m -0.76481,-2.15594 h 1.050064 v 0.48369 h -1.050064 z"
         style="stroke-width:0.064"
         id="path1484" />
      <path
         d="m 58.778195,167.8474 q -0.192236,0 -0.374137,-0.0331 -0.1819,-0.0351 -0.341064,-0.10128 -0.159163,-0.0661 -0.281119,-0.15917 v 0 l 0.349332,-0.43614 v 0 q 0.155029,0.0992 0.324528,0.15296 0.169498,0.0537 0.32246,0.0537 0.198438,0 0.307992,-0.0434 0.109554,-0.0455 0.109554,-0.12402 0,-0.0724 -0.04754,-0.10955 -0.04754,-0.0372 -0.121956,-0.0517 -0.07441,-0.0165 -0.208772,-0.0289 -0.03721,-0.004 -0.07648,-0.008 -0.03721,-0.004 -0.07648,-0.008 -0.0083,-0.002 -0.0186,-0.002 -0.0083,-0.002 -0.01654,-0.002 -0.239778,-0.031 -0.384472,-0.0765 -0.144694,-0.0455 -0.245979,-0.17363 -0.09922,-0.13023 -0.09922,-0.37621 0,-0.21497 0.103353,-0.36793 0.103352,-0.15297 0.299723,-0.23151 0.19637,-0.0806 0.475422,-0.0806 0.163298,0 0.324528,0.0331 0.163298,0.0331 0.312126,0.0951 0.148828,0.062 0.274918,0.14883 v 0 l -0.33693,0.41134 v 0 q -0.14056,-0.0786 -0.293522,-0.12196 -0.152962,-0.0434 -0.293522,-0.0434 -0.171565,0 -0.26665,0.0393 -0.09508,0.0393 -0.09508,0.10955 0,0.0538 0.04961,0.0848 0.05168,0.0289 0.12609,0.0434 0.07648,0.0124 0.221175,0.0289 0.0186,0.002 0.03721,0.004 0.0186,0.002 0.03721,0.004 0.0083,0.002 0.0186,0.002 0.01033,0 0.0186,0.002 0.250114,0.0289 0.40721,0.0744 0.157096,0.0455 0.26665,0.1819 0.111621,0.13642 0.111621,0.40101 0,0.22324 -0.107487,0.3824 -0.107487,0.15917 -0.314192,0.24391 -0.206706,0.0827 -0.498161,0.0827 z"
         style="stroke-width:0.064"
         id="path1486" />
      <path
         d="m 61.016817,167.8474 q -0.293522,0 -0.502295,-0.10956 -0.206706,-0.10955 -0.316259,-0.31832 -0.107487,-0.21084 -0.107487,-0.50643 v -0.34933 q 0,-0.29146 0.107487,-0.49817 0.109553,-0.20877 0.316259,-0.31625 0.208773,-0.10956 0.502295,-0.10956 0.293521,0 0.500227,0.10956 0.208773,0.10748 0.316259,0.31625 0.109554,0.20671 0.109554,0.49817 v 0.35553 q 0,0.29352 -0.109554,0.50229 -0.107486,0.20671 -0.316259,0.31626 -0.206706,0.10956 -0.500227,0.10956 z m -0.0021,-0.54571 q 0.171566,0 0.266651,-0.0992 0.09508,-0.10129 0.09508,-0.28319 v -0.35553 q 0,-0.17984 -0.09508,-0.27906 -0.09508,-0.0992 -0.266651,-0.0992 -0.169498,0 -0.264583,0.0992 -0.09302,0.0992 -0.09302,0.27906 v 0.35553 q 0,0.1819 0.09302,0.28319 0.09302,0.0992 0.264583,0.0992 z"
         style="stroke-width:0.064"
         id="path1488" />
      <path
         d="m 63.639911,165.67079 h 0.564306 v 2.1456 h -0.564306 z m -0.665592,1.30431 q 0,0.15503 0.08682,0.24184 0.08888,0.0848 0.248047,0.0848 0.159163,0 0.243912,-0.0868 0.08682,-0.0889 0.08682,-0.25218 l 0.02894,0.46922 q -0.05994,0.1757 -0.200505,0.29559 -0.138493,0.11989 -0.338997,0.11989 -0.345198,0 -0.5333,-0.22118 -0.188102,-0.22324 -0.188102,-0.63045 v -1.32498 h 0.566373 z"
         style="stroke-width:0.064"
         id="path1490" />
      <path
         d="m 64.762322,165.67079 h 0.607714 v 2.1456 h -0.607714 z m 1.20716,0.59738 q -0.04134,-0.0413 -0.101286,-0.062 -0.05994,-0.0207 -0.138492,-0.0207 -0.171566,0 -0.266651,0.11163 -0.09302,0.10955 -0.09302,0.30592 l -0.04341,-0.55811 q 0.08888,-0.19223 0.229443,-0.29765 0.142627,-0.10749 0.312125,-0.10749 0.134359,0 0.241846,0.0434 0.109554,0.0413 0.190169,0.12402 z"
         style="stroke-width:0.064"
         id="path1492" />
      <path
         d="m 67.435024,167.8474 q -0.305924,0 -0.525032,-0.11576 -0.217041,-0.11782 -0.330729,-0.34106 -0.113688,-0.22324 -0.113688,-0.53744 v -0.22944 q 0,-0.31213 0.113688,-0.53123 0.113688,-0.22118 0.330729,-0.33693 0.219108,-0.11576 0.525032,-0.11576 0.1757,0 0.330729,0.0413 0.157097,0.0393 0.28112,0.11576 0.124023,0.0765 0.206705,0.18603 v 0 l -0.365868,0.35554 v 0 q -0.07855,-0.0724 -0.183968,-0.11162 -0.10542,-0.0413 -0.221175,-0.0413 -0.214974,0 -0.332796,0.11576 -0.117822,0.11369 -0.117822,0.32246 v 0.22944 q 0,0.21498 0.117822,0.3328 0.117822,0.11575 0.332796,0.11575 0.117822,0 0.223242,-0.0434 0.10542,-0.0434 0.181901,-0.12403 v 0 l 0.365868,0.37621 v 0 q -0.08475,0.10748 -0.208772,0.18396 -0.124024,0.0744 -0.279053,0.11369 -0.155029,0.0393 -0.330729,0.0393 z"
         style="stroke-width:0.064"
         id="path1494" />
      <path
         d="m 68.604979,164.81089 h 0.566373 v 0.56638 h -0.566373 z m 0,0.8599 h 0.566373 v 2.1456 h -0.566373 z"
         style="stroke-width:0.064"
         id="path1496" />
      <path
         d="m 69.69845,165.67079 h 0.566373 v 2.1456 H 69.69845 Z m 1.240233,0.84542 q 0,-0.15709 -0.09095,-0.24391 -0.08888,-0.0868 -0.254248,-0.0868 -0.157096,0 -0.243912,0.0889 -0.08475,0.0868 -0.08475,0.24598 l -0.04341,-0.47543 q 0.09715,-0.20257 0.23151,-0.30385 0.136426,-0.10129 0.341065,-0.10129 0.338997,0 0.525032,0.22944 0.186035,0.22738 0.186035,0.64493 v 1.30224 h -0.566374 z"
         style="stroke-width:0.064"
         id="path1498" />
      <path
         d="m 72.823838,168.68869 q -0.256315,0 -0.458886,-0.091 -0.200504,-0.0889 -0.312125,-0.25218 v 0 l 0.380338,-0.34934 v 0 q 0.07235,0.0786 0.173633,0.11989 0.101285,0.0434 0.210839,0.0434 0.177767,0 0.289388,-0.0971 0.113688,-0.0971 0.113688,-0.26872 v -2.12286 h 0.566373 v 2.08152 q 0,0.29559 -0.113688,0.50643 -0.111621,0.21084 -0.328662,0.32039 -0.214973,0.10956 -0.520898,0.10956 z m -0.101285,-0.84129 q -0.227376,0 -0.390674,-0.10956 -0.16123,-0.10955 -0.245979,-0.31626 -0.08475,-0.20877 -0.08475,-0.50229 v -0.34313 q 0,-0.29559 0.08475,-0.50643 0.08475,-0.21084 0.245979,-0.32039 0.163298,-0.10956 0.390674,-0.10956 0.171565,0 0.312125,0.10335 0.142627,0.10129 0.229443,0.28939 l -0.04341,0.47542 q 0,-0.10955 -0.03721,-0.18603 -0.03721,-0.0765 -0.109554,-0.11576 -0.07028,-0.0413 -0.171566,-0.0413 -0.159163,0 -0.248046,0.10956 -0.08682,0.10748 -0.08682,0.30385 v 0.34107 q 0,0.19224 0.08682,0.29765 0.08888,0.10542 0.248046,0.10542 0.101286,0 0.171566,-0.0393 0.07235,-0.0393 0.109554,-0.11369 0.03721,-0.0744 0.03721,-0.17983 l 0.02894,0.48989 q -0.06615,0.1757 -0.202572,0.27285 -0.136425,0.0951 -0.324527,0.0951 z"
         style="stroke-width:0.064"
         id="path1500" />
      <path
         d="m 76.069115,167.81639 h -0.587044 v -3.0055 h 0.587044 z"
         style="stroke-width:0.064"
         id="path1502" />
      <path
         d="m 77.259739,165.05687 h 0.566374 v 2.75952 h -0.566374 z m -0.818554,-0.24598 h 2.203482 v 0.5457 h -2.203482 z"
         style="stroke-width:0.064"
         id="path1504" />
      <path
         d="m 81.459996,166.08213 v 0.5457 h -1.471743 v -0.5457 z"
         style="stroke-width:0.064"
         id="path1506" />
      <path
         d="m 83.537387,166.6423 1.205093,-1.83141 h 0.713135 l -1.845881,2.56729 z m -0.341064,-1.83141 h 0.566373 v 3.0055 h -0.566373 z m 0.841291,1.48415 0.487826,-0.30799 1.056265,1.82934 h -0.671793 z"
         style="stroke-width:0.064"
         id="path1508" />
      <path
         d="m 86.693779,167.8474 q -0.293522,0 -0.502294,-0.10956 -0.206706,-0.10955 -0.31626,-0.31832 -0.107487,-0.21084 -0.107487,-0.50643 v -0.34933 q 0,-0.29146 0.107487,-0.49817 0.109554,-0.20877 0.31626,-0.31625 0.208772,-0.10956 0.502294,-0.10956 0.293522,0 0.500228,0.10956 0.208772,0.10748 0.316259,0.31625 0.109554,0.20671 0.109554,0.49817 v 0.35553 q 0,0.29352 -0.109554,0.50229 -0.107487,0.20671 -0.316259,0.31626 -0.206706,0.10956 -0.500228,0.10956 z m -0.0021,-0.54571 q 0.171566,0 0.26665,-0.0992 0.09509,-0.10129 0.09509,-0.28319 v -0.35553 q 0,-0.17984 -0.09509,-0.27906 -0.09508,-0.0992 -0.26665,-0.0992 -0.169498,0 -0.264583,0.0992 -0.09302,0.0992 -0.09302,0.27906 v 0.35553 q 0,0.1819 0.09302,0.28319 0.09302,0.0992 0.264583,0.0992 z"
         style="stroke-width:0.064"
         id="path1510" />
      <path
         d="m 88.136585,165.67079 h 0.566374 v 2.1456 h -0.566374 z m 1.240234,0.84542 q 0,-0.15709 -0.09095,-0.24391 -0.08888,-0.0868 -0.254248,-0.0868 -0.157096,0 -0.243912,0.0889 -0.08475,0.0868 -0.08475,0.24598 l -0.04341,-0.47543 q 0.09715,-0.20257 0.231511,-0.30385 0.136425,-0.10129 0.341064,-0.10129 0.338997,0 0.525032,0.22944 0.186035,0.22738 0.186035,0.64493 v 1.30224 h -0.566373 z"
         style="stroke-width:0.064"
         id="path1512" />
      <path
         d="m 91.365326,167.8474 q -0.293522,0 -0.502294,-0.10956 -0.206706,-0.10955 -0.31626,-0.31832 -0.107487,-0.21084 -0.107487,-0.50643 v -0.34933 q 0,-0.29146 0.107487,-0.49817 0.109554,-0.20877 0.31626,-0.31625 0.208772,-0.10956 0.502294,-0.10956 0.293522,0 0.500228,0.10956 0.208772,0.10748 0.316259,0.31625 0.109554,0.20671 0.109554,0.49817 v 0.35553 q 0,0.29352 -0.109554,0.50229 -0.107487,0.20671 -0.316259,0.31626 -0.206706,0.10956 -0.500228,0.10956 z m -0.0021,-0.54571 q 0.171566,0 0.26665,-0.0992 0.09508,-0.10129 0.09508,-0.28319 v -0.35553 q 0,-0.17984 -0.09508,-0.27906 -0.09508,-0.0992 -0.26665,-0.0992 -0.169498,0 -0.264583,0.0992 -0.09302,0.0992 -0.09302,0.27906 v 0.35553 q 0,0.1819 0.09302,0.28319 0.09302,0.0992 0.264583,0.0992 z"
         style="stroke-width:0.064"
         id="path1514" />
      <path
         d="m 92.808132,165.67079 h 0.566373 v 3.0179 h -0.566373 z m 1.064534,2.17661 q -0.188102,0 -0.324528,-0.0951 -0.136426,-0.0971 -0.202571,-0.27285 l 0.02894,-0.48989 q 0,0.10542 0.03721,0.17983 0.03721,0.0744 0.107487,0.11369 0.07235,0.0393 0.173633,0.0393 0.159163,0 0.24598,-0.10542 0.08888,-0.10541 0.08888,-0.29765 v -0.34107 q 0,-0.19637 -0.08888,-0.30385 -0.08682,-0.10956 -0.24598,-0.10956 -0.101286,0 -0.173633,0.0413 -0.07028,0.0393 -0.107487,0.11576 -0.03721,0.0765 -0.03721,0.18603 l -0.04341,-0.47542 q 0.08682,-0.1881 0.227376,-0.28939 0.142627,-0.10335 0.314193,-0.10335 0.227376,0 0.388606,0.10956 0.163298,0.10955 0.248047,0.32039 0.08475,0.21084 0.08475,0.50643 v 0.34313 q 0,0.29352 -0.08475,0.50229 -0.08475,0.20671 -0.248047,0.31626 -0.16123,0.10956 -0.388606,0.10956 z"
         style="stroke-width:0.064"
         id="path1516" />
      <path
         d="m 95.110832,165.67079 h 0.566374 v 2.1456 h -0.566374 z m 1.240234,0.84542 q 0,-0.15709 -0.09095,-0.24391 -0.08888,-0.0868 -0.254248,-0.0868 -0.157096,0 -0.243912,0.0889 -0.08475,0.0868 -0.08475,0.24598 l -0.04341,-0.47543 q 0.09715,-0.20257 0.231511,-0.30385 0.136425,-0.10129 0.341064,-0.10129 0.338997,0 0.525032,0.22944 0.186035,0.22738 0.186035,0.64493 v 1.30224 h -0.566373 z"
         style="stroke-width:0.064"
         id="path1518" />
      <path
         d="m 97.444538,164.81089 h 0.566373 v 0.56638 h -0.566373 z m 0,0.8599 h 0.566373 v 2.1456 h -0.566373 z"
         style="stroke-width:0.064"
         id="path1520" />
      <path
         d="m 99.445447,167.8474 q -0.305924,0 -0.525032,-0.11576 -0.217041,-0.11782 -0.330729,-0.34106 -0.113688,-0.22324 -0.113688,-0.53744 v -0.22944 q 0,-0.31213 0.113688,-0.53123 0.113688,-0.22118 0.330729,-0.33693 0.219108,-0.11576 0.525032,-0.11576 0.1757,0 0.330729,0.0413 0.157096,0.0393 0.281124,0.11576 0.12402,0.0765 0.2067,0.18603 v 0 l -0.365868,0.35554 v 0 q -0.07855,-0.0724 -0.183968,-0.11162 -0.10542,-0.0413 -0.221175,-0.0413 -0.214973,0 -0.332796,0.11576 -0.117822,0.11369 -0.117822,0.32246 v 0.22944 q 0,0.21498 0.117822,0.3328 0.117823,0.11575 0.332796,0.11575 0.117823,0 0.223242,-0.0434 0.10542,-0.0434 0.181901,-0.12403 v 0 l 0.365868,0.37621 v 0 q -0.0847,0.10748 -0.20877,0.18396 -0.124025,0.0744 -0.279054,0.11369 -0.155029,0.0393 -0.330729,0.0393 z"
         style="stroke-width:0.064"
         id="path1522" />
      <path
         d="m 100.91099,167.04331 1.00045,-1.37252 h 0.59945 l -1.52342,1.99677 z m -0.26459,-2.23242 h 0.56638 v 3.0055 h -0.56638 z m 0.77308,1.89756 0.46716,-0.28112 0.72967,1.38906 h -0.65526 z"
         style="stroke-width:0.064"
         id="path1524" />
      <path
         d="m 102.85402,164.81089 h 0.56638 v 0.56638 h -0.56638 z m 0,0.8599 h 0.56638 v 2.1456 h -0.56638 z"
         style="stroke-width:0.064"
         id="path1526" />
      <path
         d="m 104.86733,167.8474 q -0.31005,0 -0.53123,-0.11162 -0.21911,-0.11369 -0.33486,-0.32867 -0.11576,-0.21704 -0.11576,-0.52089 v -0.24185 q 0,-0.31833 0.10956,-0.54364 0.11162,-0.2253 0.32246,-0.34313 0.2129,-0.11782 0.51263,-0.11782 0.28112,0 0.48162,0.14056 0.20051,0.14056 0.30386,0.40928 0.10542,0.26665 0.10542,0.64492 v 0.14056 h -1.46761 v -0.38241 h 0.95084 l -0.006,-0.0496 q -0.0227,-0.18603 -0.11782,-0.28732 -0.093,-0.10128 -0.25011,-0.10128 -0.20464,0 -0.31833,0.12195 -0.11162,0.12196 -0.11162,0.3452 v 0.27285 q 0,0.21911 0.12196,0.339 0.12402,0.11989 0.34519,0.11989 0.11369,0 0.22531,-0.0393 0.11162,-0.0413 0.20257,-0.11576 v 0 l 0.37001,0.32866 v 0 q -0.16743,0.15297 -0.37621,0.23771 -0.20877,0.0827 -0.42168,0.0827 z"
         style="stroke-width:0.064"
         id="path1528" />
      <path
         d="m 105.92773,168.14299 h 0.13229 q 0.0786,0 0.11989,-0.0434 0.0434,-0.0413 0.0434,-0.11989 v -2.3089 h 0.56638 v 2.44946 q 0,0.27078 -0.14263,0.41961 -0.14263,0.14883 -0.40101,0.14883 h -0.31833 z m 0.29146,-3.3321 h 0.57464 v 0.56638 h -0.57464 z"
         style="stroke-width:0.064"
         id="path1530" />
      <path
         d="m 107.25892,167.25002 h 0.56637 v 0.56637 h -0.56637 z"
         style="stroke-width:0.064"
         id="path1532" />
      <path
         d="m 109.25362,167.8474 q -0.34313,0 -0.58704,-0.13023 -0.24391,-0.13229 -0.37207,-0.3824 -0.12816,-0.25218 -0.12816,-0.60772 v -0.82475 q 0,-0.35554 0.12816,-0.60565 0.12816,-0.25218 0.37207,-0.38447 0.24391,-0.13229 0.58704,-0.13229 0.28319,0 0.50643,0.12195 0.22324,0.12196 0.36794,0.35554 0.14676,0.23151 0.20257,0.56017 v 0 h -0.58704 v 0 q -0.0331,-0.14883 -0.10336,-0.25425 -0.0682,-0.10542 -0.16743,-0.16123 -0.0971,-0.0558 -0.21911,-0.0558 -0.15916,0 -0.27078,0.0661 -0.11162,0.0641 -0.17157,0.19016 -0.0579,0.12403 -0.0579,0.29973 v 0.82475 q 0,0.1757 0.0579,0.29973 0.06,0.12402 0.17157,0.19016 0.11162,0.0641 0.27078,0.0641 0.12403,0 0.22325,-0.0537 0.0992,-0.0558 0.16743,-0.16123 0.0682,-0.10542 0.0992,-0.25632 v 0 h 0.58704 v 0 q -0.0579,0.32867 -0.20464,0.56224 -0.14469,0.23151 -0.36793,0.35347 -0.22118,0.12196 -0.50437,0.12196 z"
         style="stroke-width:0.064"
         id="path1534" />
      <path
         d="m 111.67001,167.8474 q -0.29352,0 -0.50229,-0.10956 -0.20671,-0.10955 -0.31626,-0.31832 -0.10749,-0.21084 -0.10749,-0.50643 v -0.34933 q 0,-0.29146 0.10749,-0.49817 0.10955,-0.20877 0.31626,-0.31625 0.20877,-0.10956 0.50229,-0.10956 0.29353,0 0.50023,0.10956 0.20877,0.10748 0.31626,0.31625 0.10955,0.20671 0.10955,0.49817 v 0.35553 q 0,0.29352 -0.10955,0.50229 -0.10749,0.20671 -0.31626,0.31626 -0.2067,0.10956 -0.50023,0.10956 z m -0.002,-0.54571 q 0.17156,0 0.26665,-0.0992 0.0951,-0.10129 0.0951,-0.28319 v -0.35553 q 0,-0.17984 -0.0951,-0.27906 -0.0951,-0.0992 -0.26665,-0.0992 -0.1695,0 -0.26459,0.0992 -0.093,0.0992 -0.093,0.27906 v 0.35553 q 0,0.1819 0.093,0.28319 0.093,0.0992 0.26459,0.0992 z"
         style="stroke-width:0.064"
         id="path1536" />
      <path
         d="m 115.61396,166.57822 q 0,-0.1881 -0.091,-0.28938 -0.0889,-0.10336 -0.25425,-0.10336 -0.1633,0 -0.25218,0.0992 -0.0868,0.0971 -0.0868,0.27699 l -0.10542,-0.4961 q 0.10129,-0.20463 0.26252,-0.31419 0.1633,-0.11162 0.36173,-0.11162 0.23151,0 0.39481,0.10956 0.16536,0.10955 0.25011,0.32039 0.0868,0.21084 0.0868,0.50643 v 1.24023 h -0.56637 z m -2.50114,-0.90743 h 0.56637 v 2.1456 h -0.56637 z m 1.25057,0.90743 q 0,-0.1881 -0.093,-0.28938 -0.093,-0.10336 -0.26252,-0.10336 -0.15709,0 -0.24391,0.0889 -0.0847,0.0868 -0.0847,0.24598 l -0.0434,-0.47543 q 0.0951,-0.19843 0.23772,-0.30179 0.14262,-0.10335 0.33486,-0.10335 0.22738,0 0.38861,0.10956 0.16329,0.10955 0.24804,0.32039 0.0847,0.21084 0.0847,0.50643 v 1.24023 h -0.56637 z"
         style="stroke-width:0.064"
         id="path1538" />
      <path
         d="m 117.89599,164.45536 h 0.5457 v 3.71656 h -0.5457 z"
         style="stroke-width:0.064"
         id="path1540" />
      <path
         d="m 120.21935,164.81089 h 0.56638 v 3.0055 h -0.56638 z m 0.20464,2.4598 h 1.80868 v 0.5457 h -1.80868 z m 0,-1.21956 h 1.5813 v 0.5457 h -1.5813 z m 0,-1.24024 h 1.80868 v 0.5457 h -1.80868 z"
         style="stroke-width:0.064"
         id="path1542" />
      <path
         d="m 122.74943,164.81089 h 0.56637 v 3.0055 h -0.56637 z m 0.25218,2.4598 h 1.76113 v 0.5457 h -1.76113 z"
         style="stroke-width:0.064"
         id="path1544" />
      <path
         d="m 127.06751,164.81089 h 0.74621 v 3.0055 h -0.5147 v -2.3337 l 0.0207,0.13229 -0.57464,1.86655 h -0.50023 l -0.57464,-1.82521 0.0207,-0.17363 v 2.3337 h -0.51469 v -3.0055 h 0.7462 l 0.57258,2.02572 z"
         style="stroke-width:0.064"
         id="path1546" />
      <path
         d="m 129.29373,164.81089 h 0.35966 l 1.14929,3.0055 h -0.60978 l -0.71934,-2.05259 -0.71933,2.05259 h -0.60979 z m -0.59738,1.97817 h 1.5813 v 0.54571 h -1.5813 z"
         style="stroke-width:0.064"
         id="path1548" />
      <path
         d="m 131.40006,166.06146 h 1.04593 q 0.0868,0 0.15296,-0.0434 0.0661,-0.0434 0.10129,-0.12402 0.0372,-0.0806 0.0393,-0.18604 v 0 q 0,-0.10542 -0.0372,-0.18603 -0.0351,-0.0806 -0.10129,-0.12402 -0.0661,-0.0434 -0.15503,-0.0434 h -1.04593 v -0.5457 h 1.09141 q 0.24804,0 0.43615,0.11162 0.1881,0.11162 0.29145,0.31626 0.10335,0.20257 0.10335,0.47128 v 0 q 0,0.26872 -0.10335,0.47336 -0.10335,0.20257 -0.29352,0.31419 -0.1881,0.11162 -0.43408,0.11162 h -1.09141 z m -0.22531,-1.25263 h 0.56638 v 3.00756 h -0.56638 z m 0.85783,1.70532 0.60565,-0.0951 0.81028,1.39733 h -0.68626 z"
         style="stroke-width:0.064"
         id="path1550" />
    </g>
    <g
       aria-label="10"
       id="text3254"
       style="font-weight:bold;font-size:146.195px;font-family:Bahnschrift;-inkscape-font-specification:'Bahnschrift Bold';stroke-width:2.21019">
      <path
         d="M 215.26848,150.54128 H 195.70919 V 69.734269 l -12.63502,4.782747 V 53.74419 l 15.49039,-6.995659 h 16.70392 z"
         style="stroke-width:2.21018"
         id="path1553" />
      <path
         d="m 267.02208,151.61204 q -15.20485,0 -23.1285,-7.78089 -7.92366,-7.85227 -7.92366,-21.70082 V 74.945322 q 0,-13.99132 7.92366,-21.700822 7.99504,-7.780886 23.1285,-7.780886 15.20485,0 23.12851,7.709502 7.92366,7.709502 7.92366,21.772206 v 47.185008 q 0,13.99132 -7.99504,21.77221 -7.92366,7.7095 -23.05713,7.7095 z m 0,-18.84545 q 5.9249,0 8.70889,-3.99752 2.78398,-4.0689 2.78398,-11.63564 V 79.942221 q 0,-7.566734 -2.78398,-11.564253 -2.78399,-4.068904 -8.70889,-4.068904 -5.92489,0 -8.70888,4.068904 -2.78399,3.997519 -2.78399,11.564253 v 37.191209 q 0,7.56674 2.78399,11.63564 2.78399,3.99752 8.70888,3.99752 z"
         style="stroke-width:2.21018"
         id="path1555" />
    </g>
    <g
       aria-label="Wawrzyca Surowieckiego"
       id="text5874"
       style="font-weight:bold;font-size:9.68461px;font-family:Bahnschrift;-inkscape-font-specification:'Bahnschrift Bold';stroke-width:0.146413">
      <path
         d="m 186.60663,29.437766 h 1.04034 l 1.31461,4.586949 0.88429,-4.586949 h 1.33352 l -1.58415,6.875695 h -1.22004 l -1.22003,-4.804474 -1.27678,4.804474 h -1.22003 l -1.58416,-6.875695 h 1.33353 l 0.88429,4.586949 z"
         id="path1558" />
      <path
         d="m 194.35243,33.201902 q 0,-0.340475 -0.22699,-0.524898 -0.22698,-0.184424 -0.64312,-0.184424 -0.27427,0 -0.54381,0.08985 -0.26954,0.08985 -0.47761,0.250627 l -0.8039,-0.789711 q 0.29319,-0.335746 0.77553,-0.52017 0.48234,-0.189152 1.06871,-0.189152 0.64312,0 1.09708,0.217525 0.45397,0.212797 0.69041,0.624203 0.24117,0.406678 0.24117,0.983594 v 3.154118 h -1.17747 z m -1.36663,3.182492 q -0.78971,0 -1.18221,-0.373577 -0.38776,-0.378305 -0.38776,-1.144373 0,-0.728237 0.43505,-1.092356 0.43978,-0.364118 1.31461,-0.364118 h 1.22949 l 0.0662,0.988322 h -1.29097 q -0.29318,0 -0.43978,0.11822 -0.14659,0.113492 -0.14659,0.349932 0,0.24117 0.18442,0.35939 0.18443,0.113492 0.558,0.113492 0.52017,0 0.7708,-0.118221 0.25536,-0.11822 0.25536,-0.368847 l 0.0993,0.714051 q -0.0284,0.264813 -0.2459,0.449237 -0.21279,0.184424 -0.53908,0.279 -0.32156,0.08985 -0.68095,0.08985 z"
         id="path1560" />
      <path
         d="m 196.23922,31.404953 h 1.24368 l 0.8701,3.031169 1.03561,-3.031169 h 0.76607 l 1.03561,3.031169 0.8701,-3.031169 h 1.24368 l -1.51322,4.908508 h -0.96468 l -1.05452,-3.201407 -1.05453,3.201407 h -0.96468 z"
         id="path1562" />
      <path
         d="m 204.15526,31.404953 h 1.39027 v 4.908508 h -1.39027 z m 2.76162,1.366627 q -0.0946,-0.09458 -0.23171,-0.141865 -0.13714,-0.04729 -0.31683,-0.04729 -0.39249,0 -0.61002,0.255356 -0.21279,0.250627 -0.21279,0.699865 l -0.0993,-1.27678 q 0.20334,-0.43978 0.5249,-0.680949 0.32629,-0.245898 0.71405,-0.245898 0.30737,0 0.55327,0.09931 0.25063,0.09458 0.43505,0.283728 z"
         id="path1564" />
      <path
         d="m 211.86322,32.502037 -2.17052,2.63395 h 2.2982 v 1.177474 h -3.84453 v -1.116 l 2.232,-2.615034 h -2.16579 v -1.177474 h 3.65064 z"
         id="path1566" />
      <path
         d="m 216.95142,31.404953 -2.18471,6.05761 q -0.12295,0.335746 -0.30737,0.529627 -0.1797,0.19861 -0.44924,0.283729 -0.26481,0.08512 -0.6573,0.08512 h -0.28846 v -1.257865 h 0.28846 q 0.20806,0 0.3452,-0.09458 0.14187,-0.08985 0.2128,-0.297915 l 1.82059,-5.305729 z m -4.53493,0 h 1.22004 l 1.65035,4.26539 -0.81808,1.045067 z"
         id="path1568" />
      <path
         d="m 217.61346,31.404953 h 1.29569 v 4.908508 h -1.29569 z m 2.83729,1.934085 q 0,-0.35939 -0.20807,-0.558 -0.20334,-0.198611 -0.58165,-0.198611 -0.35939,0 -0.558,0.203339 -0.19388,0.19861 -0.19388,0.562729 l -0.0993,-1.087627 q 0.22225,-0.463424 0.52962,-0.695136 0.31211,-0.231711 0.78026,-0.231711 0.77552,0 1.20112,0.524898 0.42559,0.520169 0.42559,1.47539 v 2.979152 h -1.29569 z m -1.52268,-3.27234 1.35244,-1.678728 0.91266,0.766067 -1.44229,1.588882 z"
         id="path1570" />
      <path
         d="m 225.09917,36.384394 q -0.69986,0 -1.20112,-0.264814 -0.49652,-0.269542 -0.75661,-0.780254 -0.26008,-0.510712 -0.26008,-1.229492 v -0.524898 q 0,-0.714051 0.26008,-1.215305 0.26009,-0.505983 0.75661,-0.770797 0.50126,-0.264813 1.20112,-0.264813 0.40195,0 0.75661,0.09458 0.35939,0.08985 0.64312,0.264813 0.28373,0.174966 0.47288,0.425594 v 0 l -0.837,0.813356 v 0 q -0.17969,-0.165509 -0.42086,-0.255356 -0.24117,-0.09458 -0.50599,-0.09458 -0.49179,0 -0.76134,0.264814 -0.26954,0.260085 -0.26954,0.737695 v 0.524898 q 0,0.491797 0.26954,0.761339 0.26955,0.264814 0.76134,0.264814 0.26955,0 0.51071,-0.09931 0.24117,-0.09931 0.41614,-0.283729 v 0 l 0.837,0.860644 v 0 q -0.19388,0.245898 -0.47761,0.420864 -0.28373,0.170238 -0.63839,0.260085 -0.35466,0.08985 -0.75661,0.08985 z"
         id="path1572" />
      <path
         d="m 230.54676,33.201902 q 0,-0.340475 -0.22698,-0.524898 -0.22698,-0.184424 -0.64312,-0.184424 -0.27427,0 -0.54381,0.08985 -0.26954,0.08985 -0.47761,0.250627 l -0.8039,-0.789711 q 0.29319,-0.335746 0.77553,-0.52017 0.48234,-0.189152 1.06871,-0.189152 0.64312,0 1.09708,0.217525 0.45397,0.212797 0.69041,0.624203 0.24117,0.406678 0.24117,0.983594 v 3.154118 h -1.17748 z m -1.36662,3.182492 q -0.78971,0 -1.18221,-0.373577 -0.38776,-0.378305 -0.38776,-1.144373 0,-0.728237 0.43505,-1.092356 0.43978,-0.364118 1.31461,-0.364118 h 1.22949 l 0.0662,0.988322 h -1.29097 q -0.29319,0 -0.43978,0.11822 -0.14659,0.113492 -0.14659,0.349932 0,0.24117 0.18442,0.35939 0.18443,0.113492 0.558,0.113492 0.52017,0 0.7708,-0.118221 0.25535,-0.11822 0.25535,-0.368847 l 0.0993,0.714051 q -0.0284,0.264813 -0.2459,0.449237 -0.2128,0.184424 -0.53908,0.279 -0.32156,0.08985 -0.68095,0.08985 z"
         id="path1574" />
      <path
         d="m 237.85751,36.384394 q -0.49179,0 -0.96468,-0.09931 -0.46815,-0.09931 -0.88428,-0.288457 -0.41141,-0.193882 -0.7377,-0.463424 v 0 l 0.60056,-1.068712 v 0 q 0.39722,0.326288 0.91739,0.505983 0.52017,0.174966 1.06871,0.174966 0.63366,0 0.9836,-0.212796 0.34993,-0.217526 0.34993,-0.610017 v -0.0047 q 0,-0.274271 -0.15605,-0.435051 -0.15605,-0.16078 -0.40668,-0.236441 -0.25063,-0.07566 -0.64312,-0.137135 -0.0142,-0.0047 -0.0284,-0.0047 -0.009,0 -0.0237,-0.0047 l -0.10403,-0.01419 q -0.69041,-0.108763 -1.14437,-0.269543 -0.45397,-0.165508 -0.7708,-0.572186 -0.31683,-0.411407 -0.31683,-1.163288 v -0.0047 q 0,-0.666763 0.29791,-1.139644 0.29792,-0.472882 0.86538,-0.71878 0.56746,-0.250627 1.37135,-0.250627 0.36885,0 0.75189,0.08512 0.38776,0.08512 0.75661,0.245898 0.36884,0.16078 0.69986,0.387763 v 0 l -0.54854,1.097084 v 0 q -0.39722,-0.274271 -0.83227,-0.425593 -0.43033,-0.151322 -0.82755,-0.151322 -0.59583,0 -0.92211,0.19861 -0.32629,0.193882 -0.32629,0.548543 v 0.0047 q 0,0.297915 0.17023,0.472881 0.17024,0.170237 0.42087,0.250627 0.25063,0.08039 0.70459,0.170237 0.0189,0.0047 0.0378,0.0095 0.0189,0 0.0378,0.0047 0.0284,0.0047 0.052,0.01419 0.0284,0.0047 0.0567,0.0095 0.65257,0.127678 1.08762,0.312102 0.43978,0.179695 0.73297,0.586372 0.29319,0.40195 0.29319,1.101814 v 0.0095 q 0,0.657305 -0.30738,1.125457 -0.30737,0.468153 -0.89847,0.714051 -0.58637,0.245899 -1.41392,0.245899 z"
         id="path1576" />
      <path
         d="m 244.38327,31.404953 h 1.29097 v 4.908508 h -1.29097 z m -1.52267,2.983881 q 0,0.354661 0.19861,0.553271 0.20333,0.193882 0.56745,0.193882 0.36412,0 0.558,-0.19861 0.19861,-0.203339 0.19861,-0.576916 l 0.0662,1.073441 q -0.13714,0.401949 -0.4587,0.67622 -0.31683,0.274272 -0.77552,0.274272 -0.78972,0 -1.22004,-0.505984 -0.43032,-0.510711 -0.43032,-1.442288 v -3.031169 h 1.2957 z"
         id="path1578" />
      <path
         d="m 246.95102,31.404953 h 1.39027 v 4.908508 h -1.39027 z m 2.76163,1.366627 q -0.0946,-0.09458 -0.23171,-0.141865 -0.13714,-0.04729 -0.31684,-0.04729 -0.39249,0 -0.61001,0.255356 -0.2128,0.250627 -0.2128,0.699865 l -0.0993,-1.27678 q 0.20334,-0.43978 0.52489,-0.680949 0.32629,-0.245898 0.71406,-0.245898 0.30737,0 0.55327,0.09931 0.25062,0.09458 0.43505,0.283728 z"
         id="path1580" />
      <path
         d="m 252.96607,36.384394 q -0.67149,0 -1.1491,-0.250628 -0.47288,-0.250627 -0.72351,-0.728237 -0.2459,-0.482339 -0.2459,-1.158559 V 33.4478 q 0,-0.666762 0.2459,-1.139644 0.25063,-0.47761 0.72351,-0.723508 0.47761,-0.250627 1.1491,-0.250627 0.67149,0 1.14437,0.250627 0.47761,0.245898 0.72351,0.723508 0.25063,0.472882 0.25063,1.139644 v 0.813356 q 0,0.671492 -0.25063,1.149102 -0.2459,0.472881 -0.72351,0.723508 -0.47288,0.250628 -1.14437,0.250628 z m -0.005,-1.248407 q 0.39249,0 0.61002,-0.226983 0.21752,-0.231712 0.21752,-0.647848 V 33.4478 q 0,-0.411407 -0.21752,-0.63839 -0.21753,-0.226983 -0.61002,-0.226983 -0.38776,0 -0.60529,0.226983 -0.21279,0.226983 -0.21279,0.63839 v 0.813356 q 0,0.416136 0.21279,0.647848 0.2128,0.226983 0.60529,0.226983 z"
         id="path1582" />
      <path
         d="m 255.65204,31.404953 h 1.24367 l 0.87011,3.031169 1.03561,-3.031169 h 0.76606 l 1.03561,3.031169 0.87011,-3.031169 h 1.24367 l -1.51322,4.908508 h -0.96467 l -1.05453,-3.201407 -1.05452,3.201407 h -0.96468 z"
         id="path1584" />
      <path
         d="m 263.49714,29.437766 h 1.29569 v 1.295695 h -1.29569 z m 0,1.967187 h 1.29569 v 4.908508 h -1.29569 z"
         id="path1586" />
      <path
         d="m 268.103,36.384394 q -0.70932,0 -1.2153,-0.255356 -0.50126,-0.260085 -0.76607,-0.751882 -0.26481,-0.496525 -0.26481,-1.191661 v -0.553271 q 0,-0.728237 0.25062,-1.243678 0.25536,-0.515441 0.7377,-0.784983 0.48707,-0.269542 1.17274,-0.269542 0.64312,0 1.10182,0.321559 0.45869,0.321559 0.69513,0.936305 0.24117,0.610017 0.24117,1.47539 v 0.321559 h -3.35745 v -0.87483 h 2.17525 l -0.0142,-0.113492 q -0.052,-0.425593 -0.26954,-0.657305 -0.2128,-0.231712 -0.57219,-0.231712 -0.46815,0 -0.72823,0.279 -0.25536,0.279 -0.25536,0.789712 v 0.624203 q 0,0.501255 0.279,0.775526 0.28373,0.274271 0.78971,0.274271 0.26009,0 0.51544,-0.08985 0.25536,-0.09458 0.46343,-0.264814 v 0 l 0.84646,0.751881 v 0 q -0.38304,0.349933 -0.86065,0.543814 -0.47761,0.189153 -0.96468,0.189153 z"
         id="path1588" />
      <path
         d="m 273.26687,36.384394 q -0.69987,0 -1.20112,-0.264814 -0.49653,-0.269542 -0.75661,-0.780254 -0.26009,-0.510712 -0.26009,-1.229492 v -0.524898 q 0,-0.714051 0.26009,-1.215305 0.26008,-0.505983 0.75661,-0.770797 0.50125,-0.264813 1.20112,-0.264813 0.40195,0 0.75661,0.09458 0.35939,0.08985 0.64312,0.264813 0.28373,0.174966 0.47288,0.425594 v 0 l -0.837,0.813356 v 0 q -0.1797,-0.165509 -0.42087,-0.255356 -0.24117,-0.09458 -0.50598,-0.09458 -0.4918,0 -0.76134,0.264814 -0.26954,0.260085 -0.26954,0.737695 v 0.524898 q 0,0.491797 0.26954,0.761339 0.26954,0.264814 0.76134,0.264814 0.26954,0 0.51071,-0.09931 0.24117,-0.09931 0.41614,-0.283729 v 0 l 0.837,0.860644 v 0 q -0.19388,0.245898 -0.47761,0.420864 -0.28373,0.170238 -0.63839,0.260085 -0.35466,0.08985 -0.75661,0.08985 z"
         id="path1590" />
      <path
         d="m 276.61959,34.544885 2.28875,-3.139932 h 1.37136 l -3.48514,4.568034 z m -0.60528,-5.107119 H 277.31 v 6.875695 h -1.29569 z m 1.76857,4.341051 1.06871,-0.643118 1.66928,3.177762 h -1.49904 z"
         id="path1592" />
      <path
         d="m 281.06468,29.437766 h 1.2957 v 1.295695 h -1.2957 z m 0,1.967187 h 1.2957 v 4.908508 h -1.2957 z"
         id="path1594" />
      <path
         d="m 285.67055,36.384394 q -0.70933,0 -1.21531,-0.255356 -0.50125,-0.260085 -0.76607,-0.751882 -0.26481,-0.496525 -0.26481,-1.191661 v -0.553271 q 0,-0.728237 0.25063,-1.243678 0.25535,-0.515441 0.73769,-0.784983 0.48707,-0.269542 1.17275,-0.269542 0.64312,0 1.10181,0.321559 0.4587,0.321559 0.69514,0.936305 0.24117,0.610017 0.24117,1.47539 v 0.321559 h -3.35746 v -0.87483 h 2.17525 l -0.0142,-0.113492 q -0.052,-0.425593 -0.26955,-0.657305 -0.21279,-0.231712 -0.57218,-0.231712 -0.46816,0 -0.72824,0.279 -0.25536,0.279 -0.25536,0.789712 v 0.624203 q 0,0.501255 0.279,0.775526 0.28373,0.274271 0.78972,0.274271 0.26008,0 0.51544,-0.08985 0.25535,-0.09458 0.46342,-0.264814 v 0 l 0.84646,0.751881 v 0 q -0.38304,0.349933 -0.86065,0.543814 -0.47761,0.189153 -0.96467,0.189153 z"
         id="path1596" />
      <path
         d="m 290.49867,38.309021 q -0.58638,0 -1.0498,-0.208068 -0.4587,-0.203339 -0.71405,-0.576915 v 0 l 0.8701,-0.79917 v 0 q 0.16551,0.179695 0.39722,0.274271 0.23171,0.09931 0.48234,0.09931 0.40668,0 0.66203,-0.222254 0.26009,-0.222254 0.26009,-0.614746 v -4.856491 h 1.29569 v 4.761915 q 0,0.67622 -0.26008,1.158559 -0.25536,0.482339 -0.75188,0.732967 -0.4918,0.250627 -1.19166,0.250627 z m -0.23172,-1.924627 q -0.52017,0 -0.89374,-0.250628 -0.36885,-0.250627 -0.56273,-0.723508 -0.19388,-0.47761 -0.19388,-1.149102 v -0.784983 q 0,-0.67622 0.19388,-1.158559 0.19388,-0.482339 0.56273,-0.732966 0.37357,-0.250627 0.89374,-0.250627 0.39249,0 0.71405,0.23644 0.32629,0.231712 0.5249,0.662034 l -0.0993,1.087627 q 0,-0.250627 -0.0851,-0.425593 -0.0851,-0.174966 -0.25063,-0.264814 -0.16078,-0.09458 -0.39249,-0.09458 -0.36412,0 -0.56746,0.250627 -0.19861,0.245899 -0.19861,0.695136 v 0.780254 q 0,0.43978 0.19861,0.680949 0.20334,0.24117 0.56746,0.24117 0.23171,0 0.39249,-0.08985 0.16551,-0.08985 0.25063,-0.260084 0.0851,-0.170238 0.0851,-0.411407 l 0.0662,1.120729 q -0.15132,0.401949 -0.46342,0.624203 -0.3121,0.217526 -0.74243,0.217526 z"
         id="path1598" />
      <path
         d="m 295.95572,36.384394 q -0.67149,0 -1.1491,-0.250628 -0.47289,-0.250627 -0.72351,-0.728237 -0.2459,-0.482339 -0.2459,-1.158559 V 33.4478 q 0,-0.666762 0.2459,-1.139644 0.25062,-0.47761 0.72351,-0.723508 0.47761,-0.250627 1.1491,-0.250627 0.67149,0 1.14437,0.250627 0.47761,0.245898 0.72351,0.723508 0.25063,0.472882 0.25063,1.139644 v 0.813356 q 0,0.671492 -0.25063,1.149102 -0.2459,0.472881 -0.72351,0.723508 -0.47288,0.250628 -1.14437,0.250628 z m -0.005,-1.248407 q 0.39249,0 0.61002,-0.226983 0.21752,-0.231712 0.21752,-0.647848 V 33.4478 q 0,-0.411407 -0.21752,-0.63839 -0.21753,-0.226983 -0.61002,-0.226983 -0.38776,0 -0.60529,0.226983 -0.2128,0.226983 -0.2128,0.63839 v 0.813356 q 0,0.416136 0.2128,0.647848 0.2128,0.226983 0.60529,0.226983 z"
         id="path1600" />
    </g>
  </g>
  <metadata
     id="metadata828">
    <rdf:RDF>
      <cc:Work
         rdf:about="">
        <dc:title>Szyld - Surowieckiego10</dc:title>
        <dc:creator>
          <cc:Agent>
            <dc:title>Pawe 'felixd' Wojciechowski</dc:title>
          </cc:Agent>
        </dc:creator>
      </cc:Work>
    </rdf:RDF>
  </metadata>
</svg>
