<?xml version="1.0" encoding="UTF-8" standalone="no"?>
<!-- Created with Inkscape (http://www.inkscape.org/) -->

<svg
   width="360mm"
   height="180mm"
   viewBox="0 0 360 180"
   version="1.1"
   id="svg5"
   inkscape:version="1.1.2 (b8e25be833, 2022-02-05)"
   sodipodi:docname="szyld.svg"
   xmlns:inkscape="http://www.inkscape.org/namespaces/inkscape"
   xmlns:sodipodi="http://sodipodi.sourceforge.net/DTD/sodipodi-0.dtd"
   xmlns="http://www.w3.org/2000/svg"
   xmlns:svg="http://www.w3.org/2000/svg"
   xmlns:rdf="http://www.w3.org/1999/02/22-rdf-syntax-ns#"
   xmlns:cc="http://creativecommons.org/ns#"
   xmlns:dc="http://purl.org/dc/elements/1.1/">
  <title
     id="title830">Szyld - Surowieckiego10</title>
  <sodipodi:namedview
     id="namedview7"
     pagecolor="#ffffff"
     bordercolor="#666666"
     borderopacity="1.0"
     inkscape:pageshadow="2"
     inkscape:pageopacity="0.0"
     inkscape:pagecheckerboard="false"
     inkscape:document-units="cm"
     showgrid="false"
     inkscape:zoom="0.32693272"
     inkscape:cx="532.2196"
     inkscape:cy="486.3386"
     inkscape:window-width="1360"
     inkscape:window-height="705"
     inkscape:window-x="-8"
     inkscape:window-y="-8"
     inkscape:window-maximized="1"
     inkscape:current-layer="layer1"
     units="mm"
     inkscape:lockguides="false"
     showguides="true" />
  <defs
     id="defs2">
    <clipPath
       clipPathUnits="userSpaceOnUse"
       id="clipPath1748">
      <path
         d="M 0,512 H 512 V 0 H 0 Z"
         id="path1746" />
    </clipPath>
    <filter
       style="color-interpolation-filters:sRGB"
       inkscape:label="Drop Shadow"
       id="filter6708"
       x="-0.010038189"
       y="-0.016196448"
       width="1.0253121"
       height="1.0498711">
      <feFlood
         flood-opacity="0.498039"
         flood-color="rgb(0,0,0)"
         result="flood"
         id="feFlood6698" />
      <feComposite
         in="flood"
         in2="SourceGraphic"
         operator="in"
         result="composite1"
         id="feComposite6700" />
      <feGaussianBlur
         in="composite1"
         stdDeviation="1.9"
         result="blur"
         id="feGaussianBlur6702" />
      <feOffset
         dx="2.9"
         dy="6"
         result="offset"
         id="feOffset6704" />
      <feComposite
         in="offset"
         in2="offset"
         operator="atop"
         result="composite2"
         id="feComposite6706" />
    </filter>
  </defs>
  <g
     inkscape:label="Warstwa 1"
     inkscape:groupmode="layer"
     id="layer1">
    <path
       id="line18464"
       style="fill:none;stroke:#000000;stroke-width:0.820608;stroke-linecap:round;stroke-linejoin:round;stroke-miterlimit:10"
       d="m 319.68337,155.02275 v -8.12129" />
    <path
       style="fill:none;stroke:#000000;stroke-width:0.820608;stroke-linecap:round;stroke-linejoin:round;stroke-miterlimit:10"
       d="m 319.68337,144.98671 v -4.86019 c 0,-0.43602 0.17671,-0.83046 0.46228,-1.11658 0.28612,-0.28557 0.68056,-0.46227 1.11657,-0.46227 0.87204,0 1.57885,0.70682 1.57885,1.57885 v 5.38593 4.50897"
       id="path18466" />
    <path
       id="polyline18468"
       style="fill:none;stroke:#000000;stroke-width:0.820608;stroke-linecap:round;stroke-linejoin:round;stroke-miterlimit:10"
       d="m 324.5243,137.74128 v -1.63137 h -1.55062" />
    <path
       id="polyline18470"
       style="fill:none;stroke:#000000;stroke-width:0.820608;stroke-linecap:round;stroke-linejoin:round;stroke-miterlimit:10"
       d="m 322.92696,142.24987 h 1.59734 v -1.63131" />
    <path
       id="polyline18472"
       style="fill:none;stroke:#000000;stroke-width:0.820608;stroke-linecap:round;stroke-linejoin:round;stroke-miterlimit:10"
       d="m 319.55103,136.10991 h -1.55062 v 1.63137" />
    <path
       id="polyline18474"
       style="fill:none;stroke:#000000;stroke-width:0.820608;stroke-linecap:round;stroke-linejoin:round;stroke-miterlimit:10"
       d="m 318.00041,140.61856 v 1.63131 h 1.54264" />
    <path
       style="fill:none;stroke:#000000;stroke-width:0.820608;stroke-linecap:round;stroke-linejoin:round;stroke-miterlimit:10"
       d="m 332.33595,155.76759 c -0.11341,1.06323 -0.45445,2.09293 -1.0036,3.0176 v 0 c -0.68926,1.16061 -1.05066,2.48655 -1.04562,3.83639 v 0.67783"
       id="path18476" />
    <path
       style="fill:none;stroke:#000000;stroke-width:0.820608;stroke-linecap:round;stroke-linejoin:round;stroke-miterlimit:10"
       d="m 319.75821,163.29941 v -1.29427 c 0,-1.40789 -0.52743,-2.76474 -1.4783,-3.80302 v 0 c -0.78554,-0.85776 -1.22128,-1.97866 -1.22128,-3.14179 v -2.8009 c 0,-0.86087 0.40133,-1.67004 1.08096,-2.19113 0.0403,-0.0309 0.0826,-0.0592 0.12544,-0.0864 l 1.16981,-0.74325"
       id="path18478" />
    <path
       style="fill:none;stroke:#000000;stroke-width:0.820608;stroke-linecap:round;stroke-linejoin:round;stroke-miterlimit:10"
       d="m 326.08379,151.05407 v -4.50897 c 0,-0.89545 0.72591,-1.6213 1.6213,-1.6213 v 0 c 0.24908,0 0.48504,0.0562 0.69588,0.15651"
       id="path18480" />
    <path
       style="fill:none;stroke:#000000;stroke-width:0.820608;stroke-linecap:round;stroke-linejoin:round;stroke-miterlimit:10"
       d="m 322.84113,145.51228 c 0,-0.89545 0.72591,-1.6213 1.6213,-1.6213 v 0 c 0.89545,0 1.6213,0.72591 1.6213,1.6213 v 1.03282"
       id="path18482" />
    <path
       style="fill:none;stroke:#000000;stroke-width:0.820608;stroke-linecap:round;stroke-linejoin:round;stroke-miterlimit:10"
       d="m 328.48959,153.91165 v 1.12915 c 0,0.31895 0.25877,0.57771 0.57771,0.57771 h 7.8587"
       id="path18484" />
    <path
       style="fill:none;stroke:#000000;stroke-width:0.820608;stroke-linecap:round;stroke-linejoin:round;stroke-miterlimit:10"
       d="M 328.48959,151.99689 V 140.8399 c 0,-0.31894 0.25877,-0.57771 0.57771,-0.57771 h 12.64613 c 0.31894,0 0.5777,0.25877 0.5777,0.57771 v 1.13627"
       id="path18486" />
    <path
       style="fill:none;stroke:#000000;stroke-width:0.820608;stroke-linecap:round;stroke-linejoin:round;stroke-miterlimit:10"
       d="m 342.29113,143.89092 v 11.14988 c 0,0.31895 -0.25876,0.57771 -0.5777,0.57771 h -2.87268"
       id="path18488" />
    <path
       style="fill:none;stroke:#000000;stroke-width:0.820608;stroke-linecap:round;stroke-linejoin:round;stroke-miterlimit:10"
       d="m 330.93151,152.15478 c 1.33223,1.33223 3.48594,1.33464 4.81522,0.005 1.28786,-1.28786 1.32577,-3.34956 0.11532,-4.68835"
       id="path18490" />
    <path
       style="fill:none;stroke:#000000;stroke-width:0.820608;stroke-linecap:round;stroke-linejoin:round;stroke-miterlimit:10"
       d="m 339.56814,152.51596 c 1.10481,-2.49733 0.63033,-5.52396 -1.42179,-7.57603 -1.33223,-1.33223 -3.48594,-1.33463 -4.81522,-0.005 -1.32928,1.32928 -1.32692,3.48299 0.005,4.81522"
       id="path18492" />
    <path
       style="fill:none;stroke:#000000;stroke-width:0.820608;stroke-linecap:round;stroke-linejoin:round;stroke-miterlimit:10"
       d="m 338.41447,150.3205 c -0.12205,1.11236 -0.60949,2.19174 -1.46254,3.04479 -0.0978,0.0978 -0.19864,0.19087 -0.30215,0.27906"
       id="path18494" />
    <path
       style="fill:none;stroke:#000000;stroke-width:0.820608;stroke-linecap:round;stroke-linejoin:round;stroke-miterlimit:10"
       d="m 339.34887,143.73742 c -1.9984,-1.99841 -5.22892,-2.00196 -7.22289,-0.008 -1.99397,1.99397 -1.99035,5.22448 0.008,7.22288 0.66612,0.66612 1.74297,0.66732 2.40761,0.003 0.66464,-0.66463 0.66344,-1.74149 -0.003,-2.40761 -0.66611,-0.66611 -0.66732,-1.74297 -0.003,-2.40761 0.66464,-0.66463 1.7415,-0.66343 2.40761,0.003 0.60944,0.60944 1.03331,1.33344 1.27167,2.10202"
       id="path18496" />
    <path
       d="m 207.13842,123.01036 h 3.20929 q 0.45551,0 0.80059,-0.21395 0.34509,-0.21395 0.53143,-0.60735 0.19325,-0.39339 0.19325,-0.90412 v 0 q 0,-0.51762 -0.19325,-0.91102 -0.18634,-0.3934 -0.53143,-0.60735 -0.34508,-0.22085 -0.80059,-0.22085 h -3.20929 v -1.33893 h 3.16097 q 0.89722,0 1.58049,0.3865 0.68327,0.37959 1.05596,1.07666 0.37959,0.69707 0.37959,1.61499 v 0 q 0,0.91793 -0.37959,1.615 -0.37269,0.69016 -1.05596,1.06976 -0.68327,0.37959 -1.58049,0.37959 h -3.16097 z m -0.72467,-4.80357 h 1.40794 v 10.03505 h -1.40794 z"
       id="path12652"
       style="font-size:14.0315px;font-family:Bahnschrift;-inkscape-font-specification:'Bahnschrift, Normal';text-align:center;text-anchor:middle;stroke-width:0.214127" />
    <path
       d="m 217.20108,128.34536 q -0.93173,0 -1.59429,-0.36578 -0.66256,-0.36579 -1.01455,-1.06286 -0.34508,-0.70398 -0.34508,-1.69092 v -1.16638 q 0,-0.97314 0.34508,-1.66331 0.35199,-0.69707 1.01455,-1.05595 0.66256,-0.36579 1.59429,-0.36579 0.93172,0 1.59429,0.36579 0.66256,0.35888 1.00764,1.05595 0.35199,0.69017 0.35199,1.66331 v 1.18709 q 0,0.98004 -0.35199,1.67711 -0.34508,0.69017 -1.00764,1.05596 -0.66257,0.36578 -1.59429,0.36578 z m 0,-1.33892 q 0.73848,0 1.13878,-0.46241 0.40719,-0.46242 0.40719,-1.29752 v -1.18709 q 0,-0.8351 -0.40719,-1.29061 -0.4003,-0.45552 -1.13878,-0.45552 -0.73848,0 -1.14568,0.45552 -0.4003,0.45551 -0.4003,1.29061 v 1.18709 q 0,0.8351 0.4003,1.29752 0.4072,0.46241 1.14568,0.46241 z"
       id="path12654"
       style="font-size:14.0315px;font-family:Bahnschrift;-inkscape-font-specification:'Bahnschrift, Normal';text-align:center;text-anchor:middle;stroke-width:0.214127" />
    <path
       d="m 226.22848,118.20679 h 1.40794 v 10.03505 h -1.40794 z m -1.80134,10.15928 q -0.78679,0 -1.34583,-0.33818 -0.55213,-0.34509 -0.842,-1.00075 -0.28987,-0.65566 -0.28987,-1.57358 v -1.58049 q 0,-0.92482 0.28296,-1.58048 0.28297,-0.65566 0.82131,-0.99384 0.54523,-0.34509 1.30441,-0.34509 0.63496,0 1.15949,0.33128 0.53143,0.33128 0.8558,0.93173 l -0.14493,1.46316 q 0,-0.45551 -0.16564,-0.77989 -0.16564,-0.32438 -0.48312,-0.49002 -0.31057,-0.17255 -0.75918,-0.17255 -0.69707,0 -1.08357,0.43481 -0.37959,0.43481 -0.37959,1.2216 v 1.55978 q 0,0.77989 0.37959,1.20779 0.3865,0.42101 1.08357,0.42101 0.44861,0 0.75918,-0.17255 0.31748,-0.17944 0.48312,-0.51072 0.16564,-0.33128 0.16564,-0.79369 l 0.0966,1.51146 q -0.21395,0.53143 -0.70397,0.89032 -0.48312,0.35889 -1.19399,0.35889 z"
       id="path12656"
       style="font-size:14.0315px;font-family:Bahnschrift;-inkscape-font-specification:'Bahnschrift, Normal';text-align:center;text-anchor:middle;stroke-width:0.214127" />
    <path
       d="m 229.77594,121.07789 h 1.40795 v 10.07646 h -1.40795 z m 3.20929,7.26747 q -0.66947,0 -1.16639,-0.31747 -0.49692,-0.32438 -0.73158,-0.91103 l 0.0966,-1.49766 q 0,0.46241 0.16564,0.78679 0.16564,0.32438 0.47622,0.49692 0.31747,0.17254 0.76608,0.17254 0.69707,0 1.07667,-0.421 0.38649,-0.4279 0.38649,-1.20089 v -1.55288 q 0,-0.78679 -0.38649,-1.2216 -0.3796,-0.4348 -1.07667,-0.4348 -0.44861,0 -0.76608,0.16564 -0.31058,0.16564 -0.47622,0.49002 -0.16564,0.31747 -0.16564,0.76608 l -0.14494,-1.38033 q 0.32438,-0.62806 0.84891,-0.96624 0.52453,-0.34508 1.16639,-0.34508 0.75918,0 1.29751,0.34508 0.54524,0.33818 0.8282,0.99384 0.28297,0.65566 0.28297,1.58049 v 1.55978 q 0,0.91102 -0.28987,1.55978 -0.28987,0.64876 -0.84891,0.99384 -0.55903,0.33818 -1.33892,0.33818 z"
       id="path12658"
       style="font-size:14.0315px;font-family:Bahnschrift;-inkscape-font-specification:'Bahnschrift, Normal';text-align:center;text-anchor:middle;stroke-width:0.214127" />
    <path
       d="m 237.46442,118.20679 h 1.40794 v 1.40795 h -1.40794 z m 0,2.8711 h 1.40794 v 7.16395 h -1.40794 z"
       id="path12660"
       style="font-size:14.0315px;font-family:Bahnschrift;-inkscape-font-specification:'Bahnschrift, Normal';text-align:center;text-anchor:middle;stroke-width:0.214127" />
    <path
       d="m 243.5448,128.34536 q -0.63495,0 -1.19399,-0.12423 -0.55213,-0.12423 -1.03525,-0.37269 -0.48312,-0.24846 -0.89032,-0.62115 v 0 l 0.8351,-1.02835 v 0 q 0.57975,0.44171 1.15259,0.66256 0.57283,0.22086 1.13187,0.22086 0.83511,0 1.24921,-0.25537 0.421,-0.26226 0.421,-0.77989 0,-0.34508 -0.22776,-0.51762 -0.22775,-0.17254 -0.56593,-0.22776 -0.33819,-0.0621 -0.95244,-0.11042 -0.0552,0 -0.11733,0 -0.0621,-0.007 -0.11732,-0.0138 -0.0276,0 -0.0552,0 -0.0276,-0.007 -0.0552,-0.007 -0.69707,-0.0552 -1.18019,-0.20014 -0.48312,-0.15184 -0.8075,-0.55904 -0.31747,-0.4072 -0.31747,-1.16639 0,-0.75918 0.31057,-1.263 0.31058,-0.50383 0.92483,-0.75229 0.61425,-0.25536 1.53907,-0.25536 0.55904,0 1.06286,0.10353 0.51073,0.10352 0.97314,0.31057 0.46241,0.20015 0.89032,0.51073 v 0 l -0.84891,1.02835 v 0 q -0.53833,-0.34509 -1.06286,-0.51763 -0.51763,-0.17254 -1.01455,-0.17254 -0.71777,0 -1.07666,0.24846 -0.35889,0.24156 -0.35889,0.73158 0,0.28987 0.20015,0.4348 0.20705,0.14494 0.51763,0.19325 0.31058,0.0483 0.88341,0.0828 0.0414,0.007 0.0828,0.007 0.0483,0 0.0966,0.007 0.0207,0 0.0414,0 0.0207,0 0.0414,0.007 0.75228,0.0483 1.27681,0.20015 0.53143,0.15183 0.89032,0.60044 0.35888,0.44861 0.35888,1.29752 0,0.77299 -0.33128,1.28371 -0.33128,0.50382 -1.00074,0.75919 -0.66256,0.25536 -1.67021,0.25536 z"
       id="path12662"
       style="font-size:14.0315px;font-family:Bahnschrift;-inkscape-font-specification:'Bahnschrift, Normal';text-align:center;text-anchor:middle;stroke-width:0.214127" />
    <path
       d="m 253.71788,121.07789 -3.05054,8.84106 q -0.16564,0.49002 -0.43481,0.77299 -0.26916,0.28987 -0.66256,0.4141 -0.3934,0.12423 -0.96624,0.12423 h -0.28296 v -1.35273 h 0.28296 q 0.3934,0 0.62116,-0.15874 0.23465,-0.15874 0.4072,-0.54523 l 2.65024,-8.09568 z m -6.34264,0 h 1.43555 l 2.20163,6.22532 -0.77989,1.52527 z"
       id="path12664"
       style="font-size:14.0315px;font-family:Bahnschrift;-inkscape-font-specification:'Bahnschrift, Normal';text-align:center;text-anchor:middle;stroke-width:0.214127" />
    <path
       d="m 261.68932,128.34536 q -0.99384,0 -1.69781,-0.37269 -0.70397,-0.37269 -1.07666,-1.09046 -0.36579,-0.72468 -0.36579,-1.74613 v -0.8075 q 0,-1.06285 0.35199,-1.81514 0.35888,-0.75228 1.03525,-1.14568 0.67636,-0.39339 1.62879,-0.39339 0.89722,0 1.53218,0.44861 0.63495,0.44861 0.96623,1.29751 0.33819,0.84891 0.33819,2.036 v 0.46931 h -4.83118 v -1.13187 h 3.49225 v 0 q -0.0621,-0.87652 -0.45551,-1.35963 -0.3865,-0.49002 -1.04216,-0.49002 -0.80059,0 -1.2423,0.52453 -0.4348,0.52452 -0.4348,1.48386 v 0.91102 q 0,0.89032 0.46931,1.36653 0.46931,0.47622 1.33202,0.47622 0.42791,0 0.84891,-0.17254 0.42101,-0.17255 0.75229,-0.48312 v 0 l 0.92482,0.92482 v 0 q -0.53143,0.51073 -1.19399,0.7937 -0.66256,0.27606 -1.33203,0.27606 z"
       id="path12666"
       style="font-size:14.0315px;font-family:Bahnschrift;-inkscape-font-specification:'Bahnschrift, Normal';text-align:center;text-anchor:middle;stroke-width:0.214127" />
    <path
       d="m 267.7421,126.39219 q 0,0.26226 0.11043,0.4072 0.11733,0.13803 0.32438,0.13803 h 0.66256 v 1.33893 h -0.8282 q -0.8006,0 -1.24231,-0.49692 -0.4348,-0.49692 -0.4348,-1.40105 v -8.17159 h 1.40794 z"
       id="path12668"
       style="font-size:14.0315px;font-family:Bahnschrift;-inkscape-font-specification:'Bahnschrift, Normal';text-align:center;text-anchor:middle;stroke-width:0.214127" />
    <path
       d="m 273.36007,128.34536 q -0.99384,0 -1.69781,-0.37269 -0.70398,-0.37269 -1.07667,-1.09046 -0.36579,-0.72468 -0.36579,-1.74613 v -0.8075 q 0,-1.06285 0.35199,-1.81514 0.35889,-0.75228 1.03525,-1.14568 0.67637,-0.39339 1.6288,-0.39339 0.89722,0 1.53217,0.44861 0.63496,0.44861 0.96624,1.29751 0.33818,0.84891 0.33818,2.036 v 0.46931 h -4.83118 v -1.13187 h 3.49226 v 0 q -0.0621,-0.87652 -0.45552,-1.35963 -0.38649,-0.49002 -1.04215,-0.49002 -0.8006,0 -1.2423,0.52453 -0.43481,0.52452 -0.43481,1.48386 v 0.91102 q 0,0.89032 0.46932,1.36653 0.46931,0.47622 1.33202,0.47622 0.42791,0 0.84891,-0.17254 0.421,-0.17255 0.75228,-0.48312 v 0 l 0.92483,0.92482 v 0 q -0.53143,0.51073 -1.19399,0.7937 -0.66257,0.27606 -1.33203,0.27606 z"
       id="path12670"
       style="font-size:14.0315px;font-family:Bahnschrift;-inkscape-font-specification:'Bahnschrift, Normal';text-align:center;text-anchor:middle;stroke-width:0.214127" />
    <path
       d="m 278.61225,125.52258 3.6855,-4.44469 h 1.6564 l -5.43162,6.11489 z m -0.60735,-7.31579 h 1.40795 v 10.03505 h -1.40795 z m 2.27066,5.90094 0.90412,-0.93863 3.12646,5.07274 h -1.53217 z"
       id="path12672"
       style="font-size:14.0315px;font-family:Bahnschrift;-inkscape-font-specification:'Bahnschrift, Normal';text-align:center;text-anchor:middle;stroke-width:0.214127" />
    <path
       d="m 287.34289,128.27635 q -0.86962,0 -1.27682,-0.47622 -0.40029,-0.48312 -0.40029,-1.42175 v -7.3848 h 1.40794 v 7.39861 q 0,0.26226 0.10352,0.4072 0.10353,0.13803 0.30368,0.13803 h 0.67636 v 1.33893 z m -2.41559,-7.19846 h 3.22998 v 1.26991 h -3.22998 z"
       id="path12674"
       style="font-size:14.0315px;font-family:Bahnschrift;-inkscape-font-specification:'Bahnschrift, Normal';text-align:center;text-anchor:middle;stroke-width:0.214127" />
    <path
       d="m 290.08975,121.07789 h 1.40794 v 7.16395 h -1.40794 z m 3.94086,1.69782 q -0.18634,-0.22776 -0.46931,-0.34509 -0.28297,-0.11733 -0.65566,-0.11733 -0.66947,0 -1.04216,0.37269 -0.36579,0.36579 -0.36579,1.02145 l -0.14493,-1.38033 q 0.33128,-0.64186 0.85581,-0.99385 0.52452,-0.35888 1.15948,-0.35888 0.49002,0 0.88342,0.14493 0.40029,0.13804 0.69706,0.4141 z"
       id="path12676"
       style="font-size:14.0315px;font-family:Bahnschrift;-inkscape-font-specification:'Bahnschrift, Normal';text-align:center;text-anchor:middle;stroke-width:0.214127" />
    <path
       d="m 298.73066,128.34536 q -0.93172,0 -1.59429,-0.36578 -0.66256,-0.36579 -1.01454,-1.06286 -0.34509,-0.70398 -0.34509,-1.69092 v -1.16638 q 0,-0.97314 0.34509,-1.66331 0.35198,-0.69707 1.01454,-1.05595 0.66257,-0.36579 1.59429,-0.36579 0.93172,0 1.59429,0.36579 0.66256,0.35888 1.00764,1.05595 0.35199,0.69017 0.35199,1.66331 v 1.18709 q 0,0.98004 -0.35199,1.67711 -0.34508,0.69017 -1.00764,1.05596 -0.66257,0.36578 -1.59429,0.36578 z m 0,-1.33892 q 0.73848,0 1.13877,-0.46241 0.40721,-0.46242 0.40721,-1.29752 v -1.18709 q 0,-0.8351 -0.40721,-1.29061 -0.40029,-0.45552 -1.13877,-0.45552 -0.73848,0 -1.14568,0.45552 -0.4003,0.45551 -0.4003,1.29061 v 1.18709 q 0,0.8351 0.4003,1.29752 0.4072,0.46241 1.14568,0.46241 z"
       id="path12678"
       style="font-size:14.0315px;font-family:Bahnschrift;-inkscape-font-specification:'Bahnschrift, Normal';text-align:center;text-anchor:middle;stroke-width:0.214127" />
    <path
       d="m 303.68607,121.07789 h 1.40794 v 7.16395 h -1.40794 z m 4.34806,2.82279 q 0,-0.75918 -0.39339,-1.17329 -0.39341,-0.4141 -1.10427,-0.4141 -0.69017,0 -1.06977,0.36579 -0.37269,0.36579 -0.37269,1.02835 l -0.14494,-1.38033 q 0.33129,-0.64876 0.86272,-1.00075 0.53833,-0.35198 1.18709,-0.35198 1.16638,0 1.80134,0.76608 0.64185,0.75919 0.64185,2.15333 v 4.34806 h -1.40794 z"
       id="path12680"
       style="font-size:14.0315px;font-family:Bahnschrift;-inkscape-font-specification:'Bahnschrift, Normal';text-align:center;text-anchor:middle;stroke-width:0.214127" />
    <path
       d="m 311.58159,118.20679 h 1.40795 v 1.40795 h -1.40795 z m 0,2.8711 h 1.40795 v 7.16395 h -1.40795 z"
       id="path12682"
       style="font-size:14.0315px;font-family:Bahnschrift;-inkscape-font-specification:'Bahnschrift, Normal';text-align:center;text-anchor:middle;stroke-width:0.214127" />
    <path
       d="m 318.02086,128.34536 q -0.98004,0 -1.6771,-0.36578 -0.69018,-0.36579 -1.05596,-1.06286 -0.36579,-0.69707 -0.36579,-1.68401 v -1.18019 q 0,-0.97314 0.36579,-1.66331 0.36578,-0.69017 1.05596,-1.04905 0.69706,-0.36579 1.6771,-0.36579 0.55903,0 1.04906,0.13803 0.49692,0.13113 0.89032,0.38649 0.39339,0.25537 0.65565,0.62116 v 0 l -1.01454,0.91102 v 0 q -0.30368,-0.34509 -0.71088,-0.53143 -0.40719,-0.18635 -0.84891,-0.18635 -0.81439,0 -1.263,0.45552 -0.44862,0.45551 -0.44862,1.28371 v 1.18019 q 0,0.8489 0.44172,1.31132 0.4486,0.46241 1.2699,0.46241 0.44862,0 0.85581,-0.20015 0.4072,-0.20015 0.70398,-0.56594 v 0 l 1.01454,0.98004 v 0 q -0.26916,0.35889 -0.66255,0.61425 -0.3934,0.24846 -0.89032,0.37959 -0.49003,0.13113 -1.04216,0.13113 z"
       id="path12684"
       style="font-size:14.0315px;font-family:Bahnschrift;-inkscape-font-specification:'Bahnschrift, Normal';text-align:center;text-anchor:middle;stroke-width:0.214127" />
    <path
       d="m 327.11038,122.26498 -3.44394,4.67244 h 3.63028 v 1.30442 h -5.33499 v -1.2147 l 3.53366,-4.64483 h -3.43704 v -1.30442 h 5.05203 z"
       id="path12686"
       style="font-size:14.0315px;font-family:Bahnschrift;-inkscape-font-specification:'Bahnschrift, Normal';text-align:center;text-anchor:middle;stroke-width:0.214127" />
    <path
       d="m 329.16018,121.07789 h 1.40795 v 7.16395 h -1.40795 z m 4.34806,2.82279 q 0,-0.75918 -0.3934,-1.17329 -0.39339,-0.4141 -1.10427,-0.4141 -0.69016,0 -1.06975,0.36579 -0.37269,0.36579 -0.37269,1.02835 l -0.14494,-1.38033 q 0.33128,-0.64876 0.8627,-1.00075 0.53834,-0.35198 1.1871,-0.35198 1.16638,0 1.80134,0.76608 0.64186,0.75919 0.64186,2.15333 v 4.34806 h -1.40795 z"
       id="path12688"
       style="font-size:14.0315px;font-family:Bahnschrift;-inkscape-font-specification:'Bahnschrift, Normal';text-align:center;text-anchor:middle;stroke-width:0.214127" />
    <path
       d="m 339.98892,128.34536 q -0.99384,0 -1.6978,-0.37269 -0.70398,-0.37269 -1.07667,-1.09046 -0.36579,-0.72468 -0.36579,-1.74613 v -0.8075 q 0,-1.06285 0.35199,-1.81514 0.35889,-0.75228 1.03525,-1.14568 0.67637,-0.39339 1.6288,-0.39339 0.89722,0 1.53217,0.44861 0.63495,0.44861 0.96624,1.29751 0.33818,0.84891 0.33818,2.036 v 0.46931 h -4.83118 v -1.13187 h 3.49225 v 0 q -0.0622,-0.87652 -0.45551,-1.35963 -0.3865,-0.49002 -1.04215,-0.49002 -0.80059,0 -1.24231,0.52453 -0.4348,0.52452 -0.4348,1.48386 v 0.91102 q 0,0.89032 0.46931,1.36653 0.46932,0.47622 1.33202,0.47622 0.42791,0 0.84891,-0.17254 0.421,-0.17255 0.75229,-0.48312 v 0 l 0.92482,0.92482 v 0 q -0.53143,0.51073 -1.19398,0.7937 -0.66257,0.27606 -1.33204,0.27606 z"
       id="path12690"
       style="font-size:14.0315px;font-family:Bahnschrift;-inkscape-font-specification:'Bahnschrift, Normal';text-align:center;text-anchor:middle;stroke-width:0.214127" />
    <path
       d="m 215.31211,141.91071 h 4.07612 v 15.4982 h -4.07612 z m -4.80773,9.42135 q 0,1.11981 0.6271,1.74691 0.64202,0.61216 1.7917,0.61216 1.14967,0 1.76183,-0.62709 0.6271,-0.64203 0.6271,-1.82156 l 0.20903,3.3893 q -0.43299,1.26912 -1.44829,2.1351 -1.00037,0.86599 -2.44866,0.86599 -2.49345,0 -3.85215,-1.5976 -1.35871,-1.61253 -1.35871,-4.5539 v -9.57066 h 4.09105 z"
       style="font-weight:bold;font-size:30.3552px;font-family:Bahnschrift;-inkscape-font-specification:'Bahnschrift Bold';text-align:center;text-anchor:middle;stroke-width:0.46323"
       id="path12693" />
    <path
       d="m 229.34709,157.63287 q -1.38857,0 -2.70248,-0.23889 -1.31391,-0.25382 -2.46359,-0.73161 -1.14967,-0.47779 -2.03059,-1.14968 v 0 l 2.52331,-3.1504 v 0 q 1.11981,0.71668 2.34414,1.10488 1.22433,0.3882 2.32921,0.3882 1.43336,0 2.2247,-0.31355 0.79133,-0.32847 0.79133,-0.89585 0,-0.52257 -0.34341,-0.79133 -0.34341,-0.26875 -0.88092,-0.37327 -0.53751,-0.11945 -1.50801,-0.20903 -0.26876,-0.0299 -0.55244,-0.0597 -0.26876,-0.0299 -0.55244,-0.0597 -0.0597,-0.0149 -0.13438,-0.0149 -0.0597,-0.0149 -0.11945,-0.0149 -1.73197,-0.22396 -2.77713,-0.55244 -1.04516,-0.32848 -1.77677,-1.25419 -0.71668,-0.94064 -0.71668,-2.71741 0,-1.55281 0.74654,-2.65769 0.74654,-1.10488 2.16497,-1.67225 1.41843,-0.58231 3.43409,-0.58231 1.17954,0 2.34414,0.2389 1.17954,0.23889 2.25456,0.68681 1.07502,0.44793 1.9858,1.07502 v 0 l -2.43373,2.97124 v 0 q -1.01529,-0.56737 -2.12017,-0.88092 -1.10489,-0.31355 -2.12018,-0.31355 -1.23926,0 -1.92608,0.28369 -0.68682,0.28369 -0.68682,0.79133 0,0.3882 0.35834,0.61217 0.37327,0.20903 0.91078,0.31355 0.55244,0.0896 1.5976,0.20903 0.13438,0.0149 0.26876,0.0298 0.13437,0.0149 0.26875,0.0299 0.0597,0.0149 0.13438,0.0149 0.0746,0 0.13438,0.0149 1.80663,0.20903 2.94137,0.53751 1.13474,0.32848 1.92608,1.31391 0.80626,0.98544 0.80626,2.89659 0,1.61253 -0.7764,2.7622 -0.7764,1.14967 -2.26949,1.76184 -1.49308,0.59723 -3.59833,0.59723 z"
       style="font-weight:bold;font-size:30.3552px;font-family:Bahnschrift;-inkscape-font-specification:'Bahnschrift Bold';text-align:center;text-anchor:middle;stroke-width:0.46323"
       id="path12695" />
    <path
       d="m 243.60604,157.48356 q -2.0306,0 -2.98617,-1.03022 -0.94064,-1.04516 -0.94064,-3.07575 V 137.4016 h 4.09105 v 14.96069 q 0,0.56737 0.22396,0.88092 0.22396,0.29861 0.65695,0.29861 h 1.0153 v 3.94174 z m -5.52441,-15.57285 h 7.58486 v 3.49381 h -7.58486 z"
       style="font-weight:bold;font-size:30.3552px;font-family:Bahnschrift;-inkscape-font-specification:'Bahnschrift Bold';text-align:center;text-anchor:middle;stroke-width:0.46323"
       id="path12697" />
    <path
       d="m 257.7754,147.58442 q 0,-1.07502 -0.71668,-1.65732 -0.71668,-0.5823 -2.0306,-0.5823 -0.86599,0 -1.71704,0.28368 -0.85106,0.28369 -1.50802,0.79134 l -2.53824,-2.49345 q 0.92571,-1.06009 2.44866,-1.64239 1.52294,-0.59724 3.37437,-0.59724 2.03059,0 3.46395,0.68682 1.43336,0.67189 2.1799,1.97087 0.76147,1.28405 0.76147,3.10562 v 9.95886 h -3.71777 z m -4.31501,10.04845 q -2.49345,0 -3.73271,-1.17953 -1.22433,-1.19447 -1.22433,-3.61326 0,-2.29935 1.37364,-3.44903 1.38856,-1.14967 4.15077,-1.14967 h 3.88201 l 0.20904,3.12054 h -4.07612 q -0.92571,0 -1.38857,0.37327 -0.46285,0.35834 -0.46285,1.10489 0,0.76147 0.5823,1.13474 0.5823,0.35834 1.76184,0.35834 1.64239,0 2.43372,-0.37327 0.80627,-0.37327 0.80627,-1.16461 l 0.31354,2.25456 q -0.0896,0.83613 -0.7764,1.41843 -0.67189,0.5823 -1.70211,0.88092 -1.0153,0.28368 -2.15004,0.28368 z"
       style="font-weight:bold;font-size:30.3552px;font-family:Bahnschrift;-inkscape-font-specification:'Bahnschrift Bold';text-align:center;text-anchor:middle;stroke-width:0.46323"
       id="path12699" />
    <path
       d="m 269.61554,152.28763 q 0,0.56738 0.31355,0.88092 0.32848,0.29862 0.92571,0.29862 h 0.68682 v 3.94174 h -2.09032 q -1.86635,0 -2.89658,-1.07502 -1.03022,-1.07502 -1.03022,-3.03096 v -17.60345 h 4.09104 z"
       style="font-weight:bold;font-size:30.3552px;font-family:Bahnschrift;-inkscape-font-specification:'Bahnschrift Bold';text-align:center;text-anchor:middle;stroke-width:0.46323"
       id="path12701" />
    <path
       d="m 273.7066,153.31786 h 4.09104 v 4.09105 h -4.09104 z"
       style="font-weight:bold;font-size:30.3552px;font-family:Bahnschrift;-inkscape-font-specification:'Bahnschrift Bold';text-align:center;text-anchor:middle;stroke-width:0.46323"
       id="path12703" />
    <path
       d="m 281.30639,141.91071 h 4.09105 v 21.79901 h -4.09105 z m 7.68938,15.72216 q -1.35871,0 -2.34414,-0.68682 -0.98544,-0.70174 -1.46322,-1.97087 l 0.20903,-3.5386 q 0,0.76147 0.26875,1.29898 0.26876,0.53751 0.7764,0.8212 0.52258,0.28368 1.2542,0.28368 1.14967,0 1.77676,-0.76147 0.64203,-0.76147 0.64203,-2.15004 v -2.46359 q 0,-1.41843 -0.64203,-2.19483 -0.62709,-0.79133 -1.77676,-0.79133 -0.73162,0 -1.2542,0.29861 -0.50764,0.28369 -0.7764,0.83613 -0.26875,0.55244 -0.26875,1.34377 l -0.31355,-3.43409 q 0.62709,-1.3587 1.64239,-2.09031 1.03023,-0.74655 2.26949,-0.74655 1.64239,0 2.80699,0.79134 1.17954,0.79133 1.7917,2.31428 0.61217,1.52294 0.61217,3.65805 v 2.47852 q 0,2.12018 -0.61217,3.62819 -0.61216,1.49308 -1.7917,2.28442 -1.1646,0.79133 -2.80699,0.79133 z"
       style="font-weight:bold;font-size:30.3552px;font-family:Bahnschrift;-inkscape-font-specification:'Bahnschrift Bold';text-align:center;text-anchor:middle;stroke-width:0.46323"
       id="path12705" />
    <path
       d="m 302.03038,152.28763 q 0,0.56738 0.31355,0.88092 0.32848,0.29862 0.92571,0.29862 h 0.68682 v 3.94174 h -2.09031 q -1.86636,0 -2.89659,-1.07502 -1.03023,-1.07502 -1.03023,-3.03096 v -17.60345 h 4.09105 z"
       style="font-weight:bold;font-size:30.3552px;font-family:Bahnschrift;-inkscape-font-specification:'Bahnschrift Bold';text-align:center;text-anchor:middle;stroke-width:0.46323"
       id="path12707" />
    <path
       d="m 18.182376,73.276382 h -3.581917 v -0.895478 h 0.895479 V 66.11255 h -0.895479 v -0.895479 h 3.581917 v 0.895479 h -0.895478 v 6.268354 h 0.895478 z"
       style="font-size:4.53949px;line-height:1.25;font-family:'Fixedsys Excelsior';-inkscape-font-specification:'Fixedsys Excelsior, Normal';text-align:center;letter-spacing:0px;word-spacing:0px;text-anchor:middle;fill:#000000;stroke-width:0.358955"
       id="path9014" />
    <path
       d="m 27.13714,73.276382 h -1.79096 v -5.372874 h -0.895479 v 4.477396 h -0.895479 v -4.477396 h -0.895478 v 5.372874 h -1.790957 v -6.268353 h 5.372871 v 0.895479 h 0.895482 z"
       style="font-size:4.53949px;line-height:1.25;font-family:'Fixedsys Excelsior';-inkscape-font-specification:'Fixedsys Excelsior, Normal';text-align:center;letter-spacing:0px;word-spacing:0px;text-anchor:middle;fill:#000000;stroke-width:0.358955"
       id="path9016" />
    <path
       d="m 34.300943,73.276382 h -1.790957 v -5.372874 h -0.895479 v 4.477396 h -0.895478 v -4.477396 h -0.895482 v 5.372874 H 28.03259 v -6.268353 h 5.372874 v 0.895479 h 0.895479 z"
       style="font-size:4.53949px;line-height:1.25;font-family:'Fixedsys Excelsior';-inkscape-font-specification:'Fixedsys Excelsior, Normal';text-align:center;letter-spacing:0px;word-spacing:0px;text-anchor:middle;fill:#000000;stroke-width:0.358955"
       id="path9018" />
    <path
       d="m 40.569271,70.589946 h -3.581918 v 1.790958 h 2.686439 v 0.895478 h -3.581917 v -0.895478 h -0.895479 v -4.477396 h 0.895479 v -0.895479 h 3.581917 v 0.895479 h 0.895479 z m -1.79096,-0.895481 v -1.790957 h -1.790958 v 1.790957 z"
       style="font-size:4.53949px;line-height:1.25;font-family:'Fixedsys Excelsior';-inkscape-font-specification:'Fixedsys Excelsior, Normal';text-align:center;letter-spacing:0px;word-spacing:0px;text-anchor:middle;fill:#000000;stroke-width:0.358955"
       id="path9020" />
    <path
       d="m 47.733074,68.798986 h -2.686436 v 0.895479 h -0.895481 v 3.581917 h -1.790958 v -6.268353 h 1.790958 v 1.790957 h 0.895481 v -0.895478 h 0.895479 v -0.895479 h 1.790957 z"
       style="font-size:4.53949px;line-height:1.25;font-family:'Fixedsys Excelsior';-inkscape-font-specification:'Fixedsys Excelsior, Normal';text-align:center;letter-spacing:0px;word-spacing:0px;text-anchor:middle;fill:#000000;stroke-width:0.358955"
       id="path9022" />
    <path
       d="m 54.896877,72.380904 h -0.895478 v 0.895478 h -4.477396 v -0.895478 h 3.581917 v -1.790958 h -2.686436 v -0.895481 h -0.895481 v -1.790957 h 0.895481 v -0.895479 h 4.477393 v 0.895479 h -3.581914 v 1.790957 h 2.686436 v 0.895481 h 0.895478 z"
       style="font-size:4.53949px;line-height:1.25;font-family:'Fixedsys Excelsior';-inkscape-font-specification:'Fixedsys Excelsior, Normal';text-align:center;letter-spacing:0px;word-spacing:0px;text-anchor:middle;fill:#000000;stroke-width:0.358955"
       id="path9024" />
    <path
       d="m 60.269726,66.11255 h -1.790957 v -1.790958 h 1.790957 z m 1.790961,7.163832 h -5.372875 v -0.895478 h 1.790957 v -4.477396 h -1.790957 v -0.895479 h 3.581914 v 5.372875 h 1.790961 z"
       style="font-size:4.53949px;line-height:1.25;font-family:'Fixedsys Excelsior';-inkscape-font-specification:'Fixedsys Excelsior, Normal';text-align:center;letter-spacing:0px;word-spacing:0px;text-anchor:middle;fill:#000000;stroke-width:0.358955"
       id="path9026" />
    <path
       d="m 69.22449,72.380904 h -0.895479 v 0.895478 h -3.581917 v -0.895478 h -0.895479 v -4.477396 h 0.895479 v -0.895479 h 3.581917 v 0.895479 h 0.895479 z m -1.790957,0 v -4.477396 h -1.790961 v 4.477396 z"
       style="font-size:4.53949px;line-height:1.25;font-family:'Fixedsys Excelsior';-inkscape-font-specification:'Fixedsys Excelsior, Normal';text-align:center;letter-spacing:0px;word-spacing:0px;text-anchor:middle;fill:#000000;stroke-width:0.358955"
       id="path9028" />
    <path
       d="m 76.388293,73.276382 h -1.790957 v -5.372874 h -1.790957 v 5.372874 h -1.79096 v -6.268353 h 4.477395 v 0.895479 h 0.895479 z"
       style="font-size:4.53949px;line-height:1.25;font-family:'Fixedsys Excelsior';-inkscape-font-specification:'Fixedsys Excelsior, Normal';text-align:center;letter-spacing:0px;word-spacing:0px;text-anchor:middle;fill:#000000;stroke-width:0.358955"
       id="path9030" />
    <path
       d="m 90.715903,72.380904 h -0.895479 v 0.895478 H 86.238507 V 72.380904 H 85.343028 V 66.11255 h 0.895479 v -0.895479 h 3.581917 v 0.895479 h 0.895479 v 1.790958 H 88.924942 V 66.11255 h -1.790957 v 6.268354 h 1.790957 v -1.790958 h 1.790961 z"
       style="font-size:4.53949px;line-height:1.25;font-family:'Fixedsys Excelsior';-inkscape-font-specification:'Fixedsys Excelsior, Normal';text-align:center;letter-spacing:0px;word-spacing:0px;text-anchor:middle;fill:#000000;stroke-width:0.358955"
       id="path9032" />
    <path
       d="M 97.879709,72.380904 H 96.98423 v 0.895478 h -3.581917 v -0.895478 h -0.895479 v -4.477396 h 0.895479 v -0.895479 h 3.581917 v 0.895479 h 0.895479 z m -1.790957,0 v -4.477396 h -1.790961 v 4.477396 z"
       style="font-size:4.53949px;line-height:1.25;font-family:'Fixedsys Excelsior';-inkscape-font-specification:'Fixedsys Excelsior, Normal';text-align:center;letter-spacing:0px;word-spacing:0px;text-anchor:middle;fill:#000000;stroke-width:0.358955"
       id="path9034" />
    <path
       d="m 105.04352,72.380904 h -0.89548 v 0.895478 h -3.58192 v -0.895478 h -0.895479 v -4.477396 h 0.895479 v -0.895479 h 3.58192 v 0.895479 h 0.89548 z m -1.79096,0 v -4.477396 h -1.79096 v 4.477396 z"
       style="font-size:4.53949px;line-height:1.25;font-family:'Fixedsys Excelsior';-inkscape-font-specification:'Fixedsys Excelsior, Normal';text-align:center;letter-spacing:0px;word-spacing:0px;text-anchor:middle;fill:#000000;stroke-width:0.358955"
       id="path9036" />
    <path
       d="m 112.20732,73.276382 h -5.37288 v -0.895478 h 1.79096 V 66.11255 h -1.79096 v -0.895479 h 3.58192 v 7.163833 h 1.79096 z"
       style="font-size:4.53949px;line-height:1.25;font-family:'Fixedsys Excelsior';-inkscape-font-specification:'Fixedsys Excelsior, Normal';text-align:center;letter-spacing:0px;word-spacing:0px;text-anchor:middle;fill:#000000;stroke-width:0.358955"
       id="path9038" />
    <path
       d="m 117.58017,66.11255 h -1.79096 v -1.790958 h 1.79096 z m 1.79095,7.163832 h -5.37287 v -0.895478 h 1.79096 v -4.477396 h -1.79096 v -0.895479 h 3.58192 v 5.372875 h 1.79095 z"
       style="font-size:4.53949px;line-height:1.25;font-family:'Fixedsys Excelsior';-inkscape-font-specification:'Fixedsys Excelsior, Normal';text-align:center;letter-spacing:0px;word-spacing:0px;text-anchor:middle;fill:#000000;stroke-width:0.358955"
       id="path9040" />
    <path
       d="m 126.53492,73.276382 h -1.79095 v -5.372874 h -1.79096 v 5.372874 h -1.79096 v -6.268353 h 4.4774 v 0.895479 h 0.89547 z"
       style="font-size:4.53949px;line-height:1.25;font-family:'Fixedsys Excelsior';-inkscape-font-specification:'Fixedsys Excelsior, Normal';text-align:center;letter-spacing:0px;word-spacing:0px;text-anchor:middle;fill:#000000;stroke-width:0.358955"
       id="path9042" />
    <path
       d="m 133.69873,75.067339 h -0.89548 v 0.895479 h -4.47739 v -0.895479 h 3.58191 v -1.790957 h -2.68643 v -0.895478 h -0.89548 v -4.477396 h 0.89548 v -0.895479 h 4.47739 z m -1.79096,-2.686435 v -4.477396 h -1.79095 v 4.477396 z"
       style="font-size:4.53949px;line-height:1.25;font-family:'Fixedsys Excelsior';-inkscape-font-specification:'Fixedsys Excelsior, Normal';text-align:center;letter-spacing:0px;word-spacing:0px;text-anchor:middle;fill:#000000;stroke-width:0.358955"
       id="path9044" />
    <path
       inkscape:export-filename="C:\Users\8200\flameit-logo.png"
       style="fill:#000000;fill-opacity:1;stroke:none;stroke-width:0.25483;stroke-linecap:butt;stroke-linejoin:round;stroke-miterlimit:4;stroke-dasharray:none;stroke-dashoffset:0;stroke-opacity:1"
       d="m 59.257744,11.36893 c 0,0 -2.892422,3.622531 -2.368327,5.901299 0.524094,2.278767 0.608189,5.725523 0.608189,5.725523 0,0 0.09076,5.050803 -1.609408,3.266222 -1.70022,-1.784611 -0.587896,-2.690601 -0.349738,-3.535609 0.365378,-1.296387 -0.02859,-4.260561 -0.813389,-5.244527 0,0 0.656608,1.367197 -0.678093,3.638195 -1.334689,2.270967 -1.28113,3.840133 -0.767624,5.07148 0.513493,1.231314 -0.107811,2.427049 -0.664672,2.804381 -0.556783,0.377331 -1.744908,0.280327 -1.194714,-2.153097 0.532773,-2.35646 1.166178,-2.674618 -0.352725,-4.811541 0.303153,0.50573 0.822427,1.940503 -0.984796,4.29617 -2.295668,2.992366 -1.322549,7.287999 -0.689785,7.95755 -9.200026,-0.06406 -3.644021,-0.02854 -5.465962,-0.04757 -2.796648,0 -5.048075,2.253431 -5.048075,5.052581 V 50.07554 c 0,2.799118 2.251427,5.052549 5.048075,5.052549 h 60.44579 c 2.79665,0 5.04808,-2.253431 5.04808,-5.052549 V 39.289984 c 0,-2.79915 -2.25143,-5.052581 -5.04808,-5.052581 h -5.242339 c 0,0 0.595755,-3.716363 -0.05269,-6.271748 -0.673324,-2.653309 -3.184575,-3.613556 -1.494969,-9.653242 0,0 -3.249197,4.793054 -1.119631,8.860525 2.129567,4.067471 0.710527,5.78495 -0.72682,5.868668 -1.437372,0.08372 -2.790418,-0.675799 -1.741255,-3.845556 1.049189,-3.169758 -1.299243,-6.280089 -1.654404,-7.515843 -0.331867,-1.154765 -0.466125,-1.924776 -0.466125,-1.924776 -0.263207,1.818417 0.737794,4.593814 0.641738,6.902644 -0.05551,1.332695 0.63229,3.963046 -0.70022,3.939675 -4.458397,-0.07833 0.852976,-8.300569 -1.87955,-13.256335 0,0 -0.858398,-1.850191 -0.829567,-2.871102 0,0 -1.226903,5.079375 -0.18265,7.652805 0.836694,2.061704 -0.374929,5.487086 -1.474318,3.71909 -0.785391,-1.263057 -0.610984,-3.001687 -0.283192,-4.976884 0.246401,-1.484244 -0.124348,-3.723086 -0.124348,-3.723086 0,0 -0.228967,2.238556 -1.617125,4.856888 -1.388056,2.6183 -0.181061,4.115037 0.402989,5.771568 0.584064,1.656562 0.0159,2.942959 -1.995463,3.114358 -2.011346,0.171241 -2.603101,-1.042665 -1.716834,-2.6463 0.69663,-1.260521 1.495969,-1.264992 1.117118,-3.699398 -0.664735,-4.271502 -2.087929,-5.813046 -0.964144,-10.926734 0,0 -1.670646,2.565501 -1.408426,6.115413 0.219442,2.972133 0.551297,2.581387 0.34502,4.190636 -0.226108,1.763112 -2.239031,2.163307 -2.021307,-0.758595 l 0.468125,-6.281991 c 0,0 -1.874486,2.861619 -2.161858,6.329273 -0.175036,2.110792 -0.473984,2.66593 0.246721,4.215529 0.720731,1.549632 -0.07576,2.855406 -1.110401,3.520675 -0.918418,0.590621 -2.572411,0.454928 -3.250146,-0.401591 -1.704579,-2.154206 1.222596,-5.27256 0.890511,-8.195542 -0.166486,-1.550709 -1.465024,-3.406037 -1.039497,-4.561848 0,0 -1.029152,1.147851 -0.969119,2.534265 0.05999,1.386383 0.171869,4.684571 0.171869,4.684571 0,0 -0.301255,1.693443 -1.62133,1.882695 -1.320203,0.189316 -1.945993,-1.226875 -0.511941,-3.47111 1.434077,-2.244234 0.333598,-4.931791 0.333598,-4.931791 0,0 -1.214853,-3.664009 -0.364172,-5.417576 0,0 -2.322114,2.153066 -1.432809,4.166981 1.613792,3.654464 -2.524967,7.904052 -1.905368,4.828762 0,0 1.909458,-3.714684 0.76688,-5.855983 0,0 0.0064,2.080064 -1.169383,3.041898 -1.174498,0.961801 -3.745166,3.235114 -1.395709,5.584852 2.349457,2.349738 -1.696169,7.154684 -1.65666,5.877134 0.03961,-1.277549 0.4902,-1.434203 -0.498725,-4.967402 -0.988911,-3.533233 -0.159819,-7.183383 0.01282,-7.846243 0.171241,-0.662891 -2.476177,2.843608 -1.723821,5.477287 0.752343,2.633712 -0.90938,4.656729 -0.90938,4.656729 0,0 -2.041036,3.163701 -1.931572,0.556183 0.0723,-1.723568 0.685952,-2.602571 1.350713,-5.142703 0.515403,-1.969298 -0.183919,-2.163973 -1.120861,-6.066101 -0.679042,-2.828292 0.606446,-6.008102 0.606446,-6.008102 z m -8.190501,10.662326 c -0.08179,-0.136677 -0.14905,-0.209613 -0.14905,-0.209613 0.05423,0.07389 0.09961,0.139847 0.14905,0.209613 z m -6.322167,13.792348 h 58.809274 c 2.37193,0 4.28145,1.911203 4.28145,4.285231 v 9.147829 c 0,2.37406 -1.90952,4.285263 -4.28145,4.285263 H 44.745076 c -2.371904,0 -4.281426,-1.911203 -4.281426,-4.285263 v -9.147829 c 0,-2.374028 1.909522,-4.285231 4.281426,-4.285231 z"
       id="path12170"
       inkscape:connector-curvature="0"
       inkscape:export-xdpi="484"
       inkscape:export-ydpi="484" />
    <path
       inkscape:connector-curvature="0"
       d="m 47.41703,49.401771 v -9.078344 h 5.043074 v 1.00467 h -3.023426 v 3.026115 h 2.019649 v 1.016772 h -2.019649 v 4.030787 z"
       style="font-style:normal;font-variant:normal;font-weight:normal;font-stretch:normal;font-size:80.9027px;line-height:1.25;font-family:Silom;-inkscape-font-specification:'Silom, Normal';font-variant-ligatures:normal;font-variant-caps:normal;font-variant-numeric:normal;font-feature-settings:normal;text-align:start;letter-spacing:0px;word-spacing:0px;writing-mode:lr-tb;text-anchor:start;fill:#000000;fill-opacity:1;stroke:none;stroke-width:0.302477"
       id="path12172" />
    <path
       inkscape:connector-curvature="0"
       d="m 54.479563,49.401771 v -9.078344 h 2.019648 v 9.078344 z"
       style="font-style:normal;font-variant:normal;font-weight:normal;font-stretch:normal;font-size:80.9027px;line-height:1.25;font-family:Silom;-inkscape-font-specification:'Silom, Normal';font-variant-ligatures:normal;font-variant-caps:normal;font-variant-numeric:normal;font-feature-settings:normal;text-align:start;letter-spacing:0px;word-spacing:0px;writing-mode:lr-tb;text-anchor:start;fill:#000000;fill-opacity:1;stroke:none;stroke-width:0.302477"
       id="path12174" />
    <path
       inkscape:connector-curvature="0"
       d="m 62.557966,45.370984 v -1.016772 q 0,-0.411552 -0.302344,-0.702058 -0.290249,-0.30262 -0.713529,-0.30262 h -1.003775 q -0.894933,0 -1.003778,1.004671 h -1.01587 q 0.241874,-2.009334 2.019648,-2.009334 h 2.019648 q 0.822372,0 1.414963,0.593118 0.592592,0.593117 0.592592,1.416223 v 5.047559 H 62.557966 V 48.3971 q -0.120937,1.004671 -1.015871,1.004671 h -1.003777 q -0.822372,0 -1.427057,-0.59312 -0.592591,-0.593117 -0.592591,-1.428327 v 0 q 0,-0.823102 0.592591,-1.416219 0.604685,-0.593121 1.427057,-0.593121 z m 0,1.004672 h -1.015871 q -0.411186,0 -0.713528,0.30262 -0.290249,0.290506 -0.290249,0.702058 v 0 q 0,0.411551 0.290249,0.714165 0.302341,0.30262 0.713528,0.30262 0.42328,0 0.713529,-0.30262 0.302344,-0.30262 0.302344,-0.714165 z"
       style="font-style:normal;font-variant:normal;font-weight:normal;font-stretch:normal;font-size:80.9027px;line-height:1.25;font-family:Silom;-inkscape-font-specification:'Silom, Normal';font-variant-ligatures:normal;font-variant-caps:normal;font-variant-numeric:normal;font-feature-settings:normal;text-align:start;letter-spacing:0px;word-spacing:0px;writing-mode:lr-tb;text-anchor:start;fill:#000000;fill-opacity:1;stroke:none;stroke-width:0.302477"
       id="path12176" />
    <path
       inkscape:connector-curvature="0"
       d="m 72.643735,49.401771 h -2.007552 v -5.047559 q 0,-0.411552 -0.302334,-0.702058 -0.290253,-0.30262 -0.713528,-0.30262 -0.411187,0 -0.713528,0.30262 -0.290253,0.290506 -0.290253,0.702058 v 5.047559 h -2.019655 v -7.0569 h 2.019649 v 1.004669 q 0.06047,-0.508386 0.314448,-0.750475 0.253976,-0.254194 0.689342,-0.254194 h 1.015872 q 1.027963,0 1.511712,0.714163 0.241861,-0.363133 0.61678,-0.532596 0.374902,-0.181566 0.894931,-0.181566 h 1.003777 q 0.822374,0 1.414964,0.593119 0.604686,0.593115 0.604686,1.416221 v 5.047559 h -2.01965 v -5.047559 q 0,-0.399447 -0.302334,-0.702058 -0.290253,-0.30262 -0.701436,-0.30262 -0.411184,0 -0.713528,0.30262 -0.302335,0.290506 -0.302335,0.702058 z"
       style="font-style:normal;font-variant:normal;font-weight:normal;font-stretch:normal;font-size:80.9027px;line-height:1.25;font-family:Silom;-inkscape-font-specification:'Silom, Normal';font-variant-ligatures:normal;font-variant-caps:normal;font-variant-numeric:normal;font-feature-settings:normal;text-align:start;letter-spacing:0px;word-spacing:0px;writing-mode:lr-tb;text-anchor:start;fill:#000000;fill-opacity:1;stroke:none;stroke-width:0.302477"
       id="path12178" />
    <path
       inkscape:connector-curvature="0"
       d="m 84.73744,46.375656 h -4.027203 v 1.004668 q 0,0.411551 0.290252,0.714165 0.302335,0.30262 0.713531,0.30262 h 1.015869 q 1.00378,0 1.00378,-1.016775 h 1.003778 q -0.22978,2.021447 -2.007558,2.021447 h -2.019646 q -0.822373,0 -1.427059,-0.59312 -0.59259,-0.593117 -0.59259,-1.428327 v -3.026113 q 0,-0.823105 0.59259,-1.416222 0.604686,-0.593119 1.427059,-0.593119 h 2.019646 q 0.822373,0 1.414967,0.593119 0.592591,0.593117 0.592591,1.416222 z m -4.027203,-1.004672 h 2.019646 v -1.016772 q 0,-0.411552 -0.302335,-0.702058 -0.290253,-0.30262 -0.713528,-0.30262 -0.411186,0 -0.713531,0.30262 -0.290252,0.290506 -0.290252,0.702058 z"
       style="font-style:normal;font-variant:normal;font-weight:normal;font-stretch:normal;font-size:80.9027px;line-height:1.25;font-family:Silom;-inkscape-font-specification:'Silom, Normal';font-variant-ligatures:normal;font-variant-caps:normal;font-variant-numeric:normal;font-feature-settings:normal;text-align:start;letter-spacing:0px;word-spacing:0px;writing-mode:lr-tb;text-anchor:start;fill:#000000;fill-opacity:1;stroke:none;stroke-width:0.302477"
       id="path12180" />
    <path
       inkscape:connector-curvature="0"
       d="m 90.808099,49.401771 v -9.078344 h 2.007554 v 9.078344 z"
       style="font-style:normal;font-variant:normal;font-weight:normal;font-stretch:normal;font-size:80.9027px;line-height:1.25;font-family:Silom;-inkscape-font-specification:'Silom, Normal';font-variant-ligatures:normal;font-variant-caps:normal;font-variant-numeric:normal;font-feature-settings:normal;text-align:start;letter-spacing:0px;word-spacing:0px;writing-mode:lr-tb;text-anchor:start;fill:#000000;fill-opacity:1;stroke:none;stroke-width:0.302477"
       id="path12182" />
    <path
       inkscape:connector-curvature="0"
       d="m 96.854955,49.401771 v -8.073674 h -2.019649 v -1.00467 h 6.046854 v 1.00467 h -2.019651 v 8.073674 z"
       style="font-style:normal;font-variant:normal;font-weight:normal;font-stretch:normal;font-size:80.9027px;line-height:1.25;font-family:Silom;-inkscape-font-specification:'Silom, Normal';font-variant-ligatures:normal;font-variant-caps:normal;font-variant-numeric:normal;font-feature-settings:normal;text-align:start;letter-spacing:0px;word-spacing:0px;writing-mode:lr-tb;text-anchor:start;fill:#000000;fill-opacity:1;stroke:none;stroke-width:0.302477"
       id="path12184" />
    <path
       d="m 42.043421,168.79571 q -0.839516,0 -1.482433,-0.35069 -0.63761,-0.35599 -0.988292,-0.99892 -0.350682,-0.64823 -0.350682,-1.49837 v -2.18911 q 0,-0.85015 0.350682,-1.49307 0.350682,-0.64823 0.988292,-0.99892 0.642917,-0.356 1.482433,-0.356 0.839516,0 1.477126,0.356 0.642917,0.35069 0.993599,0.99892 0.350682,0.64292 0.350682,1.49307 v 2.18911 q 0,0.85014 -0.350682,1.49837 -0.350682,0.64293 -0.993599,0.99892 -0.63761,0.35069 -1.477126,0.35069 z m 0,-1.45588 q 0.393188,0 0.69074,-0.1647 0.297552,-0.17004 0.456952,-0.47821 0.164717,-0.30818 0.164717,-0.712 v -2.2635 q 0,-0.40381 -0.164717,-0.71199 -0.1594,-0.30819 -0.456952,-0.47289 -0.297552,-0.17004 -0.69074,-0.17004 -0.393188,0 -0.69074,0.17004 -0.297552,0.1647 -0.46227,0.47289 -0.159399,0.30818 -0.159399,0.71199 v 2.2635 q 0,0.40382 0.159399,0.712 0.164718,0.30817 0.46227,0.47821 0.297552,0.1647 0.69074,0.1647 z"
       id="path12710"
       style="font-weight:bold;font-size:9.82301px;font-family:Bahnschrift;-inkscape-font-specification:'Bahnschrift Bold';fill:#000000;stroke-width:0.164513" />
    <path
       d="m 49.466231,163.20071 h 1.450551 v 5.5153 h -1.450551 z m -1.710914,3.35275 q 0,0.3985 0.223164,0.62167 0.22847,0.21785 0.63761,0.21785 0.409129,0 0.626976,-0.22317 0.223164,-0.22847 0.223164,-0.64823 l 0.07433,1.20614 q -0.154094,0.45163 -0.515399,0.75982 -0.356,0.30817 -0.871399,0.30817 -0.887339,0 -1.370856,-0.56854 -0.483517,-0.57384 -0.483517,-1.62058 v -3.40588 h 1.455868 z"
       id="path12712"
       style="font-weight:bold;font-size:9.82301px;font-family:Bahnschrift;-inkscape-font-specification:'Bahnschrift Bold';fill:#000000;stroke-width:0.164513" />
    <path
       d="m 53.892282,168.74257 q -0.722611,0 -1.062669,-0.36662 -0.334752,-0.37194 -0.334752,-1.09456 v -5.68532 h 1.455868 v 5.32401 q 0,0.20191 0.07976,0.3135 0.07965,0.10623 0.233788,0.10623 h 0.361316 v 1.40274 z m -1.96595,-5.54186 h 2.699207 v 1.24333 h -2.699207 z"
       id="path12714"
       style="font-weight:bold;font-size:9.82301px;font-family:Bahnschrift;-inkscape-font-specification:'Bahnschrift Bold';fill:#000000;stroke-width:0.164513" />
    <path
       d="m 58.010168,168.79571 q -0.494151,0 -0.961727,-0.0851 -0.467576,-0.0903 -0.876705,-0.26036 -0.40914,-0.17002 -0.722622,-0.40913 v 0 L 56.347077,166.92 v 0 q 0.398505,0.25504 0.834199,0.39318 0.435693,0.13816 0.828892,0.13816 0.510082,0 0.791693,-0.11159 0.281611,-0.11689 0.281611,-0.3188 0,-0.18597 -0.122211,-0.28161 -0.122211,-0.0956 -0.313493,-0.13284 -0.191282,-0.0425 -0.536647,-0.0744 -0.0956,-0.0111 -0.196599,-0.0213 -0.0956,-0.0111 -0.196589,-0.0213 -0.02127,-0.006 -0.04786,-0.006 -0.02127,-0.006 -0.04254,-0.006 -0.616352,-0.0796 -0.988293,-0.1966 -0.37194,-0.11689 -0.632293,-0.44631 -0.255046,-0.33476 -0.255046,-0.96705 0,-0.55259 0.26567,-0.94578 0.26567,-0.39319 0.770446,-0.5951 0.504764,-0.20722 1.22208,-0.20722 0.419752,0 0.834198,0.085 0.419764,0.085 0.802328,0.24442 0.382564,0.1594 0.706681,0.38256 v 0 l -0.866092,1.05737 v 0 q -0.361305,-0.20191 -0.754493,-0.3135 -0.393199,-0.11157 -0.754504,-0.11157 -0.441011,0 -0.685434,0.10092 -0.244412,0.10091 -0.244412,0.28161 0,0.13814 0.127518,0.21784 0.132835,0.0743 0.324117,0.11158 0.196599,0.0319 0.56854,0.0744 0.04786,0.006 0.0956,0.0111 0.04786,0.006 0.0956,0.0111 0.02127,0.006 0.04786,0.006 0.02659,0 0.04786,0.006 0.642928,0.0744 1.046739,0.19128 0.403823,0.11689 0.685434,0.46757 0.286918,0.3507 0.286918,1.0308 0,0.57385 -0.276294,0.98299 -0.276294,0.40913 -0.807634,0.62697 -0.53134,0.21254 -1.280527,0.21254 z"
       id="path12716"
       style="font-weight:bold;font-size:9.82301px;font-family:Bahnschrift;-inkscape-font-specification:'Bahnschrift Bold';fill:#000000;stroke-width:0.164513" />
    <path
       d="m 63.76457,168.79571 q -0.754505,0 -1.291151,-0.28161 -0.53134,-0.28161 -0.812951,-0.81827 -0.276294,-0.54196 -0.276294,-1.30177 v -0.89796 q 0,-0.74919 0.276294,-1.28053 0.281611,-0.53666 0.812951,-0.81295 0.536646,-0.28161 1.291151,-0.28161 0.754504,0 1.285844,0.28161 0.536647,0.27629 0.812952,0.81295 0.2816,0.53134 0.2816,1.28053 v 0.9139 q 0,0.75449 -0.2816,1.29115 -0.276305,0.53134 -0.812952,0.81295 -0.53134,0.28161 -1.285844,0.28161 z m -0.0055,-1.40273 q 0.441011,0 0.685433,-0.25505 0.244412,-0.26035 0.244412,-0.72793 v -0.9139 q 0,-0.46227 -0.244412,-0.71732 -0.244422,-0.25503 -0.685433,-0.25503 -0.435694,0 -0.680105,0.25503 -0.239106,0.25505 -0.239106,0.71732 v 0.9139 q 0,0.46758 0.239106,0.72793 0.239094,0.25505 0.680105,0.25505 z"
       id="path12718"
       style="font-weight:bold;font-size:9.82301px;font-family:Bahnschrift;-inkscape-font-specification:'Bahnschrift Bold';fill:#000000;stroke-width:0.164513" />
    <path
       d="m 70.507263,163.20071 h 1.450562 v 5.5153 h -1.450562 z m -1.710914,3.35275 q 0,0.3985 0.223164,0.62167 0.228482,0.21785 0.637611,0.21785 0.409128,0 0.626975,-0.22317 0.223164,-0.22847 0.223164,-0.64823 l 0.07433,1.20614 q -0.154093,0.45163 -0.515399,0.75982 -0.355999,0.30817 -0.871398,0.30817 -0.88734,0 -1.370857,-0.56854 -0.483516,-0.57384 -0.483516,-1.62058 v -3.40588 h 1.455868 z"
       id="path12720"
       style="font-weight:bold;font-size:9.82301px;font-family:Bahnschrift;-inkscape-font-specification:'Bahnschrift Bold';fill:#000000;stroke-width:0.164513" />
    <path
       d="m 73.392435,163.20071 h 1.562138 v 5.5153 h -1.562138 z m 3.103018,1.53556 q -0.106237,-0.10623 -0.260353,-0.1594 -0.154082,-0.0532 -0.355999,-0.0532 -0.441011,0 -0.685423,0.28692 -0.239105,0.28161 -0.239105,0.78638 l -0.111577,-1.43462 q 0.228471,-0.49414 0.589788,-0.76512 0.366623,-0.2763 0.802316,-0.2763 0.345376,0 0.621669,0.11158 0.281612,0.10624 0.488835,0.31881 z"
       id="path12722"
       style="font-weight:bold;font-size:9.82301px;font-family:Bahnschrift;-inkscape-font-specification:'Bahnschrift Bold';fill:#000000;stroke-width:0.164513" />
    <path
       d="m 80.262657,168.79571 q -0.786386,0 -1.349609,-0.29755 -0.557905,-0.30287 -0.85014,-0.87671 -0.292234,-0.57385 -0.292234,-1.38148 v -0.58979 q 0,-0.80232 0.292234,-1.36554 0.292235,-0.56853 0.85014,-0.86608 0.563223,-0.29755 1.349609,-0.29755 0.451635,0 0.85014,0.10623 0.403811,0.10092 0.722622,0.29756 0.3188,0.19658 0.53134,0.4782 v 0 l -0.94048,0.9139 v 0 q -0.201905,-0.18596 -0.472882,-0.28693 -0.270987,-0.10624 -0.56854,-0.10624 -0.552587,0 -0.855457,0.29755 -0.302858,0.29224 -0.302858,0.82889 v 0.58978 q 0,0.5526 0.302858,0.85546 0.30287,0.29755 0.855457,0.29755 0.30287,0 0.573846,-0.11158 0.270988,-0.11158 0.467576,-0.3188 v 0 l 0.94048,0.96703 v 0 q -0.217858,0.27631 -0.536657,0.47289 -0.3188,0.19129 -0.717305,0.29224 -0.398505,0.10092 -0.85014,0.10092 z"
       id="path12724"
       style="font-weight:bold;font-size:9.82301px;font-family:Bahnschrift;-inkscape-font-specification:'Bahnschrift Bold';fill:#000000;stroke-width:0.164513" />
    <path
       d="m 83.27004,160.99034 h 1.455868 v 1.45587 H 83.27004 Z m 0,2.21037 h 1.455868 v 5.5153 H 83.27004 Z"
       id="path12726"
       style="font-weight:bold;font-size:9.82301px;font-family:Bahnschrift;-inkscape-font-specification:'Bahnschrift Bold';fill:#000000;stroke-width:0.164513" />
    <path
       d="m 86.080823,163.20071 h 1.455868 v 5.5153 h -1.455868 z m 3.18803,2.17317 q 0,-0.40382 -0.233788,-0.62697 -0.228482,-0.22316 -0.653552,-0.22316 -0.403811,0 -0.626975,0.22847 -0.217847,0.22316 -0.217847,0.63229 l -0.111588,-1.22208 q 0.249729,-0.52071 0.595105,-0.78107 0.350682,-0.26035 0.876705,-0.26035 0.871398,0 1.349608,0.58978 0.4782,0.58447 0.4782,1.65778 v 3.34744 h -1.455868 z"
       id="path12728"
       style="font-weight:bold;font-size:9.82301px;font-family:Bahnschrift;-inkscape-font-specification:'Bahnschrift Bold';fill:#000000;stroke-width:0.164513" />
    <path
       d="m 94.114668,170.95826 q -0.658858,0 -1.179575,-0.23378 -0.515399,-0.22849 -0.802316,-0.64824 v 0 l 0.977657,-0.89796 v 0 q 0.185976,0.2019 0.446329,0.30817 0.260352,0.11158 0.541963,0.11158 0.456953,0 0.743881,-0.24973 0.292235,-0.24973 0.292235,-0.69074 v -5.45685 h 1.455868 v 5.35058 q 0,0.75982 -0.292235,1.30179 -0.286928,0.54196 -0.844833,0.82357 -0.552588,0.28161 -1.338974,0.28161 z m -0.260353,-2.16255 q -0.584481,0 -1.004233,-0.28161 -0.414447,-0.28161 -0.632293,-0.81295 -0.217847,-0.53666 -0.217847,-1.29115 v -0.88202 q 0,-0.75982 0.217847,-1.30179 0.217846,-0.54196 0.632293,-0.82357 0.419752,-0.28161 1.004233,-0.28161 0.441011,0 0.802316,0.26567 0.366623,0.26035 0.589788,0.74387 l -0.111577,1.22208 q 0,-0.2816 -0.0956,-0.4782 -0.0956,-0.1966 -0.281611,-0.29756 -0.180648,-0.10623 -0.441011,-0.10623 -0.409129,0 -0.6376,0.28161 -0.223164,0.27629 -0.223164,0.78107 v 0.87671 q 0,0.49414 0.223164,0.76513 0.228471,0.27098 0.6376,0.27098 0.260363,0 0.441011,-0.10092 0.185975,-0.10092 0.281611,-0.29224 0.0956,-0.19128 0.0956,-0.46227 l 0.07433,1.25928 q -0.170035,0.45164 -0.520717,0.70137 -0.350682,0.24442 -0.834199,0.24442 z"
       id="path12730"
       style="font-weight:bold;font-size:9.82301px;font-family:Bahnschrift;-inkscape-font-specification:'Bahnschrift Bold';fill:#000000;stroke-width:0.164513" />
    <path
       d="m 102.45669,168.71601 h -1.509 v -7.72567 h 1.509 z"
       id="path12732"
       style="font-weight:bold;font-size:9.82301px;font-family:Bahnschrift;-inkscape-font-specification:'Bahnschrift Bold';fill:#000000;stroke-width:0.164513" />
    <path
       d="m 105.51721,161.62263 h 1.45587 v 7.09338 h -1.45587 z m -2.1041,-0.63229 h 5.66407 v 1.40273 h -5.66407 z"
       id="path12734"
       style="font-weight:bold;font-size:9.82301px;font-family:Bahnschrift;-inkscape-font-specification:'Bahnschrift Bold';fill:#000000;stroke-width:0.164513" />
    <path
       d="m 87.699795,154.68408 c 0.732822,0 1.221378,-0.54962 1.221378,-1.09925 0,-0.30535 -0.122157,-0.54962 -0.305345,-0.7939 L 72.676673,132.51582 88.55475,112.85141 c 0.183116,-0.24428 0.305368,-0.48856 0.305368,-0.7939 0,-0.54963 -0.48858,-1.09926 -1.221401,-1.09926 h -5.557326 c -0.732846,0 -1.404613,0.30535 -1.83209,0.85498 l -14.04601,17.64911 h -2.015302 v -17.22163 c 0,-0.73283 -0.549634,-1.28246 -1.282456,-1.28246 h -4.885582 c -0.732822,0 -1.282456,0.54963 -1.282456,1.28246 v 41.09984 c 0,0.73284 0.549634,1.28247 1.282456,1.28247 h 4.885582 c 0.732822,0 1.282456,-0.54963 1.282456,-1.28247 V 136.3632 h 2.320646 l 13.740666,17.40484 c 0.427477,0.54963 1.099244,0.85498 1.771012,0.85498 z"
       style="font-weight:bold;font-size:25.6463px;font-family:'Miriam Libre';-inkscape-font-specification:'Miriam Libre, Bold';fill:#000000;stroke-width:0.92326"
       id="path2881" />
    <path
       d="m 223.94785,35.208639 h 3.18965 v 16.926108 h -3.18965 z m 1.15247,13.852866 h 10.18593 v 3.073242 h -10.18593 z m 0,-6.868228 h 8.90541 v 3.073241 h -8.90541 z m 0,-6.984638 h 10.18593 v 3.073241 h -10.18593 z"
       id="path12737"
       style="font-weight:bold;font-size:23.8409px;font-family:Bahnschrift;-inkscape-font-specification:'Bahnschrift Bold';stroke-width:0.360431" />
    <path
       d="m 238.19651,35.208639 h 3.18966 v 16.926108 h -3.18966 z m 1.42021,13.852866 h 9.91819 v 3.073242 h -9.91819 z"
       id="path12739"
       style="font-weight:bold;font-size:23.8409px;font-family:Bahnschrift;-inkscape-font-specification:'Bahnschrift Bold';stroke-width:0.360431" />
    <path
       d="m 262.5147,35.208639 h 4.20242 V 52.134747 H 263.8185 V 38.991985 l 0.11641,0.745028 -3.23622,10.511881 h -2.81714 l -3.23621,-10.27906 0.11641,-0.977849 v 13.142762 h -2.89863 V 35.208639 h 4.20243 l 3.22457,11.408243 z"
       id="path12741"
       style="font-weight:bold;font-size:23.8409px;font-family:Bahnschrift;-inkscape-font-specification:'Bahnschrift Bold';stroke-width:0.360431" />
    <path
       d="m 275.05212,35.208639 h 2.02555 l 6.47243,16.926108 h -3.43411 l -4.05109,-11.559578 -4.05109,11.559578 h -3.43412 z m -3.36426,11.140498 h 8.90541 v 3.073241 h -8.90541 z"
       id="path12743"
       style="font-weight:bold;font-size:23.8409px;font-family:Bahnschrift;-inkscape-font-specification:'Bahnschrift Bold';stroke-width:0.360431" />
    <path
       d="m 286.91437,42.251483 h 5.89038 q 0.48892,0 0.86143,-0.244463 0.37252,-0.244462 0.57042,-0.698464 0.20954,-0.454001 0.22118,-1.047695 v 0 q 0,-0.593695 -0.20954,-1.047696 -0.1979,-0.454002 -0.57041,-0.698464 -0.37252,-0.244462 -0.87308,-0.244462 h -5.89038 v -3.073242 h 6.14648 q 1.39693,0 2.45626,0.628618 1.05934,0.628617 1.64139,1.781083 0.58206,1.140824 0.58206,2.654163 v 0 q 0,1.513338 -0.58206,2.665803 -0.58205,1.140825 -1.65303,1.769442 -1.05933,0.628618 -2.44462,0.628618 h -6.14648 z m -1.26888,-7.054486 h 3.18965 v 16.93775 h -3.18965 z m 4.83104,9.603879 3.41083,-0.535489 4.5633,7.86936 h -3.86483 z"
       id="path12745"
       style="font-weight:bold;font-size:23.8409px;font-family:Bahnschrift;-inkscape-font-specification:'Bahnschrift Bold';stroke-width:0.360431" />
    <path
       d="m 310.66214,52.134747 h -3.30606 V 35.208639 h 3.30606 z"
       id="path12747"
       style="font-weight:bold;font-size:23.8409px;font-family:Bahnschrift;-inkscape-font-specification:'Bahnschrift Bold';stroke-width:0.360431" />
    <path
       d="m 317.36739,36.593925 h 3.18966 v 15.540822 h -3.18966 z m -4.60986,-1.385286 h 12.40938 v 3.073241 h -12.40938 z"
       id="path12749"
       style="font-weight:bold;font-size:23.8409px;font-family:Bahnschrift;-inkscape-font-specification:'Bahnschrift Bold';stroke-width:0.360431" />
    <path
       id="rect12187"
       style="fill:#000000;stroke:#000000;stroke-width:0.0246787"
       d="m 179.70579,68.080753 h 0.58844 v 43.838507 h -0.58844 z" />
    <path
       id="rect12269"
       style="fill:#000000;stroke:#000000;stroke-width:0.0246787"
       d="m 158.08075,90.294225 v -0.588436 h 43.83851 v 0.588436 z" />
  </g>
  <metadata
     id="metadata828">
    <rdf:RDF>
      <cc:Work
         rdf:about="">
        <dc:title>Szyld - Surowieckiego10</dc:title>
        <dc:creator>
          <cc:Agent>
            <dc:title>Pawe 'felixd' Wojciechowski</dc:title>
          </cc:Agent>
        </dc:creator>
      </cc:Work>
    </rdf:RDF>
  </metadata>
</svg>
